<svg width="520" height="420" viewBox="0 0 620 520" fill="none" xmlns="http://www.w3.org/2000/svg">
<g clip-path="url(#clip0_854_2566)">
<path d="M521.296 93.7164C517.585 89.0827 452.058 9.20908 347.389 15.9859C332.602 16.9705 243.184 24.5003 209.029 85.3178C182.471 132.64 210.595 174.633 178.18 206.837C149.939 234.929 115.204 216.336 97.8079 239.041C71.3652 273.62 113.465 367.105 178.238 419.177C249.969 476.924 377.485 508.433 472.296 440.665C566.237 373.535 565.483 253.985 565.367 235.045C565.193 209.443 564.845 148.684 521.296 93.7164Z" fill="#F4F7FA"/>
<path d="M221.555 366.41C218.597 373.361 213.146 383.034 207.289 394.154H331.558C312.596 359.112 287.777 323.027 307.087 254.564C316.191 222.476 344.2 164.265 324.368 131.018C301.752 93.1371 271.134 115.321 258.203 85.3756C237.965 38.5172 191.517 10.5991 150.403 41.2974C109.811 71.5903 123.96 158.762 195.866 245.934C240.343 314.339 236.921 330.036 221.555 366.41Z" fill="url(#paint0_linear_854_2566)"/>
<path d="M271.54 386.973C270.09 370.871 267.945 355.753 265.625 339.767L264.871 334.438C263.306 326.792 261.914 319.263 260.638 311.907C257.681 295.399 254.897 279.76 249.678 263.542C249.504 262.558 249.33 261.631 249.214 260.646C248.693 257.055 248.113 253.406 245.561 250.162L245.503 250.047C224.337 163.107 184.905 79.1785 128.251 0.40545L128.831 0C185.485 78.7731 224.975 162.817 246.083 249.757C248.751 253.116 249.33 257.055 249.852 260.53C250.026 261.515 250.142 262.442 250.316 263.369C255.535 279.644 258.319 295.283 261.276 311.791C262.61 319.089 263.943 326.677 265.509 334.322L266.263 339.651C268.582 355.637 270.728 370.755 272.178 386.857L271.54 386.973Z" fill="#FCFDFE"/>
<path d="M259.421 308.952C252.578 267.423 267.423 214.772 281.051 177.876C295.838 137.968 312.422 107.444 312.596 107.154L313.234 107.502C313.06 107.791 296.475 138.258 281.746 178.166C268.119 214.946 253.332 267.481 260.175 308.837L259.421 308.952Z" fill="#FCFDFE"/>
<path d="M205.144 132.003C195.46 88.3302 195.402 40.2555 195.402 24.443C195.402 21.431 195.402 19.4038 195.344 19.0563L196.04 18.9404C196.098 19.3459 196.098 20.9677 196.098 24.443C196.098 40.1976 196.156 88.2723 205.84 131.829L205.144 132.003Z" fill="#FCFDFE"/>
<path d="M231.296 200.292C210.884 164.438 128.019 141.965 127.149 141.733L127.323 141.038C128.135 141.27 211.348 163.801 231.876 199.944L231.296 200.292Z" fill="#FCFDFE"/>
<path d="M200.215 227.863C200.911 284.858 228.398 266.091 253.796 271.71C283.08 314.05 285.864 353.321 242.083 387.263L193.373 379.965C175.28 379.154 154.057 373.593 155.274 349.556C156.608 322.333 163.045 305.072 132.311 291.693C101.577 278.313 88.3559 253.928 100.823 226.241C113.929 197.049 83.195 157.72 105.636 138.143C144.778 104.085 199.519 168.494 200.215 227.863Z" fill="url(#paint1_linear_854_2566)"/>
<path d="M212.334 329.862C191.981 307.62 174.352 282.888 159.913 256.418C145.358 229.716 134.282 201.508 126.918 172.606C122.743 156.04 119.727 139.185 118.104 122.446L118.857 122.388C120.481 139.069 123.438 155.924 127.672 172.432C134.978 201.219 146.054 229.368 160.551 256.07C174.932 282.54 192.56 307.157 212.856 329.399L212.334 329.862Z" fill="#FCFDFE"/>
<path d="M159.855 361.197L159.507 360.56C168.553 355.927 179.223 352.335 191.226 349.903C196.967 348.744 202.65 347.933 208.101 347.586L208.159 348.339C202.708 348.686 197.025 349.439 191.342 350.656C179.455 353.031 168.843 356.622 159.855 361.197Z" fill="#FCFDFE"/>
<path d="M169.365 272.694C144.198 248.367 90.617 250.568 90.0951 250.626L90.0371 249.873C90.559 249.873 144.488 247.614 169.887 272.173L169.365 272.694Z" fill="#FCFDFE"/>
<path d="M138.341 209.212C130.803 170.405 159.913 125.574 160.203 125.11L160.84 125.516C160.551 125.979 131.614 170.579 139.095 209.038L138.341 209.212Z" fill="#FCFDFE"/>
<path d="M419.121 109.413L424.514 109.355C424.514 109.355 437.446 93.0211 446.202 92.0944L447.014 46.0469C413.497 46.1627 383.981 64.9872 370.527 92.8473L419.121 109.413Z" fill="url(#paint2_linear_854_2566)"/>
<path d="M483.72 129.859C480.995 144.977 467.194 156.909 450.261 157.43C446.086 157.546 441.215 155.055 441.215 155.055C441.215 155.055 436.75 155.287 435.996 154.997L409.611 195.832C421.905 201.392 435.764 204.057 450.261 203.246C492.419 200.813 525.588 169.13 529.241 130.96L483.72 129.859Z" fill="url(#paint3_linear_854_2566)"/>
<path d="M401.377 191.546L406.654 191.719L427.993 150.595C420.049 144.687 414.888 135.536 414.888 125.11C414.888 122.619 415.178 120.129 415.758 117.812L372.267 101.42L366.99 101.478C364.38 109.123 362.931 117.29 362.931 125.747C362.989 153.781 378.356 177.876 401.377 191.546Z" fill="url(#paint4_linear_854_2566)"/>
<path d="M455.48 92.3264C470.905 94.6432 482.735 106.517 484.127 121.287L558.584 123.43V123.372C558.584 123.372 558.584 123.372 558.584 123.314C558.584 123.256 569.833 121.519 569.833 121.519C569.833 120.997 468.122 14.1904 468.122 14.1904L456.814 16.1018C456.814 16.1018 455.886 66.8989 455.48 92.3264Z" fill="url(#paint5_linear_854_2566)"/>
<path d="M424.455 109.414C429.848 99.9724 439.88 93.3114 451.536 92.153L452.348 46.1055C418.831 46.2213 389.315 65.0458 375.861 92.9059L424.455 109.414Z" fill="url(#paint6_linear_854_2566)"/>
<path d="M489.055 129.86C486.329 144.978 472.528 156.91 455.596 157.431C450.551 157.605 445.738 156.736 441.389 154.998L415.004 195.833C427.297 201.393 441.157 204.058 455.654 203.247C497.811 200.814 530.98 169.131 534.634 130.961L489.055 129.86Z" fill="url(#paint7_linear_854_2566)"/>
<path d="M406.712 191.546L433.328 150.596C425.384 144.688 420.223 135.536 420.223 125.11C420.223 122.62 420.513 120.129 421.093 117.812L372.325 101.479C369.715 109.124 368.266 117.291 368.266 125.748C368.324 153.782 383.69 177.877 406.712 191.546Z" fill="url(#paint8_linear_854_2566)"/>
<path d="M466.671 90.4153C482.096 92.7321 493.925 104.606 495.317 119.376L569.774 121.519C569.774 121.461 569.774 121.461 569.774 121.403C569.774 66.8413 526.225 20.1566 468.005 14.1328L466.671 90.4153Z" fill="url(#paint9_linear_854_2566)"/>
<g opacity="0.3">
<path d="M445.449 156.272C444.057 155.925 442.723 155.461 441.39 154.998L415.005 195.833C427.298 201.393 441.158 204.057 455.655 203.247C467.368 202.551 478.386 199.655 488.244 194.906C478.27 193.4 469.34 189.635 462.265 183.322C454.147 176.139 448.87 166.177 445.449 156.272Z" fill="url(#paint10_linear_854_2566)"/>
</g>
<g opacity="0.3">
<path d="M436.575 64.3502C433.444 58.558 428.979 54.2139 423.934 50.8545C402.768 58.1526 385.313 73.2701 375.861 92.9054L424.455 109.413C427.819 103.505 433.038 98.6976 439.3 95.6277C440.576 83.4063 442.026 74.3706 436.575 64.3502Z" fill="url(#paint11_linear_854_2566)"/>
</g>
<path d="M511.032 389.348L130.455 416.455C126.454 416.745 123.148 413.675 123.148 409.678V124.01C123.148 119.956 126.396 116.77 130.455 116.886L511.032 125.458C514.163 125.516 516.657 128.47 516.657 132.003V382.571C516.715 386.104 514.163 389.116 511.032 389.348Z" fill="#BCC1C9"/>
<path d="M515.09 389.348L134.514 416.455C130.512 416.745 127.207 413.675 127.207 409.678V124.01C127.207 119.956 130.454 116.77 134.514 116.886L515.09 125.458C518.222 125.516 520.715 128.47 520.715 132.003V382.571C520.715 386.104 518.164 389.116 515.09 389.348Z" fill="#D8DEE8"/>
<path opacity="0.74" d="M503.146 372.319L149.765 395.256C146.518 395.488 143.851 392.997 143.851 389.696V140.518C143.851 137.216 146.518 134.61 149.765 134.668L503.146 140.692C505.697 140.75 507.785 143.124 507.785 146.078V366.759C507.785 369.655 505.697 372.204 503.146 372.319Z" fill="white"/>
<path d="M341.126 128.934C341.126 131.424 339.213 133.452 336.835 133.394C334.458 133.336 332.544 131.251 332.544 128.76C332.544 126.211 334.458 124.242 336.835 124.3C339.213 124.358 341.126 126.443 341.126 128.934Z" fill="white"/>
<path d="M415.699 151.349H415.119V361.314H415.699V151.349Z" fill="#D8DEE8"/>
<path d="M407.591 307.819L153.806 318.223L153.829 318.801L407.615 308.398L407.591 307.819Z" fill="#D8DEE8"/>
<g opacity="0.7">
<path d="M432.922 245.819L428.921 245.877V172.375H432.922V245.819Z" fill="url(#paint12_linear_854_2566)"/>
<path d="M440.113 245.645L436.054 245.761V209.097L440.113 209.039V245.645Z" fill="url(#paint13_linear_854_2566)"/>
<path d="M447.188 245.53L443.187 245.588V165.482L447.188 165.54V245.53Z" fill="url(#paint14_linear_854_2566)"/>
<path d="M454.32 245.356L450.318 245.472V177.414H454.32V245.356Z" fill="url(#paint15_linear_854_2566)"/>
<path d="M461.337 245.24L457.394 245.298V227.111L461.337 227.053V245.24Z" fill="url(#paint16_linear_854_2566)"/>
<path d="M468.353 245.124L464.41 245.182V202.494H468.353V245.124Z" fill="url(#paint17_linear_854_2566)"/>
<path d="M475.369 244.951L471.426 245.067V183.67H475.369V244.951Z" fill="url(#paint18_linear_854_2566)"/>
<path d="M482.271 244.835L478.386 244.893V200.293L482.271 200.235V244.835Z" fill="url(#paint19_linear_854_2566)"/>
<path d="M489.229 244.719L485.344 244.777V175.677L489.229 175.735V244.719Z" fill="url(#paint20_linear_854_2566)"/>
<path d="M496.071 244.545L492.244 244.661V168.031L496.071 168.089V244.545Z" fill="url(#paint21_linear_854_2566)"/>
</g>
<path d="M496.071 256.303L428.921 257.867V250.048L496.071 248.6V256.303Z" fill="#D8DEE8"/>
<path d="M496.071 357.259L428.921 361.256V353.378L496.071 349.556V357.259Z" fill="#D8DEE8"/>
<path d="M496.071 346.66L485.575 347.239V335.365L496.071 334.844V346.66Z" fill="white"/>
<path d="M496.071 266.845L450.318 268.119V264.702L496.071 263.485V266.845Z" fill="white"/>
<path d="M496.071 272.288L450.318 273.621V270.203L496.071 268.871V272.288Z" fill="white"/>
<path d="M488.3 308.489C488.3 324.186 476.993 337.45 462.844 338.203C448.578 338.956 436.923 326.619 436.923 310.633C436.923 294.646 448.578 281.382 462.844 280.919C476.993 280.456 488.3 292.793 488.3 308.489Z" fill="#D8DEE8"/>
<path opacity="0.35" d="M486.851 307.679C486.561 296.384 480.008 287.059 470.904 283.815C468.411 282.888 465.685 282.425 462.844 282.541C449.39 283.004 438.431 295.515 438.431 310.575C438.431 325.634 449.39 337.277 462.844 336.582C476.181 335.887 486.851 323.376 486.851 308.548C486.909 308.258 486.909 307.968 486.851 307.679Z" fill="white"/>
<path d="M486.851 307.679C486.561 296.384 480.008 287.059 470.904 283.815C468.411 282.888 465.685 282.425 462.844 282.541C449.39 283.004 438.431 295.515 438.431 310.575C438.431 325.634 449.39 337.277 462.844 336.582C476.181 335.887 486.851 323.376 486.851 308.548C486.909 308.258 486.909 307.968 486.851 307.679Z" fill="#D8DEE8"/>
<path d="M486.851 307.678C486.561 296.383 480.008 287.058 470.904 283.814L462.844 309.532L486.851 307.678Z" fill="white"/>
<path d="M209.435 330.21L153.824 332.759V329.11L209.435 326.619V330.21Z" fill="#D8DEE8"/>
<path d="M209.435 337.393L153.824 340.057V336.408L209.435 333.802V337.393Z" fill="#D8DEE8"/>
<path d="M209.435 348.687L153.824 351.525V347.876L209.435 345.096V348.687Z" fill="#D8DEE8"/>
<path d="M209.435 355.812L153.824 358.823V355.174L209.435 352.278V355.812Z" fill="#D8DEE8"/>
<path d="M209.435 367.106L153.824 370.291V366.642L209.435 363.515V367.106Z" fill="#D8DEE8"/>
<path d="M209.435 374.288L153.824 377.59V373.941L209.435 370.697V374.288Z" fill="#D8DEE8"/>
<path d="M209.435 192.821L153.824 192.879V189.229H209.435V192.821Z" fill="#D8DEE8"/>
<path d="M209.435 200.003L153.824 200.177V196.528L209.435 196.412V200.003Z" fill="#D8DEE8"/>
<path d="M209.435 245.703L153.824 246.746V243.097L209.435 242.17V245.703Z" fill="#D8DEE8"/>
<path d="M209.435 252.885L153.824 254.044V250.394L209.435 249.294V252.885Z" fill="#D8DEE8"/>
<path d="M209.435 298.643L153.824 300.554V296.963L209.435 295.052V298.643Z" fill="#D8DEE8"/>
<path d="M209.435 305.768L153.824 307.853V304.204L209.435 302.234V305.768Z" fill="#D8DEE8"/>
<path d="M329.876 324.765L302.854 325.982V322.506L329.876 321.29V324.765Z" fill="#D8DEE8"/>
<path d="M329.876 331.658L302.854 332.932V329.457L329.876 328.183V331.658Z" fill="#D8DEE8"/>
<path d="M329.876 342.489L302.854 343.879V340.403L329.876 339.071V342.489Z" fill="#D8DEE8"/>
<path d="M329.876 349.382L302.854 350.83V347.355L329.876 345.965V349.382Z" fill="#D8DEE8"/>
<path d="M329.876 360.213L302.854 361.777V358.302L329.876 356.796V360.213Z" fill="#D8DEE8"/>
<path d="M329.876 367.106L302.854 368.728V365.252L329.876 363.688V367.106Z" fill="#D8DEE8"/>
<path d="M220.686 373.883V326.098H221.265V373.304L293.693 368.959L293.751 369.539L220.686 373.883Z" fill="#D8DEE8"/>
<path d="M272.353 343.01C268.41 343.532 267.83 340.809 263.945 340.867C257.276 340.983 255.652 349.034 249.158 349.498C243.823 349.903 242.431 344.632 237.096 345.675C233.095 346.486 232.283 349.729 228.34 350.54C227.528 350.714 226.774 350.714 226.021 350.656V369.654L288.996 366.005V334.148C285.806 334.728 283.429 335.828 281.747 336.871C277.63 339.477 276.238 342.489 272.353 343.01Z" fill="#D8DEE8"/>
<path d="M339.967 366.816V320.826H340.547V366.179L407.581 362.24L407.639 362.761L339.967 366.816Z" fill="#D8DEE8"/>
<path d="M349.36 353.436L348.954 353.089L362.871 337.044L376.499 341.446L389.778 328.414L402.999 335.133L402.767 335.654L389.894 329.167L376.672 342.141L363.103 337.739L349.36 353.436Z" fill="#D8DEE8"/>
<path opacity="0.7" d="M351.448 353.146C351.448 354.478 350.404 355.637 349.186 355.752C347.911 355.81 346.925 354.768 346.925 353.436C346.925 352.103 347.969 350.945 349.186 350.829C350.404 350.713 351.448 351.756 351.448 353.146Z" fill="url(#paint22_linear_854_2566)"/>
<path opacity="0.7" d="M365.25 337.276C365.25 338.608 364.264 339.767 362.988 339.825C361.712 339.883 360.727 338.84 360.727 337.508C360.727 336.176 361.77 335.017 362.988 334.959C364.264 334.901 365.25 335.944 365.25 337.276Z" fill="url(#paint23_linear_854_2566)"/>
<path opacity="0.7" d="M378.819 341.679C378.819 343.011 377.833 344.169 376.557 344.227C375.34 344.285 374.296 343.242 374.296 341.91C374.296 340.578 375.282 339.42 376.557 339.362C377.833 339.304 378.819 340.346 378.819 341.679Z" fill="url(#paint24_linear_854_2566)"/>
<path opacity="0.7" d="M392.04 328.704C392.04 330.036 391.054 331.195 389.836 331.252C388.619 331.31 387.633 330.268 387.633 328.936C387.633 327.603 388.619 326.445 389.836 326.387C391.054 326.329 392.04 327.372 392.04 328.704Z" fill="url(#paint25_linear_854_2566)"/>
<path opacity="0.7" d="M405.087 335.306C405.087 336.639 404.101 337.739 402.883 337.797C401.665 337.855 400.68 336.812 400.68 335.48C400.68 334.148 401.665 333.048 402.883 332.99C404.101 332.932 405.087 333.974 405.087 335.306Z" fill="url(#paint26_linear_854_2566)"/>
<g opacity="0.7">
<path d="M159.507 292.851L153.824 293.083V287.522L159.507 287.349V292.851Z" fill="url(#paint27_linear_854_2566)"/>
<path d="M169.656 292.561L163.973 292.735V279.761L169.656 279.587V292.561Z" fill="url(#paint28_linear_854_2566)"/>
<path d="M179.687 292.214L174.004 292.388V273.737L179.687 273.621V292.214Z" fill="url(#paint29_linear_854_2566)"/>
<path d="M189.661 291.866L184.036 292.04V278.486L189.661 278.37V291.866Z" fill="url(#paint30_linear_854_2566)"/>
<path d="M199.578 291.577L194.011 291.751V270.783L199.578 270.609V291.577Z" fill="url(#paint31_linear_854_2566)"/>
<path d="M209.435 291.229L203.868 291.403V268.176L209.435 268.061V291.229Z" fill="url(#paint32_linear_854_2566)"/>
</g>
<g opacity="0.7">
<path d="M159.507 238.636L153.824 238.752V233.192L159.507 233.134V238.636Z" fill="url(#paint33_linear_854_2566)"/>
<path d="M169.656 238.52L163.973 238.578V225.604L169.656 225.546V238.52Z" fill="url(#paint34_linear_854_2566)"/>
<path d="M179.687 238.347L174.004 238.463V219.812L179.687 219.754V238.347Z" fill="url(#paint35_linear_854_2566)"/>
<path d="M189.661 238.172L184.036 238.288V224.735L189.661 224.677V238.172Z" fill="url(#paint36_linear_854_2566)"/>
<path d="M199.578 238.057L194.011 238.115V217.148L199.578 217.09V238.057Z" fill="url(#paint37_linear_854_2566)"/>
<path d="M209.435 237.883L203.868 237.941V214.715H209.435V237.883Z" fill="url(#paint38_linear_854_2566)"/>
</g>
<g opacity="0.7">
<path d="M203.868 184.538H209.435V179.093L203.868 179.035V184.538Z" fill="url(#paint39_linear_854_2566)"/>
<path d="M194.011 184.48L199.578 184.538V171.679L194.011 171.621V184.48Z" fill="url(#paint40_linear_854_2566)"/>
<path d="M184.036 184.479H189.661V165.945L184.036 165.887V184.479Z" fill="url(#paint41_linear_854_2566)"/>
<path d="M174.004 184.48H179.687V170.926L174.004 170.868V184.48Z" fill="url(#paint42_linear_854_2566)"/>
<path d="M163.973 184.479H169.656V163.338L163.973 163.28V184.479Z" fill="url(#paint43_linear_854_2566)"/>
<path d="M153.824 184.422L159.507 184.48V160.906L153.824 160.848V184.422Z" fill="url(#paint44_linear_854_2566)"/>
</g>
<path d="M230.659 189.578C228.919 190.678 227.237 193.111 227.643 195.775C228.049 198.44 230.369 200.177 232.224 200.699C234.834 201.452 235.646 199.714 238.429 199.946C242.662 200.293 245.91 204.695 247.301 207.997C248.635 211.182 247.591 211.993 248.461 215.7C249.969 222.188 254.724 226.184 259.247 229.949C263.016 233.077 268.757 236.9 269.801 235.741C270.149 235.336 269.859 234.409 269.627 233.83C268.815 231.571 267.017 231.107 264.524 229.022C262.784 227.574 260.523 225.663 260.87 224.157C261.218 222.651 264.06 221.724 266.147 222.361C268.235 222.998 269.395 225.141 269.917 226.126C270.381 226.995 270.323 228.153 270.728 228.211C271.018 228.269 271.366 227.806 271.482 227.4C271.888 226.358 271.192 225.373 270.96 224.562C270.381 222.709 271.714 220.739 273.048 218.712C275.252 215.411 276.585 215.353 280.065 211.472C282.384 208.866 283.544 207.533 283.66 205.68C283.892 202.436 281.282 200.062 280.818 199.656C278.731 197.745 275.136 196.413 273.628 197.803C272.236 199.077 273.686 201.452 272.12 203.247C271.018 204.521 269.047 204.811 267.539 204.29C265.394 203.595 264.118 201.452 264.002 199.54C264.002 199.135 263.886 197.397 264.988 196.181C265.336 195.833 266.089 195.138 268.699 195.022C272.41 194.849 273.164 196.123 275.368 195.602C277.223 195.138 279.427 193.632 279.427 192.126C279.369 190.389 276.295 190.215 272.758 186.218C271.366 184.654 270.265 183.38 270.323 181.7C270.439 179.326 272.874 177.414 273.396 177.067C275.31 175.619 276.991 174.402 276.991 174.402C277.455 174.055 278.151 173.591 278.093 173.128C278.035 172.838 277.687 172.607 276.991 172.433C274.904 171.796 273.28 172.201 273.28 172.201C270.786 172.781 269.975 174.055 266.901 175.792C265.684 176.488 263.596 177.646 260.755 178.341C257.507 179.094 256.405 178.457 254.782 179.731C253.216 180.947 253.738 181.932 252.114 183.786C250.433 185.755 248.403 186.392 245.214 187.377C243.996 187.782 241.56 188.477 238.197 188.767C233.5 189.288 232.456 188.419 230.659 189.578Z" fill="#D8DEE8"/>
<path d="M283.485 173.996C280.064 174.923 277.107 175.734 276.527 177.877C276.179 178.978 276.527 180.542 277.397 181.352C279.194 182.974 281.862 180.426 283.833 181.816C284.877 182.569 284.471 183.553 285.689 189.114C286.501 192.821 287.139 194.559 288.414 196.18C289.11 197.107 290.154 198.323 291.14 198.15C292.59 197.86 292.068 194.732 294.387 192.473C295.199 191.662 295.373 192.01 299.258 190.041C301.52 188.882 302.68 188.303 302.912 187.84C304.187 185.407 300.766 182.453 302.158 179.557C302.39 179.036 302.448 179.325 304.187 177.008C306.217 174.402 306.159 173.996 306.101 173.823C305.869 172.954 304.361 172.896 300.534 172.433C294.097 171.622 293.575 171.216 291.72 171.68C290.444 171.969 290.096 172.317 287.371 173.07C285.167 173.707 284.935 173.649 283.485 173.996Z" fill="#D8DEE8"/>
<path d="M274.904 235.625C273.048 237.131 272.642 239.621 272.468 240.664C272.12 243.213 272.816 244.834 274.092 249.005C275.715 254.044 276.469 256.534 276.585 257.983C276.759 260.184 276.411 260.589 274.846 269.393C273.686 275.938 273.57 277.618 274.614 278.776C276.179 280.514 279.485 280.224 279.659 279.761C279.717 279.529 279.021 279.355 278.441 278.66C277.223 277.039 278.093 274.316 278.325 273.563C279.253 270.725 280.992 269.451 283.776 266.613C287.081 263.253 289.227 261.052 290.85 257.809C291.662 256.187 293.286 252.654 292.822 248.078C292.706 247.151 292.3 244.081 290.097 240.954C287.313 236.957 283.486 235.741 282.384 235.393C280.239 234.756 277.223 233.829 274.904 235.625Z" fill="#D8DEE8"/>
<path d="M307.029 219.233C305.811 221.723 304.477 224.446 303.897 226.936C303.434 229.195 302.97 234.292 305.405 236.204C307.609 237.941 310.16 235.509 313.234 237.478C314.799 238.463 315.495 239.969 316.307 241.764C318.105 245.645 317.235 247.788 317.989 252.827C318.337 255.202 319.496 262.674 322.338 263.137C324.715 263.543 327.325 258.909 327.731 258.098C328.89 256.013 329.296 253.928 330.166 249.757C331.268 244.139 330.862 243.328 332.08 241.764C333.587 239.737 335.443 239.447 335.849 237.478C336.139 236.03 335.443 234.756 335.037 233.945C333.471 231.049 331.268 231.396 329.76 228.558C328.89 226.936 328.658 225.025 329.006 224.793C329.296 224.619 330.166 225.778 330.572 226.357C331.848 228.095 331.674 228.732 332.486 229.659C334.051 231.454 336.719 231.107 336.893 231.049C338.111 230.875 340.314 230.122 340.546 228.616C340.778 227.458 339.734 226.241 338.574 224.793C337.589 223.635 336.893 223.113 337.009 222.882C337.125 222.65 337.995 222.94 340.256 223.751C342.692 224.619 343.967 225.083 344.141 225.199C344.953 225.72 345.649 226.357 348.027 230.469C350.404 234.64 351.216 236.725 351.796 236.493C352.086 236.377 352.028 235.856 352.202 233.887C352.492 230.991 352.666 229.485 353.361 228.442C353.941 227.573 355.159 226.357 356.493 226.473C357.247 226.589 358.174 227.863 360.03 230.354C361.828 232.844 362.408 233.713 363.625 234.35C364.263 234.698 365.423 235.277 366.293 234.756C367.279 234.176 367.627 232.323 367.221 231.049C366.699 229.485 365.307 229.369 365.365 228.384C365.423 226.994 368.322 226.067 368.554 226.01C370.41 225.43 370.874 226.067 371.86 225.43C373.251 224.446 373.831 221.955 373.483 220.044C373.135 218.074 371.86 217.321 372.266 216.452C372.556 215.7 373.599 215.989 375.513 215.41C376.963 215.004 379.108 214.367 380.326 212.572C381.022 211.471 381.138 210.313 381.37 208.517C381.428 208.228 381.544 206.838 381.37 204.926C381.138 202.32 380.616 202.088 380.848 201.335C381.37 199.655 384.037 200.119 389.082 198.497C391.982 197.57 394.011 196.528 394.243 196.933C394.475 197.454 391.112 198.96 390.88 201.74C390.706 203.826 392.388 205.969 393.083 205.737C393.663 205.563 393.257 203.941 394.301 201.509C394.707 200.64 395.287 199.25 396.505 198.381C398.012 197.338 398.882 198.033 400.216 196.933C401.318 196.006 401.028 195.311 401.898 194.384C403.927 192.241 407.406 193.747 407.638 192.936C407.87 192.183 405.203 189.924 401.724 189.403C398.65 188.94 398.186 190.388 394.649 190.388C392.677 190.388 390.242 189.519 385.429 187.839C382.703 186.855 381.312 186.218 378.818 186.044C377.079 185.928 377.021 186.218 375.223 186.044C373.193 185.87 370.642 185.638 368.67 183.785C367.105 182.337 367.569 181.468 366.293 180.657C364.205 179.267 361.364 180.425 358.986 181.41C356.435 182.511 354.579 183.785 351.506 186.044C347.911 188.65 346.693 189.924 344.721 189.635C343.214 189.461 342.924 188.592 341.3 188.592C339.966 188.592 339.56 189.172 336.777 190.388C334.109 191.604 332.776 192.183 331.616 192.01C329.818 191.662 329.76 190.33 327.847 189.519C325.759 188.65 323.787 189.287 321.41 190.098C318.453 191.083 315.495 192.068 314.103 194.79C312.596 197.686 313.987 200.234 312.306 201.567C310.914 202.667 309.464 201.277 308.131 202.378C306.565 203.71 307.029 207.127 307.261 208.923C307.725 212.456 308.942 213.325 308.537 215.815C308.363 216.858 308.015 217.205 307.029 219.233Z" fill="#D8DEE8"/>
<path d="M335.848 248.483C335.095 248.425 333.877 251.611 334.167 254.681C334.167 254.855 334.457 257.229 335.095 257.287C335.732 257.345 336.37 255.434 336.486 255.202C336.602 254.855 336.95 253.812 336.776 252.016C336.776 251.495 336.544 248.541 335.848 248.483Z" fill="#D8DEE8"/>
<path d="M362.407 240.606C362.349 240.721 362.581 240.953 363.161 241.474C364.727 242.807 365.48 243.444 366.756 243.907C367.858 244.313 370.583 245.008 371.163 243.965C371.511 243.27 370.989 241.938 370.12 241.301C369.192 240.663 368.496 241.243 366.292 241.127C364.031 241.011 362.523 240.258 362.407 240.606Z" fill="#D8DEE8"/>
<path d="M370.12 234.64C369.656 234.698 369.772 235.683 368.902 237.826C368.496 238.811 368.264 239.1 368.38 239.39C368.67 240.143 370.41 240.432 371.28 239.564C372.092 238.753 371.744 237.247 371.57 236.725C371.28 235.799 370.642 234.524 370.12 234.64Z" fill="#D8DEE8"/>
<path d="M379.34 242.691C379.688 243.213 380.268 243.908 381.66 244.545C382.182 244.776 385.835 246.456 386.763 245.124C387.111 244.545 386.937 243.676 386.647 243.097C386.183 242.228 385.371 242.054 383.98 241.707C379.92 240.606 378.993 240.085 378.703 240.548C378.355 241.127 379.108 242.402 379.34 242.691Z" fill="#D8DEE8"/>
<path d="M372.497 230.701C372.034 230.875 372.034 233.308 372.903 235.161C373.367 236.146 374.179 237.305 374.527 237.131C374.933 236.957 374.701 235.277 374.411 234.119C373.947 232.439 372.961 230.528 372.497 230.701Z" fill="#D8DEE8"/>
<path d="M376.383 219.291C376.383 218.711 377.659 218.827 379.34 217.669C380.5 216.858 382.182 215.178 383.11 212.919C383.284 212.456 383.458 211.877 383.632 211.935C383.864 211.993 383.864 213.383 383.632 214.599C383.226 216.858 381.834 218.885 380.094 219.87C379.398 220.275 378.877 220.333 378.471 220.333C377.427 220.391 376.325 219.812 376.383 219.291Z" fill="#D8DEE8"/>
<path d="M372.903 252.191C370.642 254.334 369.424 253.986 369.134 255.202C368.786 256.593 370.294 257.172 370.584 259.894C370.758 261.574 370.294 262.559 370.7 262.79C371.337 263.138 372.323 260.879 374.701 260.01C374.875 259.952 377.368 259.083 379.398 260.357C380.558 261.11 380.442 261.863 382.355 263.659C383.573 264.817 384.211 265.397 385.023 265.281C386.298 265.049 386.994 263.08 387.458 261.863C387.806 260.879 388.676 258.562 388.038 255.84C387.806 254.681 387.574 254.971 384.095 249.584C383.109 248.078 382.761 247.441 381.833 247.036C380.036 246.225 378.064 247.267 377.774 247.441C377.078 247.846 376.44 248.484 375.223 249.758C373.657 251.206 373.773 251.38 372.903 252.191Z" fill="#D8DEE8"/>
<path d="M259.189 207.533C257.159 206.085 253.564 203.131 251.65 198.149C250.897 196.122 248.577 190.098 251.477 186.565C253.158 184.48 255.942 184.19 257.391 184.017C258.609 183.901 262.32 183.495 264.64 185.812C268.351 189.519 265.684 197.223 265.162 198.787C263.654 203.304 260.813 206.143 259.189 207.533Z" fill="url(#paint45_linear_854_2566)"/>
<path d="M262.61 192.588C262.61 195.137 260.639 197.164 258.203 197.164C255.768 197.164 253.796 195.137 253.796 192.588C253.796 190.04 255.768 188.013 258.203 188.013C260.639 188.013 262.61 190.098 262.61 192.588Z" fill="#F4F7FA"/>
<path d="M286.153 258.852C284.124 257.462 280.645 254.623 278.789 249.642C278.035 247.615 275.774 241.707 278.615 238.174C280.297 236.089 283.022 235.741 284.414 235.567C285.574 235.451 289.227 234.988 291.546 237.247C295.2 240.838 292.59 248.542 292.068 250.106C290.561 254.565 287.777 257.404 286.153 258.852Z" fill="url(#paint46_linear_854_2566)"/>
<path d="M289.517 243.965C289.517 246.456 287.603 248.541 285.167 248.599C282.79 248.657 280.818 246.629 280.818 244.139C280.818 241.648 282.79 239.563 285.167 239.505C287.603 239.447 289.517 241.474 289.517 243.965Z" fill="#F4F7FA"/>
<path d="M354 223.519C352.086 222.129 348.723 219.291 346.925 214.425C346.171 212.456 344.084 206.664 346.751 203.246C348.375 201.219 350.984 200.929 352.318 200.756C353.478 200.64 356.957 200.234 359.161 202.493C362.64 206.027 360.146 213.556 359.624 215.062C358.175 219.348 355.507 222.129 354 223.519Z" fill="url(#paint47_linear_854_2566)"/>
<path d="M357.19 209.038C357.19 211.471 355.334 213.498 353.073 213.498C350.753 213.498 348.897 211.529 348.897 209.096C348.897 206.663 350.753 204.636 353.073 204.636C355.334 204.578 357.19 206.547 357.19 209.038Z" fill="#F4F7FA"/>
<path d="M379.632 255.319C377.718 253.987 374.471 251.206 372.673 246.399C371.977 244.43 369.832 238.695 372.499 235.278C374.065 233.251 376.616 232.903 377.95 232.787C379.052 232.671 382.473 232.208 384.677 234.409C388.098 237.884 385.662 245.356 385.14 246.862C383.749 251.206 381.139 253.987 379.632 255.319Z" fill="url(#paint48_linear_854_2566)"/>
<path d="M382.763 240.955C382.763 243.387 380.965 245.415 378.704 245.473C376.442 245.531 374.645 243.561 374.645 241.128C374.645 238.696 376.5 236.669 378.704 236.611C380.965 236.553 382.763 238.522 382.763 240.955Z" fill="#F4F7FA"/>
<path opacity="0.35" d="M424.977 315.788C396.563 299.917 374.122 319.61 352.434 299.801C339.213 287.754 345.707 278.95 329.471 260.936C311.378 240.953 299.607 247.44 281.398 229.369C258.261 206.432 269.859 189.056 249.911 172.49C225.614 152.333 199.345 170.057 176.034 150.654C165.944 142.255 160.435 130.207 157.535 117.465L134.572 116.943C130.571 116.828 127.266 120.071 127.266 124.068V409.736C127.266 413.791 130.513 416.802 134.572 416.513L515.149 389.406C516.947 389.29 518.57 388.189 519.614 386.625C492.533 385.525 475.833 376.142 465.105 366.353C444.055 347.181 447.709 328.472 424.977 315.788Z" fill="white"/>
<path d="M360.9 330.673C360.9 330.673 395.287 339.825 409.553 320.537L421.788 344.053C421.788 344.053 388.387 369.307 362.408 335.249L360.9 330.673Z" fill="url(#paint49_linear_854_2566)"/>
</g>
<path d="M58.3172 81.7019C55.6993 80.032 55.0602 76.1765 56.4859 73.4139C57.2749 72.0731 58.363 70.9324 59.6656 70.0805C60.9681 69.2286 62.45 68.6886 63.9956 68.5025C66.221 68.1635 68.4951 68.3561 70.6316 69.0647C72.768 69.7733 74.706 70.9776 76.2865 72.5789C77.9827 74.3225 79.3592 76.594 81.6453 77.3921C83.6733 78.092 85.898 77.3921 88.0243 77.7359C89.4355 77.9895 90.7719 78.5557 91.9353 79.3928C93.0987 80.23 94.0596 81.3169 94.7474 82.5736C96.1294 85.0981 96.9668 87.8837 97.2056 90.7511C97.5129 93.3664 97.7218 96.2273 99.5286 98.1182C101.335 100.009 104.089 100.365 106.276 101.691C108.293 103.017 109.71 105.079 110.225 107.436C110.739 109.792 110.31 112.257 109.029 114.301C108.157 115.529 106.903 116.757 106.805 118.255C106.706 119.753 107.616 120.907 108.034 122.245C108.254 123.108 108.286 124.007 108.129 124.883C107.973 125.758 107.63 126.591 107.125 127.323C106.62 128.056 105.963 128.672 105.2 129.13C104.437 129.589 103.584 129.879 102.7 129.981C100.868 130.079 98.9263 129.379 97.2917 130.19C95.657 131 95.067 132.952 94.0223 134.438C92.9569 135.873 91.4314 136.899 89.7002 137.346C87.969 137.793 86.1368 137.633 84.5091 136.894C83.1694 136.231 81.9157 135.15 80.4163 135.248C78.9168 135.347 77.7614 136.611 76.2988 136.906C74.3937 137.274 72.6115 135.862 71.3825 134.278C70.1534 132.694 69.4528 130.84 67.9902 129.539C66.0851 127.844 63.4057 127.427 60.9967 126.592C58.3235 125.673 55.8792 124.19 53.8291 122.246C51.7791 120.301 50.1711 117.939 49.1141 115.319C48.0571 112.7 47.5757 109.884 47.7025 107.063C47.8292 104.241 48.5612 101.48 49.8488 98.9654" fill="#263238"/>
<path d="M86.0824 117.372C86.6716 116.745 87.4 116.266 88.2087 115.972H88.0489C88.1978 115.93 88.3499 115.901 88.5037 115.886C88.7802 115.808 89.0695 115.787 89.3545 115.823C89.6394 115.858 89.9143 115.951 90.1629 116.095C91.0897 116.43 91.857 117.101 92.3139 117.973C92.6685 118.745 92.8055 119.599 92.7102 120.443C92.6149 121.286 92.2909 122.088 91.7731 122.762C91.3946 123.374 90.8393 123.858 90.1803 124.148C89.5214 124.439 88.7897 124.524 88.0817 124.391C87.3737 124.258 86.7226 123.914 86.2143 123.404C85.706 122.894 85.3643 122.242 85.2343 121.534C85.0144 120.825 84.9768 120.072 85.125 119.344C85.2733 118.617 85.6025 117.938 86.0824 117.372Z" fill="#455A64"/>
<path d="M51.2989 140.81L48.6686 92.7153C48.6188 91.6306 48.9772 90.5666 49.6733 89.7326C50.3693 88.8987 51.3526 88.3551 52.4297 88.2091L75.3153 81.7383C82.6898 80.7437 87.8397 89.6825 88.5157 97.0741C89.2654 105.276 89.8554 115.32 89.0565 121.484C87.4464 133.873 77.2941 135.751 77.2941 135.751C77.2941 135.751 77.2204 138.87 77.2941 143.352L72.6236 158.589L51.2989 140.81Z" fill="#FFBF9D"/>
<path d="M85.3197 108.175C85.3399 108.588 85.1964 108.992 84.9203 109.3C84.6442 109.608 84.2578 109.795 83.8448 109.82C83.6439 109.844 83.4402 109.827 83.2461 109.77C83.052 109.713 82.8714 109.617 82.7152 109.489C82.5591 109.36 82.4305 109.202 82.3374 109.022C82.2442 108.843 82.1884 108.646 82.1732 108.445C82.1562 108.033 82.3008 107.63 82.5763 107.323C82.8517 107.016 83.2362 106.828 83.6481 106.799C83.849 106.776 84.0527 106.793 84.2468 106.85C84.4409 106.907 84.6215 107.002 84.7777 107.131C84.9338 107.259 85.0624 107.418 85.1555 107.597C85.2487 107.777 85.3045 107.973 85.3197 108.175Z" fill="#263238"/>
<path d="M86.4754 102.366C86.291 102.575 85.0619 101.728 83.3535 101.777C81.6451 101.826 80.4283 102.71 80.2439 102.514C80.0596 102.317 80.3422 102.047 80.8708 101.63C81.5878 101.11 82.4435 100.815 83.3289 100.782C84.2058 100.761 85.0668 101.019 85.7871 101.519C86.3894 101.9 86.5737 102.268 86.4754 102.366Z" fill="#263238"/>
<path d="M69.7718 108.42C69.792 108.833 69.6485 109.237 69.3724 109.545C69.0964 109.853 68.7099 110.04 68.2969 110.065C68.0956 110.085 67.8924 110.065 67.6989 110.006C67.5054 109.947 67.3257 109.85 67.1701 109.721C67.0145 109.592 66.8862 109.433 66.7927 109.254C66.6992 109.075 66.6423 108.879 66.6253 108.678C66.6085 108.267 66.7535 107.866 67.0292 107.56C67.3049 107.255 67.6894 107.07 68.1003 107.045C68.3012 107.021 68.5048 107.038 68.6989 107.095C68.893 107.152 69.0736 107.247 69.2298 107.376C69.386 107.504 69.5145 107.663 69.6076 107.842C69.7008 108.022 69.7566 108.218 69.7718 108.42Z" fill="#263238"/>
<path d="M69.7345 103.153C69.5501 103.374 68.321 102.514 66.6249 102.563C64.9288 102.613 63.6874 103.509 63.503 103.3C63.3186 103.091 63.589 102.834 64.1298 102.428C64.8418 101.899 65.7006 101.603 66.588 101.581C67.4629 101.561 68.3223 101.814 69.0462 102.306C69.6485 102.699 69.882 103.067 69.7345 103.153Z" fill="#263238"/>
<path d="M76.286 115.603C77.1761 115.297 78.101 115.104 79.0391 115.026C79.4693 114.965 79.8749 114.867 79.9487 114.572C79.9553 114.14 79.8403 113.714 79.6168 113.344L78.2402 110.066C76.962 107.29 75.9098 104.416 75.0938 101.471C75.2904 101.397 76.9988 105.154 78.9162 109.771L80.2436 113.062C80.5378 113.579 80.6339 114.186 80.514 114.768C80.4579 114.923 80.3665 115.062 80.247 115.175C80.1275 115.288 79.9832 115.372 79.8257 115.419C79.5873 115.496 79.3388 115.537 79.0883 115.542C78.1609 115.685 77.2188 115.705 76.286 115.603Z" fill="#263238"/>
<path d="M77.2565 135.752C71.661 135.962 66.1204 134.583 61.2783 131.773C61.2783 131.773 64.8427 140.945 77.1704 139.447L77.2565 135.752Z" fill="#FF9A6C"/>
<path d="M70.2876 96.1295C70.1401 96.5961 68.4317 96.4242 66.4406 96.7189C64.4494 97.0136 62.8393 97.6152 62.5689 97.1977C62.446 97.0013 62.7164 96.5593 63.3556 96.0927C64.2091 95.5212 65.1817 95.1512 66.1996 95.0108C67.2174 94.8704 68.2539 94.9633 69.2306 95.2823C69.9803 95.5524 70.3614 95.9085 70.2876 96.1295Z" fill="#263238"/>
<path d="M85.7127 96.5215C85.4177 96.9145 84.2378 96.5215 82.8243 96.5215C81.4109 96.5215 80.231 96.8531 79.936 96.4601C79.8131 96.2637 79.936 95.8708 80.5014 95.4901C81.1882 95.0293 81.9969 94.7832 82.8243 94.7832C83.6518 94.7832 84.4604 95.0293 85.1473 95.4901C85.6635 95.9322 85.8602 96.3251 85.7127 96.5215Z" fill="#263238"/>
<path d="M96.836 94.4712C96.3144 92.5872 95.1656 90.9371 93.5789 89.7931C92.6343 89.3088 91.7154 88.776 90.8258 88.1969C89.0436 86.7603 88.638 84.2555 87.5318 82.2541C86.8058 80.9625 85.7833 79.8616 84.5482 79.0419C83.3131 78.2222 81.9009 77.7072 80.4277 77.5392C77.9695 77.2936 75.5113 78.0303 73.0532 77.4287C71.2833 76.9866 69.7469 75.8325 67.9647 75.501C64.511 74.8256 61.2785 77.3427 58.8203 79.823C58.8203 82.2787 60.7869 83.9731 62.7042 85.5693C63.6648 86.3633 64.7867 86.9392 65.9921 87.2572C67.1975 87.5753 68.4577 87.6277 69.6855 87.4111C71.5905 87.0673 73.6677 86.1096 75.3147 87.1164C76.9617 88.1232 77.1214 90.8 78.6578 92.1138C80.8456 94.0169 84.3362 92.2365 87.1139 93.0592C89.2648 93.6977 90.6046 95.7482 92.0303 97.4795C93.456 99.2107 95.6069 100.844 97.7456 100.205C97.6674 98.265 97.3622 96.3406 96.836 94.4712Z" fill="#263238"/>
<path d="M70.7178 83.9733C69.1691 83.519 65.9735 82.5122 65.1377 81.1616C64.2966 79.7086 63.0866 78.503 61.63 77.6666C60.1733 76.8301 58.5215 76.3924 56.8414 76.3975C55.1487 76.5326 53.545 77.2105 52.2693 78.33C50.9936 79.4496 50.1141 80.951 49.7618 82.6104C47.7293 82.6858 45.7545 83.3058 44.0441 84.4053C42.3337 85.5048 40.9506 87.0435 40.0397 88.8602C39.8046 89.3298 39.5994 89.8137 39.4252 90.309C38.8088 91.398 38.4377 92.6082 38.3379 93.8552C38.2382 95.1022 38.4121 96.3559 38.8475 97.5288C39.3883 98.9408 40.3101 100.5 39.585 101.826C38.8598 103.152 36.9793 103.214 35.529 103.705C34.2765 104.18 33.231 105.08 32.575 106.247C31.919 107.414 31.6943 108.774 31.94 110.09C32.2757 110.984 32.4303 111.935 32.3948 112.889C32.0437 113.833 31.4654 114.677 30.7109 115.345C29.9096 116.298 29.3727 117.444 29.1538 118.669C28.9348 119.894 29.0416 121.155 29.4634 122.326C29.8852 123.496 30.6072 124.536 31.5573 125.341C32.5074 126.146 33.6523 126.687 34.8776 126.911C36.0037 126.952 37.1124 127.202 38.1469 127.648C39.2531 128.323 39.7325 129.649 40.5068 130.681C41.2732 131.66 42.3193 132.384 43.5066 132.757C44.694 133.13 45.9666 133.134 47.1562 132.768C47.6294 132.6 48.0796 132.373 48.4959 132.093C48.945 132.687 49.5386 133.157 50.2205 133.458C50.9024 133.759 51.6498 133.88 52.3921 133.812L51.9373 107.806C52.0807 108.122 52.2987 108.399 52.5727 108.613C52.8467 108.827 53.1685 108.971 53.5106 109.034C57.6895 109.979 58.304 101.372 57.3699 99.0513C58.9443 97.7611 60.3522 96.2804 61.5611 94.6434C62.9016 92.0375 63.5651 89.1369 63.4908 86.208C64.9657 86.2817 71.4061 84.1575 70.7178 83.9733Z" fill="#263238"/>
<path d="M53.0809 109.906C52.958 107.254 49.7132 106.689 47.4271 108.015C46.198 108.74 45.2025 110.213 45.3131 113.013C45.6204 120.503 53.0809 118.649 53.0809 118.428C53.0809 118.207 53.2407 113 53.0809 109.906Z" fill="#FFBF9D"/>
<path d="M50.6844 115.689C50.6844 115.689 50.5492 115.787 50.3403 115.897C50.0349 116.035 49.6897 116.057 49.3693 115.959C48.8732 115.671 48.4625 115.257 48.1796 114.758C47.8966 114.26 47.7515 113.695 47.7592 113.122C47.7138 112.482 47.8146 111.839 48.0542 111.244C48.113 111.007 48.2289 110.788 48.3917 110.606C48.5545 110.424 48.7593 110.285 48.9883 110.2C49.1362 110.155 49.2949 110.163 49.438 110.221C49.5812 110.279 49.7 110.384 49.7749 110.519C49.8855 110.728 49.8487 110.875 49.8855 110.888C49.9224 110.9 50.0453 110.765 49.9716 110.458C49.919 110.272 49.8068 110.108 49.652 109.991C49.4389 109.849 49.18 109.792 48.9268 109.832C48.6214 109.908 48.3404 110.061 48.1103 110.276C47.8802 110.49 47.7086 110.76 47.6117 111.06C47.3172 111.723 47.1906 112.448 47.243 113.171C47.2336 113.84 47.4224 114.496 47.7854 115.057C48.1484 115.619 48.6696 116.061 49.2833 116.327C49.4933 116.383 49.7134 116.39 49.9266 116.348C50.1397 116.305 50.3402 116.214 50.5124 116.081C50.6721 115.873 50.709 115.701 50.6844 115.689Z" fill="#FF9A6C"/>
<path d="M60.4058 81.9477C59.8244 82.2406 59.3161 82.6602 58.9186 83.1755C58.0629 84.7595 57.8643 86.6159 58.3655 88.3448V88.5412H58.1812C57.1039 88.8319 56.1079 89.3662 55.2703 90.1029C54.4327 90.8396 53.776 91.7588 53.3509 92.7896C53.1199 93.3731 52.991 93.9919 52.9698 94.6191C52.989 95.2836 53.0672 95.9452 53.2034 96.5959C53.3498 97.2961 53.4443 98.0061 53.4861 98.7201C53.5381 99.5016 53.3307 100.278 52.8961 100.93C51.9303 102.164 50.6594 103.124 49.2088 103.717C47.9345 104.288 46.7601 105.059 45.7305 106.001C44.0362 107.663 43.0386 109.906 42.9405 112.276C42.8832 113.872 43.221 115.458 43.9237 116.892C44.4277 117.911 44.8456 118.403 44.7964 118.439C44.7472 118.476 44.6735 118.329 44.4768 118.096C44.2023 117.747 43.9558 117.378 43.7394 116.991C42.7392 115.181 42.3587 113.093 42.6561 111.047C42.9534 109.001 43.9122 107.109 45.3864 105.657C46.4491 104.686 47.6661 103.898 48.9876 103.325C50.364 102.768 51.5744 101.867 52.5028 100.709C53.3263 99.5673 52.9576 98.0939 52.7363 96.7433C52.602 96.0591 52.5239 95.3651 52.5028 94.6682C52.5383 93.9852 52.6879 93.3129 52.9453 92.6791C53.4014 91.5832 54.1081 90.6092 55.0088 89.8352C55.9095 89.0612 56.9792 88.5088 58.132 88.222L57.9968 88.4676C57.7528 87.5628 57.6933 86.6183 57.8222 85.6902C57.951 84.762 58.2653 83.8693 58.7466 83.065C59.0686 82.6501 59.4918 82.3245 59.9757 82.1196C60.2338 81.9845 60.4058 81.9231 60.4058 81.9477Z" fill="white"/>
<path d="M47.8812 118.489C48.4671 117.858 49.1965 117.378 50.0075 117.089H49.8477C49.9972 117.052 50.1492 117.028 50.3025 117.015C50.5808 116.935 50.8724 116.912 51.1597 116.948C51.4471 116.984 51.7241 117.078 51.9741 117.224C52.8838 117.544 53.6446 118.186 54.1127 119.029C54.468 119.803 54.6043 120.66 54.5068 121.506C54.4093 122.353 54.0817 123.156 53.5596 123.83C53.1812 124.442 52.6259 124.926 51.9669 125.216C51.3079 125.507 50.5762 125.592 49.8682 125.459C49.1602 125.326 48.5091 124.982 48.0008 124.472C47.4925 123.962 47.1509 123.31 47.0208 122.602C46.8113 121.899 46.7803 121.155 46.9305 120.437C47.0807 119.718 47.4074 119.049 47.8812 118.489Z" fill="#455A64"/>
<path d="M69.1698 117.407C71.1719 117.851 73.1091 118.548 74.9343 119.482C75.094 120.354 73.7052 122.306 72.8202 122.65C72.3657 122.821 71.8772 122.882 71.3946 122.829C70.9119 122.776 70.4486 122.609 70.0425 122.343C69.3268 121.751 68.8544 120.916 68.7151 119.998C68.6595 119.111 68.8154 118.223 69.1698 117.407Z" fill="#FF9A6C"/>
<path d="M72.5738 122.773C71.9135 122.758 71.2607 122.63 70.6442 122.393C70.0065 122.114 69.4731 121.641 69.1201 121.042C68.8195 120.498 68.6774 119.881 68.71 119.26C68.7426 118.639 68.9485 118.04 69.3045 117.53L69.0218 117.616C70.7981 118.3 72.6273 118.838 74.4912 119.225C72.7845 118.388 71.013 117.69 69.1938 117.138L69.0095 117.076L68.8989 117.224C68.4746 117.807 68.2309 118.502 68.1981 119.222C68.1654 119.942 68.3449 120.656 68.7145 121.275C69.1338 121.942 69.766 122.449 70.509 122.712C70.8281 122.871 71.1781 122.959 71.5346 122.97C71.8912 122.98 72.2458 122.913 72.5738 122.773Z" fill="#263238"/>
<path d="M66.9082 450.953V452.181C66.9082 452.181 87.4217 460.629 87.6061 464.533L46.7266 463.932L47.4886 450.352C50.4926 451.839 53.7819 452.662 57.1328 452.766C60.4837 452.87 63.8177 452.251 66.9082 450.953Z" fill="#263238"/>
<path d="M46.7148 463.919L46.8992 460.653L86.0088 462.434C86.0088 462.434 87.8156 463.244 87.5943 464.521L46.7148 463.919Z" fill="#455A64"/>
<path d="M67.0435 452.279C67.0435 452.476 66.0356 452.549 65.04 453.188C64.0445 453.826 63.516 454.637 63.3316 454.551C63.1472 454.465 63.4668 453.323 64.6836 452.586C65.9004 451.849 67.0926 452.095 67.0435 452.279Z" fill="white"/>
<path d="M71.3084 454.11C71.3084 454.306 70.4726 454.638 69.7843 455.473C69.096 456.307 68.8871 457.191 68.6904 457.179C68.4938 457.167 68.3831 456.037 69.2558 455.018C70.1285 453.999 71.2961 453.925 71.3084 454.11Z" fill="white"/>
<path d="M73.6679 459.279C73.4835 459.279 73.2131 458.321 73.7416 457.228C74.2702 456.136 75.2166 455.73 75.2903 455.89C75.364 456.05 74.7864 456.639 74.3685 457.535C73.9506 458.432 73.8646 459.254 73.6679 459.279Z" fill="white"/>
<path d="M37.6796 438.638L55.0835 443.549L50.7326 453.372L55.2433 478.322C55.3741 479.008 55.247 479.718 54.8864 480.316C54.5258 480.914 53.9571 481.358 53.2891 481.563C52.7691 481.711 52.2182 481.71 51.6989 481.56C51.1796 481.41 50.7128 481.118 50.3515 480.716C46.5168 476.419 32.456 460.518 32.8002 458.615L33.3532 453.421C33.6707 452.117 34.0563 450.83 34.5086 449.566L37.6796 438.638Z" fill="#263238"/>
<path d="M52.7729 481.637L33.0092 456.761L32.9109 457.89C32.8374 458.356 32.8712 458.833 33.0097 459.284C33.1481 459.735 33.3875 460.149 33.7098 460.493C35.2707 462.949 39.6954 468.683 50.3148 480.704C50.6201 481.044 51.0026 481.307 51.4303 481.469C51.858 481.631 52.3184 481.689 52.7729 481.637Z" fill="#455A64"/>
<path d="M47.5505 469.371C48.3089 468.58 49.2151 467.946 50.2177 467.504C51.2636 467.208 52.3555 467.108 53.4379 467.21C53.4379 467.136 53.1306 466.903 52.5038 466.755C51.6819 466.594 50.8314 466.662 50.0456 466.952C49.2498 467.24 48.5542 467.752 48.0422 468.425C47.5628 468.965 47.4768 469.334 47.5505 469.371Z" fill="white"/>
<path d="M49.1722 473.128C50.0032 472.776 50.8525 472.469 51.7164 472.207C52.623 472.118 53.5343 472.085 54.445 472.109C54.0403 471.817 53.5742 471.62 53.0822 471.535C52.5902 471.45 52.0852 471.478 51.6058 471.618C49.9342 471.937 48.9878 473.042 49.1722 473.128Z" fill="white"/>
<path d="M44.3174 464.435C45.5496 463.78 46.827 463.214 48.1399 462.74C49.5145 462.461 50.9066 462.277 52.3065 462.188C50.9027 461.693 49.3715 461.693 47.9678 462.188C46.5252 462.487 45.2334 463.282 44.3174 464.435Z" fill="white"/>
<path d="M51.6056 458.652C52.0235 461.034 52.4291 463.171 52.7487 464.718C52.8723 465.556 53.0824 466.379 53.3755 467.174C53.3687 466.316 53.2823 465.461 53.1174 464.62C52.8839 463.06 52.5398 460.936 52.1219 458.48C51.7654 456.479 51.4213 454.637 51.1386 453.201C51.1643 452.08 51.0986 450.959 50.9419 449.849C50.7689 450.957 50.6989 452.079 50.733 453.201" fill="#455A64"/>
<path d="M31.3633 289.565C30.0165 283.495 29.742 277.237 30.5521 271.073C32.8014 256.13 34.2394 250.593 41.9089 234.397L43.814 234.852L101.126 234.397L103.363 237.835C108.28 251.096 111.647 259.004 113.036 268.704C114.634 279.865 111.807 296.036 105.662 312.366C92.2524 347.63 84.7672 375.821 84.251 383.409C83.7348 390.997 82.9236 398.856 75.8809 422.897C70.731 440.455 66.9332 450.953 66.9332 450.953C61.5866 453.962 55.8714 454.772 50.7584 451.85L35.026 445.784C35.026 445.784 39.844 404.369 45.4733 393.392C49.5293 385.484 56.1663 381.727 53.069 371.426C49.9717 361.124 35.5791 309.849 31.3633 289.565Z" fill="#263238"/>
<path d="M89.6585 255.934L89.4496 256.204L88.8473 257.039L86.5489 260.292L77.9453 272.657C78.3632 277.286 78.523 282.652 78.8179 288.619C79.1129 294.586 79.4079 301.18 79.7521 308.265C80.0962 315.349 80.5141 322.901 80.9811 330.82C81.4482 338.74 81.8538 347.015 82.6527 355.537C83.4762 362.621 84.2014 369.583 83.5991 376.275C83.4561 377.923 83.2304 379.562 82.9231 381.187C82.6315 382.791 82.2207 384.371 81.694 385.914C80.5633 388.922 79.2358 391.832 78.0067 394.656C73.0044 406.1 68.3215 416.168 64.413 424.763C60.5045 433.358 57.3212 440.074 55.1334 444.838C54.0518 447.208 53.2037 449.05 52.6752 450.327C52.4048 450.928 52.1836 451.407 52.0361 451.751C51.8886 452.095 51.8271 452.242 51.8271 452.242C51.9217 452.092 52.0079 451.936 52.0853 451.776C52.245 451.432 52.4786 450.965 52.7736 450.364L55.3792 444.936C57.6162 440.172 60.8487 433.333 64.8309 424.873C68.8132 416.414 73.4345 406.284 78.5353 394.975C79.7643 392.139 81.0795 389.254 82.2225 386.196C82.7575 384.635 83.1685 383.034 83.4516 381.408C83.7712 379.775 83.9801 378.117 84.1399 376.422C84.7544 369.669 84.017 362.671 83.1935 355.549C82.4069 347.065 81.9644 338.777 81.5096 330.857C81.0549 322.937 80.6739 315.386 80.2806 308.314C79.8873 301.241 79.58 294.66 79.2727 288.668C78.9654 282.676 78.7688 277.31 78.3263 272.706V272.804L86.807 260.366L89.044 257.063C89.2775 256.695 89.4619 256.412 89.6094 256.204C89.6335 256.115 89.6499 256.025 89.6585 255.934Z" fill="#455A64"/>
<path d="M166.12 185.173C166.12 185.173 174.724 181.428 177.182 179.832C179.16 178.492 181.433 177.65 183.807 177.376C186.609 176.873 194.033 176.075 195.839 177.376C197.646 178.678 205.758 181.993 205.758 181.993L195.041 187.788C195.041 187.788 193.283 195.057 191.157 195.708C189.03 196.359 189.399 196.15 187.113 195.708C184.827 195.266 177.354 191.681 177.133 191.828C176.912 191.975 169.23 196.125 169.23 196.125L166.12 185.173Z" fill="#FFBF9D"/>
<path d="M198.752 184.166H224.256L225.485 183.331C225.53 183.299 225.568 183.257 225.593 183.208C225.619 183.159 225.632 183.104 225.632 183.049C225.632 182.993 225.619 182.938 225.593 182.889C225.568 182.84 225.53 182.798 225.485 182.766L224.256 182.005H198.752V184.166Z" fill="#263238"/>
<path d="M211.548 182.668C211.548 182.668 210.318 181.207 207.959 182.668C206.586 183.474 205.257 184.351 203.976 185.296C203.432 185.163 202.895 185.003 202.366 184.817L198.937 186.376L198.568 188.39C198.568 188.39 202.882 189.839 204.247 189.114C206.715 187.561 209.035 185.786 211.179 183.81C211.793 183.036 211.548 182.668 211.548 182.668Z" fill="#FFBF9D"/>
<path d="M189.939 191.017L191.513 190.011L190.947 187.788C190.947 187.788 187.641 187.346 187.26 185.541C186.879 183.736 187.26 183.773 187.26 183.773L191.525 184.498L189.558 182.84C189.558 182.84 185.97 182.398 186.252 180.311L186.94 179.316C188.514 179.608 190.063 180.018 191.574 180.544C193.373 181.544 195.121 182.634 196.81 183.81L193.59 180.753C192.718 180.441 191.917 179.961 191.23 179.341C191.099 179.209 190.999 179.049 190.939 178.874C190.879 178.698 190.859 178.511 190.881 178.326C190.904 178.142 190.968 177.965 191.069 177.809C191.17 177.653 191.305 177.522 191.464 177.425C191.696 177.273 191.973 177.203 192.25 177.229C193.425 177.294 194.582 177.543 195.679 177.965C197.056 178.616 201.161 181.649 201.763 183.208C202.366 184.768 202.292 185.333 201.321 186.315C200.29 187.202 199.169 187.98 197.978 188.635C197.5 189.531 196.807 190.295 195.962 190.858C195.962 190.858 195.274 193.891 191.132 195.646" fill="#FFBF9D"/>
<path d="M191.157 195.695C191.157 195.695 191.317 195.695 191.599 195.536C192.028 195.361 192.439 195.148 192.828 194.897C193.472 194.518 194.059 194.051 194.574 193.51C195.286 192.782 195.82 191.9 196.135 190.931L196.061 191.042C196.954 190.488 197.68 189.703 198.163 188.77L198.089 188.844C198.789 188.451 199.49 188.021 200.215 187.53C201.016 187.045 201.693 186.381 202.194 185.59C202.418 185.108 202.449 184.559 202.28 184.055C202.17 183.551 201.975 183.069 201.702 182.631C201.071 181.797 200.34 181.043 199.527 180.384C198.688 179.684 197.81 179.032 196.897 178.432C196.421 178.104 195.91 177.832 195.373 177.621C194.818 177.424 194.246 177.28 193.664 177.192L192.791 177.069C192.473 177.025 192.151 177.025 191.833 177.069C191.569 177.128 191.325 177.257 191.128 177.442C190.931 177.628 190.787 177.862 190.712 178.122C190.637 178.382 190.633 178.657 190.7 178.919C190.767 179.18 190.904 179.419 191.095 179.611C191.322 179.83 191.569 180.028 191.833 180.2C192.36 180.552 192.93 180.837 193.529 181.047H193.431L194.746 182.275L196.651 184.092L196.983 183.687C195.373 182.607 193.812 181.551 192.177 180.654C191.351 180.252 190.48 179.947 189.584 179.746C188.711 179.537 187.85 179.34 187.015 179.181H186.855L186.769 179.304L186.081 180.286C186.022 180.74 186.136 181.201 186.4 181.575C186.66 181.914 186.992 182.19 187.371 182.386C188.067 182.743 188.82 182.976 189.596 183.073H189.473L191.464 184.706L191.624 184.35L188.428 183.822L187.691 183.699H187.506H187.236C186.953 183.896 187.027 184.043 186.99 184.178C186.984 184.662 187.038 185.144 187.15 185.615C187.231 186.094 187.48 186.529 187.85 186.843C188.175 187.109 188.535 187.328 188.92 187.493C189.577 187.767 190.267 187.957 190.972 188.058L190.874 187.972C191.108 188.832 191.317 189.544 191.476 190.133V190.047L190.247 190.833C190.113 190.911 189.989 191.006 189.878 191.116C190.022 191.063 190.158 190.993 190.284 190.907L191.513 190.182C191.378 189.581 191.194 188.856 190.985 187.997V187.788H190.899C190.222 187.671 189.562 187.473 188.932 187.199C188.559 187.07 188.222 186.853 187.95 186.567C187.678 186.28 187.48 185.933 187.371 185.553C187.275 185.118 187.234 184.673 187.248 184.227C187.24 184.179 187.24 184.129 187.248 184.08C187.248 184.08 187.248 184.08 187.248 183.957C187.248 183.834 187.248 184.129 187.248 184.092H187.383H187.556L188.305 184.227L191.489 184.78L192.238 184.915L191.648 184.424L189.682 182.754H189.62C188.904 182.657 188.209 182.437 187.568 182.103C187.242 181.978 186.965 181.752 186.777 181.458C186.589 181.164 186.5 180.818 186.523 180.47V180.581C186.744 180.249 186.978 179.93 187.211 179.598L186.966 179.697C187.801 179.856 188.649 180.04 189.51 180.261C190.36 180.457 191.184 180.75 191.968 181.133C193.553 182.017 195.127 183.085 196.712 184.154L197.032 183.761L195.127 181.944L193.812 180.716H193.75C193.2 180.508 192.673 180.245 192.177 179.93C191.943 179.766 191.721 179.586 191.513 179.39C191.345 179.223 191.244 179 191.23 178.763C191.215 178.523 191.286 178.285 191.43 178.092C191.574 177.898 191.782 177.762 192.017 177.707C192.278 177.678 192.542 177.678 192.804 177.707L193.652 177.83C194.198 177.911 194.737 178.038 195.262 178.211C195.766 178.415 196.248 178.67 196.7 178.972C197.594 179.56 198.455 180.195 199.281 180.875C200.064 181.454 200.774 182.126 201.395 182.877C201.638 183.254 201.816 183.669 201.924 184.105C202.075 184.5 202.075 184.937 201.924 185.332C201.455 186.063 200.829 186.679 200.092 187.137C199.392 187.628 198.691 188.07 198.015 188.463C197.578 189.344 196.911 190.09 196.085 190.624V190.698C195.796 191.614 195.304 192.453 194.647 193.154C194.157 193.694 193.6 194.168 192.988 194.566C191.747 195.425 191.132 195.659 191.157 195.695Z" fill="#FF9A6C"/>
<path d="M188.526 191.141C188.355 190.539 188.076 189.973 187.703 189.471C186.057 186.916 183.705 184.894 180.931 183.651C180.378 183.35 179.773 183.159 179.148 183.086C182.96 184.852 186.207 187.64 188.526 191.141Z" fill="#FF9A6C"/>
<path d="M191.243 184.375C191.243 184.461 191.723 184.534 192.472 184.854C193.377 185.286 194.115 186.002 194.574 186.892C195.024 187.814 195.374 188.781 195.619 189.777C195.84 190.551 195.987 191.005 196.061 191.005C196.135 191.005 196.061 190.49 195.975 189.691C195.836 188.626 195.516 187.592 195.029 186.634C194.51 185.636 193.632 184.873 192.571 184.498C192.151 184.324 191.688 184.281 191.243 184.375Z" fill="#FF9A6C"/>
<path d="M196.688 183.737C197.159 184.432 197.535 185.188 197.806 185.984C198.187 187.322 198.089 188.439 198.236 188.501C198.605 187.656 198.632 186.7 198.31 185.836C198.147 185.205 197.825 184.626 197.376 184.154C197.019 183.798 196.724 183.688 196.688 183.737Z" fill="#FF9A6C"/>
<path d="M77.5762 138.048L82.3327 144.323L97.4628 147.576C97.4628 147.576 108.611 171.249 108.094 182.14C107.936 187.606 107.369 193.052 106.398 198.434L106.497 210.897C106.497 210.897 111.192 221.26 109.102 225.754C107.013 230.247 101.138 234.349 101.138 234.349L46.1852 235.036C46.1852 235.036 42.2767 237.283 40.2242 231.414C39.3392 228.958 42.7561 221.358 41.4532 211.584C39.6342 198.458 33.12 182.681 33.12 182.681L30.7725 154.072L48.1026 145.673L51.2737 137.312L72.0084 142.604L77.5762 138.048Z" fill="#5B72EE"/>
<path d="M169.943 182.079C169.353 182.14 160.761 185.161 160.761 185.161C158.591 184.482 156.279 184.393 154.063 184.903C150.879 185.836 134.668 189.47 134.668 189.47L113.773 162.531C113.773 162.531 105.403 148.448 97.4141 147.576L103.768 187.26C103.768 187.26 120.718 209.632 128.879 212.431C137.04 215.231 165.751 204.634 166.513 200.656L176.1 194.664L169.943 182.079Z" fill="#5B72EE"/>
<path d="M99.6758 155.864C99.7065 156.015 99.7604 156.16 99.8356 156.294L100.401 157.522C100.659 158.038 100.966 158.664 101.286 159.425C101.605 160.186 101.999 161.009 102.355 161.967C103.253 164.194 104.028 166.469 104.678 168.781C105.457 171.606 106.06 174.477 106.485 177.376C106.873 180.287 107.087 183.219 107.124 186.155C107.137 188.558 107.022 190.96 106.78 193.351C106.694 194.37 106.546 195.291 106.448 196.089C106.35 196.887 106.227 197.599 106.129 198.164L105.907 199.465C105.891 199.62 105.891 199.777 105.907 199.932C105.907 199.932 105.981 199.784 106.055 199.49L106.362 198.262C106.497 197.697 106.645 197.034 106.768 196.199C106.891 195.364 107.075 194.48 107.173 193.449C107.474 191.05 107.63 188.635 107.64 186.217C107.629 183.256 107.427 180.299 107.038 177.364C106.608 174.432 105.984 171.532 105.17 168.683C104.489 166.364 103.668 164.088 102.712 161.868C102.331 160.911 101.9 160.076 101.556 159.339C101.212 158.602 100.88 157.964 100.598 157.473L99.9462 156.245C99.8729 156.107 99.782 155.979 99.6758 155.864Z" fill="#263238"/>
<path d="M48.0537 145.723C48.1797 145.812 48.3158 145.886 48.4593 145.944L49.6884 146.472C50.7331 146.914 52.2572 147.528 54.1746 148.227C59.2216 150.026 64.3727 151.518 69.5996 152.697L69.8455 152.758V152.5C69.9561 152.022 70.0913 151.518 70.2265 151.002C70.9762 148.313 71.8612 145.772 72.4143 143.328L71.9964 143.427C74.1596 146.066 76.1138 148.412 77.8714 150.229L78.0066 150.364L78.1295 150.229C78.7939 149.458 79.3979 148.637 79.9363 147.773L81.1654 145.87C81.8537 144.839 82.3207 144.335 82.2961 144.311C82.1527 144.401 82.0242 144.513 81.9151 144.642C81.5892 144.996 81.2855 145.369 81.0056 145.76C80.6246 146.251 80.1821 146.877 79.6782 147.601C79.1233 148.425 78.5114 149.208 77.8468 149.946H78.1049C76.4211 148.117 74.4914 145.735 72.3528 143.095L72.0332 142.702L71.9226 143.193C71.3572 145.649 70.46 148.105 69.7103 150.843C69.5628 151.358 69.4276 151.874 69.317 152.365L69.6242 152.169C64.4154 151 59.2708 149.561 54.2114 147.859C52.2818 147.208 50.7454 146.631 49.6761 146.263C49.1499 146.042 48.6075 145.861 48.0537 145.723Z" fill="#263238"/>
<path d="M78.4859 237.258C78.4859 237.258 78.572 237.258 78.7072 237.148C78.8424 237.037 79.0759 236.951 79.3463 236.767C80.1105 236.213 80.7649 235.522 81.2759 234.729C82.0628 233.456 82.6085 232.049 82.8861 230.579C83.2545 228.644 83.4315 226.679 83.4146 224.71C83.4146 216.016 83.5498 203.996 82.6157 190.735C82.1363 184.117 81.3866 177.818 80.4033 172.145C79.549 167.117 78.3957 162.143 76.9496 157.252C75.6529 152.736 74.0092 148.327 72.0332 144.064C72.0332 144.064 72.0332 144.15 72.0332 144.31C72.0332 144.47 72.193 144.715 72.2913 144.998L73.3115 147.601C73.7785 148.718 74.2333 150.142 74.7987 151.763C75.364 153.384 75.9294 155.275 76.5563 157.35C77.947 162.244 79.0631 167.213 79.8994 172.231C80.8458 177.892 81.5832 184.166 82.0626 190.772C82.9967 203.996 82.9352 216.029 83.0213 224.71C83.0511 226.656 82.8947 228.601 82.5542 230.517C82.3143 231.964 81.8102 233.354 81.067 234.618C80.4106 235.677 79.5295 236.578 78.4859 237.258Z" fill="#263238"/>
<path d="M62.9629 218.558C63.4415 218.561 63.9191 218.515 64.3886 218.423C65.3104 218.3 66.6256 218.091 68.2357 217.772C76.6701 216.096 84.8257 213.24 92.461 209.287C93.9236 208.526 95.079 207.875 95.8656 207.397C96.2982 207.177 96.7096 206.918 97.0947 206.623C96.6405 206.777 96.2038 206.979 95.7919 207.225C94.9807 207.642 93.8007 208.244 92.3258 208.956C88.4827 210.819 84.5348 212.459 80.502 213.867C76.4747 215.272 72.3712 216.449 68.2111 217.391C66.6133 217.747 65.3105 218.017 64.4132 218.202C63.9198 218.275 63.4343 218.395 62.9629 218.558Z" fill="#263238"/>
<g opacity="0.3">
<path d="M104.543 167.418C107.65 170.638 109.593 174.803 110.063 179.251C110.533 183.7 109.503 188.178 107.136 191.975V191.815C108.197 183.592 107.309 175.235 104.543 167.418Z" fill="black"/>
</g>
<path d="M59.8781 210.835C59.8781 210.835 51.5326 210.835 50.8689 211.535C50.2052 212.235 45.3011 216.839 45.3011 216.839C44.7444 218.108 44.1039 219.339 43.3838 220.523C43.3838 220.523 41.9089 222.978 40.5569 223.396C39.8355 223.653 39.0735 223.778 38.3076 223.764L36.2305 234.447C36.2305 234.447 39.4876 236.902 41.1468 236.399C42.8061 235.895 51.1147 229.388 51.1147 229.388L53.2411 228.283C53.2411 228.283 62.0782 227.178 62.0659 224.427L61.943 223.678L53.1427 224.341L50.0208 225.397L55.2568 222.401C55.2568 222.401 63.3196 220.596 64.0325 220.265C64.7453 219.933 65.409 218.607 64.9911 218.018L63.2335 218.092C63.2335 218.092 64.8805 216.508 64.6224 215.341H56.7194C56.7194 215.341 60.9966 212.345 59.8781 210.835Z" fill="#FFBF9D"/>
<path d="M64.1294 217.821C63.8885 217.85 63.6451 217.85 63.4043 217.821H61.45C59.7907 217.821 57.5046 217.92 54.985 218.042C54.6654 218.042 54.3459 218.042 54.0755 218.116C53.7915 218.166 53.5175 218.261 53.2643 218.399C52.7849 218.693 52.2933 219.025 51.8385 219.319C50.9413 219.933 50.1424 220.547 49.5032 221.038C48.9956 221.423 48.5074 221.833 48.0406 222.266C47.7088 222.585 47.549 222.782 47.5244 222.757C47.6298 222.539 47.7711 222.34 47.9423 222.168C48.3718 221.669 48.8403 221.205 49.3435 220.781C50.0831 220.145 50.8543 219.546 51.6542 218.988C52.1089 218.669 52.5637 218.349 53.1045 218.03C53.3824 217.869 53.6859 217.757 54.0017 217.699C54.3197 217.657 54.6397 217.632 54.9604 217.625C57.4923 217.502 59.7907 217.453 61.45 217.502C62.2735 217.502 62.9495 217.564 63.4165 217.613C63.663 217.648 63.9031 217.718 64.1294 217.821Z" fill="#FF9A6C"/>
<path d="M57.0264 215.685C57.0264 215.685 56.3627 215.574 55.2933 215.537C53.9124 215.489 52.5385 215.754 51.2743 216.311C50.0101 216.868 48.8882 217.703 47.9926 218.754C47.3043 219.552 46.9847 220.142 46.9355 220.117C47.1152 219.556 47.408 219.038 47.7959 218.595C48.6733 217.463 49.8198 216.568 51.1312 215.991C52.4427 215.415 53.8776 215.174 55.3056 215.292C55.8998 215.306 56.485 215.44 57.0264 215.685Z" fill="#FF9A6C"/>
<path d="M2.7741 218.166C1.48706 216.286 0.620024 214.153 0.231917 211.909C-0.156191 209.665 -0.0562792 207.364 0.524865 205.163C1.98748 198.864 18.9612 169.113 26.6676 157.927C29.433 153.912 34.8287 152.132 34.8287 152.132C34.8287 152.132 45.6447 160.555 46.6526 172.563L37.545 184.658L23.7424 208.662L2.7741 218.166Z" fill="#5B72EE"/>
<path d="M35.6401 221.861L22.4643 205.285C22.4643 205.285 3.14297 217.772 2.79883 218.165C2.79883 218.165 18.8384 231.807 36.2546 235.859L38.6268 223.654L35.6401 221.861Z" fill="#5B72EE"/>
<path d="M39.7697 179.07C39.7052 177.842 39.738 176.61 39.868 175.387C40.0804 172.511 39.8984 169.619 39.3272 166.792C38.712 163.979 37.2697 161.413 35.1852 159.425C34.2706 158.658 33.2826 157.984 32.2354 157.411C32.5695 157.438 32.8952 157.53 33.194 157.681C34.0194 158.049 34.7857 158.538 35.4679 159.13C37.7258 161.11 39.2894 163.761 39.9294 166.694C40.548 169.59 40.7015 172.565 40.3842 175.51C40.3024 176.715 40.0965 177.908 39.7697 179.07Z" fill="#263238"/>
<path d="M5.74805 208.023C6.39289 207.258 7.19308 206.639 8.09561 206.206C10.2264 205.036 12.6206 204.427 15.0523 204.438C16.3764 204.368 17.704 204.405 19.0222 204.548C20.1158 204.678 21.1772 205.003 22.1564 205.506C22.8103 205.854 23.3971 206.316 23.8894 206.869C24.2213 207.286 24.3687 207.52 24.3319 207.544C23.5957 206.915 22.7967 206.364 21.9474 205.899C20.9911 205.483 19.9746 205.222 18.9362 205.125C17.6485 205.017 16.355 204.997 15.0645 205.064C12.7197 205.055 10.4037 205.58 8.29226 206.599C6.69445 207.434 5.8095 208.109 5.74805 208.023Z" fill="#263238"/>
<defs>
<linearGradient id="paint0_linear_854_2566" x1="385.97" y1="470.011" x2="32.6712" y2="-141.605" gradientUnits="userSpaceOnUse">
<stop stop-color="#AA80F9"/>
<stop offset="0.9964" stop-color="#6165D7"/>
</linearGradient>
<linearGradient id="paint1_linear_854_2566" x1="119.504" y1="175.556" x2="304.13" y2="479.848" gradientUnits="userSpaceOnUse">
<stop offset="0.00359712" stop-color="#E38DDD"/>
<stop offset="1" stop-color="#9571F6"/>
</linearGradient>
<linearGradient id="paint2_linear_854_2566" x1="405.393" y1="38.8714" x2="421.975" y2="188.939" gradientUnits="userSpaceOnUse">
<stop stop-color="#311944"/>
<stop offset="1" stop-color="#893976"/>
</linearGradient>
<linearGradient id="paint3_linear_854_2566" x1="466.456" y1="157.3" x2="531.175" y2="288.169" gradientUnits="userSpaceOnUse">
<stop stop-color="#311944"/>
<stop offset="1" stop-color="#893976"/>
</linearGradient>
<linearGradient id="paint4_linear_854_2566" x1="364.349" y1="102.418" x2="459.262" y2="224.59" gradientUnits="userSpaceOnUse">
<stop stop-color="#311944"/>
<stop offset="1" stop-color="#893976"/>
</linearGradient>
<linearGradient id="paint5_linear_854_2566" x1="550.182" y1="17.4343" x2="486.972" y2="105.682" gradientUnits="userSpaceOnUse">
<stop stop-color="#311944"/>
<stop offset="1" stop-color="#893976"/>
</linearGradient>
<linearGradient id="paint6_linear_854_2566" x1="410.732" y1="38.9753" x2="427.16" y2="187.656" gradientUnits="userSpaceOnUse">
<stop stop-color="#FFC444"/>
<stop offset="0.9964" stop-color="#F36F56"/>
</linearGradient>
<linearGradient id="paint7_linear_854_2566" x1="471.784" y1="157.301" x2="536.503" y2="288.17" gradientUnits="userSpaceOnUse">
<stop offset="0.00359712" stop-color="#E38DDD"/>
<stop offset="1" stop-color="#9571F6"/>
</linearGradient>
<linearGradient id="paint8_linear_854_2566" x1="369.696" y1="102.443" x2="461.25" y2="220.291" gradientUnits="userSpaceOnUse">
<stop stop-color="#AA80F9"/>
<stop offset="0.9964" stop-color="#6165D7"/>
</linearGradient>
<linearGradient id="paint9_linear_854_2566" x1="565.12" y1="3.45455" x2="495.765" y2="100.281" gradientUnits="userSpaceOnUse">
<stop stop-color="#FF9085"/>
<stop offset="1" stop-color="#FB6FBB"/>
</linearGradient>
<linearGradient id="paint10_linear_854_2566" x1="440.837" y1="173.642" x2="504.176" y2="301.721" gradientUnits="userSpaceOnUse">
<stop offset="0.00359712" stop-color="#E38DDD"/>
<stop offset="1" stop-color="#9571F6"/>
</linearGradient>
<linearGradient id="paint11_linear_854_2566" x1="403.117" y1="39.9652" x2="419.511" y2="188.338" gradientUnits="userSpaceOnUse">
<stop stop-color="#FFC444"/>
<stop offset="0.9964" stop-color="#F36F56"/>
</linearGradient>
<linearGradient id="paint12_linear_854_2566" x1="428.275" y1="168.922" x2="434.646" y2="266.195" gradientUnits="userSpaceOnUse">
<stop stop-color="#FF9085"/>
<stop offset="1" stop-color="#FB6FBB"/>
</linearGradient>
<linearGradient id="paint13_linear_854_2566" x1="436.723" y1="206.731" x2="439.909" y2="255.369" gradientUnits="userSpaceOnUse">
<stop stop-color="#FF9085"/>
<stop offset="1" stop-color="#FB6FBB"/>
</linearGradient>
<linearGradient id="paint14_linear_854_2566" x1="442.176" y1="159.359" x2="449.115" y2="265.299" gradientUnits="userSpaceOnUse">
<stop stop-color="#FF9085"/>
<stop offset="1" stop-color="#FB6FBB"/>
</linearGradient>
<linearGradient id="paint15_linear_854_2566" x1="449.658" y1="171.144" x2="455.555" y2="261.182" gradientUnits="userSpaceOnUse">
<stop stop-color="#FF9085"/>
<stop offset="1" stop-color="#FB6FBB"/>
</linearGradient>
<linearGradient id="paint16_linear_854_2566" x1="458.633" y1="225.06" x2="460.222" y2="249.319" gradientUnits="userSpaceOnUse">
<stop stop-color="#FF9085"/>
<stop offset="1" stop-color="#FB6FBB"/>
</linearGradient>
<linearGradient id="paint17_linear_854_2566" x1="464.643" y1="197.231" x2="468.347" y2="253.786" gradientUnits="userSpaceOnUse">
<stop stop-color="#FF9085"/>
<stop offset="1" stop-color="#FB6FBB"/>
</linearGradient>
<linearGradient id="paint18_linear_854_2566" x1="470.81" y1="175.243" x2="476.129" y2="256.447" gradientUnits="userSpaceOnUse">
<stop stop-color="#FF9085"/>
<stop offset="1" stop-color="#FB6FBB"/>
</linearGradient>
<linearGradient id="paint19_linear_854_2566" x1="478.422" y1="193.412" x2="482.296" y2="252.551" gradientUnits="userSpaceOnUse">
<stop stop-color="#FF9085"/>
<stop offset="1" stop-color="#FB6FBB"/>
</linearGradient>
<linearGradient id="paint20_linear_854_2566" x1="484.232" y1="164.129" x2="490.217" y2="255.509" gradientUnits="userSpaceOnUse">
<stop stop-color="#FF9085"/>
<stop offset="1" stop-color="#FB6FBB"/>
</linearGradient>
<linearGradient id="paint21_linear_854_2566" x1="490.717" y1="154.078" x2="497.352" y2="255.376" gradientUnits="userSpaceOnUse">
<stop stop-color="#FF9085"/>
<stop offset="1" stop-color="#FB6FBB"/>
</linearGradient>
<linearGradient id="paint22_linear_854_2566" x1="361.611" y1="314.562" x2="327.207" y2="421.72" gradientUnits="userSpaceOnUse">
<stop stop-color="#FF9085"/>
<stop offset="1" stop-color="#FB6FBB"/>
</linearGradient>
<linearGradient id="paint23_linear_854_2566" x1="369.526" y1="317.089" x2="335.348" y2="423.543" gradientUnits="userSpaceOnUse">
<stop stop-color="#FF9085"/>
<stop offset="1" stop-color="#FB6FBB"/>
</linearGradient>
<linearGradient id="paint24_linear_854_2566" x1="383.186" y1="321.241" x2="349.165" y2="427.206" gradientUnits="userSpaceOnUse">
<stop stop-color="#FF9085"/>
<stop offset="1" stop-color="#FB6FBB"/>
</linearGradient>
<linearGradient id="paint25_linear_854_2566" x1="391.435" y1="323.789" x2="357.622" y2="429.104" gradientUnits="userSpaceOnUse">
<stop stop-color="#FF9085"/>
<stop offset="1" stop-color="#FB6FBB"/>
</linearGradient>
<linearGradient id="paint26_linear_854_2566" x1="405.258" y1="327.988" x2="371.587" y2="432.861" gradientUnits="userSpaceOnUse">
<stop stop-color="#FF9085"/>
<stop offset="1" stop-color="#FB6FBB"/>
</linearGradient>
<linearGradient id="paint27_linear_854_2566" x1="156.447" y1="286.73" x2="156.942" y2="294.288" gradientUnits="userSpaceOnUse">
<stop stop-color="#FF9085"/>
<stop offset="1" stop-color="#FB6FBB"/>
</linearGradient>
<linearGradient id="paint28_linear_854_2566" x1="166.259" y1="277.977" x2="167.397" y2="295.353" gradientUnits="userSpaceOnUse">
<stop stop-color="#FF9085"/>
<stop offset="1" stop-color="#FB6FBB"/>
</linearGradient>
<linearGradient id="paint29_linear_854_2566" x1="176.065" y1="271.014" x2="177.693" y2="295.869" gradientUnits="userSpaceOnUse">
<stop stop-color="#FF9085"/>
<stop offset="1" stop-color="#FB6FBB"/>
</linearGradient>
<linearGradient id="paint30_linear_854_2566" x1="186.257" y1="276.26" x2="187.444" y2="294.393" gradientUnits="userSpaceOnUse">
<stop stop-color="#FF9085"/>
<stop offset="1" stop-color="#FB6FBB"/>
</linearGradient>
<linearGradient id="paint31_linear_854_2566" x1="195.849" y1="267.098" x2="197.677" y2="295.003" gradientUnits="userSpaceOnUse">
<stop stop-color="#FF9085"/>
<stop offset="1" stop-color="#FB6FBB"/>
</linearGradient>
<linearGradient id="paint32_linear_854_2566" x1="205.593" y1="263.783" x2="207.616" y2="294.675" gradientUnits="userSpaceOnUse">
<stop stop-color="#FF9085"/>
<stop offset="1" stop-color="#FB6FBB"/>
</linearGradient>
<linearGradient id="paint33_linear_854_2566" x1="176.129" y1="203.079" x2="144.921" y2="255.914" gradientUnits="userSpaceOnUse">
<stop stop-color="#FFC444"/>
<stop offset="0.9964" stop-color="#F36F56"/>
</linearGradient>
<linearGradient id="paint34_linear_854_2566" x1="181.821" y1="206.679" x2="150.831" y2="259.147" gradientUnits="userSpaceOnUse">
<stop stop-color="#FFC444"/>
<stop offset="0.9964" stop-color="#F36F56"/>
</linearGradient>
<linearGradient id="paint35_linear_854_2566" x1="187.915" y1="210.379" x2="157.062" y2="262.612" gradientUnits="userSpaceOnUse">
<stop stop-color="#FFC444"/>
<stop offset="0.9964" stop-color="#F36F56"/>
</linearGradient>
<linearGradient id="paint36_linear_854_2566" x1="196.345" y1="215.406" x2="165.594" y2="267.468" gradientUnits="userSpaceOnUse">
<stop stop-color="#FFC444"/>
<stop offset="0.9964" stop-color="#F36F56"/>
</linearGradient>
<linearGradient id="paint37_linear_854_2566" x1="201.98" y1="218.802" x2="171.355" y2="270.65" gradientUnits="userSpaceOnUse">
<stop stop-color="#FFC444"/>
<stop offset="0.9964" stop-color="#F36F56"/>
</linearGradient>
<linearGradient id="paint38_linear_854_2566" x1="208.705" y1="222.821" x2="178.19" y2="274.482" gradientUnits="userSpaceOnUse">
<stop stop-color="#FFC444"/>
<stop offset="0.9964" stop-color="#F36F56"/>
</linearGradient>
<linearGradient id="paint39_linear_854_2566" x1="186.182" y1="149.183" x2="224.585" y2="210.55" gradientUnits="userSpaceOnUse">
<stop stop-color="#AA80F9"/>
<stop offset="0.9964" stop-color="#6165D7"/>
</linearGradient>
<linearGradient id="paint40_linear_854_2566" x1="180.646" y1="152.377" x2="219.358" y2="214.239" gradientUnits="userSpaceOnUse">
<stop stop-color="#AA80F9"/>
<stop offset="0.9964" stop-color="#6165D7"/>
</linearGradient>
<linearGradient id="paint41_linear_854_2566" x1="174.77" y1="155.965" x2="213.669" y2="218.125" gradientUnits="userSpaceOnUse">
<stop stop-color="#AA80F9"/>
<stop offset="0.9964" stop-color="#6165D7"/>
</linearGradient>
<linearGradient id="paint42_linear_854_2566" x1="166.473" y1="161.146" x2="205.489" y2="223.494" gradientUnits="userSpaceOnUse">
<stop stop-color="#AA80F9"/>
<stop offset="0.9964" stop-color="#6165D7"/>
</linearGradient>
<linearGradient id="paint43_linear_854_2566" x1="160.936" y1="164.56" x2="200.129" y2="227.192" gradientUnits="userSpaceOnUse">
<stop stop-color="#AA80F9"/>
<stop offset="0.9964" stop-color="#6165D7"/>
</linearGradient>
<linearGradient id="paint44_linear_854_2566" x1="154.212" y1="168.748" x2="193.553" y2="231.615" gradientUnits="userSpaceOnUse">
<stop stop-color="#AA80F9"/>
<stop offset="0.9964" stop-color="#6165D7"/>
</linearGradient>
<linearGradient id="paint45_linear_854_2566" x1="250.085" y1="195.747" x2="266.609" y2="195.747" gradientUnits="userSpaceOnUse">
<stop stop-color="#FF9085"/>
<stop offset="1" stop-color="#FB6FBB"/>
</linearGradient>
<linearGradient id="paint46_linear_854_2566" x1="277.228" y1="247.142" x2="293.462" y2="247.142" gradientUnits="userSpaceOnUse">
<stop stop-color="#FF9085"/>
<stop offset="1" stop-color="#FB6FBB"/>
</linearGradient>
<linearGradient id="paint47_linear_854_2566" x1="345.444" y1="212.073" x2="360.963" y2="212.073" gradientUnits="userSpaceOnUse">
<stop stop-color="#FF9085"/>
<stop offset="1" stop-color="#FB6FBB"/>
</linearGradient>
<linearGradient id="paint48_linear_854_2566" x1="371.233" y1="244.008" x2="386.486" y2="244.008" gradientUnits="userSpaceOnUse">
<stop stop-color="#FF9085"/>
<stop offset="1" stop-color="#FB6FBB"/>
</linearGradient>
<linearGradient id="paint49_linear_854_2566" x1="361.271" y1="361.504" x2="397.616" y2="332.28" gradientUnits="userSpaceOnUse">
<stop stop-color="#FFC444"/>
<stop offset="0.9964" stop-color="#F36F56"/>
</linearGradient>
<clipPath id="clip0_854_2566">
<rect width="480.027" height="493.201" fill="white" transform="translate(89.748)"/>
</clipPath>
</defs>
</svg>
