<svg width="100" height="100" viewBox="0 0 100 100" fill="none" xmlns="http://www.w3.org/2000/svg">
<mask id="mask0_1442_870" style="mask-type:alpha" maskUnits="userSpaceOnUse" x="0" y="0" width="100" height="100">
<circle cx="50" cy="50" r="50" fill="#24223E"/>
</mask>
<g mask="url(#mask0_1442_870)">
<circle cx="50" cy="50" r="50" fill="#24223E"/>
<g opacity="0.15">
<path d="M14.6963 26.7609H-3.49969L-3.53547 26.8035L-9.71052 33.0091H-13.3097V34.77H-21.0946L-30.461 44.1991H-33.2659V43.3897H-35.1692V44.1991H-41.1296V42.4382H-44.9434V46.2227H-41.1296V44.4618H-35.1692V45.2783H-33.2659V44.4618H-30.3536L-20.9945 35.0327H-13.3168V36.7935H-9.49586V35.0327H9.08653V34.77H-7.88591L-0.193932 27.0236H14.6963V28.7844H18.5101V25H14.6963V26.7609ZM-3.3852 27.0236H-0.56601L-8.25799 34.77H-9.49586V33.1724L-3.3852 27.0236ZM15.1042 25.3976H18.1094V28.3797H15.1042V25.3976Z" fill="url(#paint0_linear_1442_870)"/>
<path d="M17.2369 26.2637H15.9775V27.5133H17.2369V26.2637Z" fill="url(#paint1_linear_1442_870)"/>
<path d="M-5.64577 38.6826V40.4435H-18.0603L-26.6037 49.049H-28.2995V49.8726H-41.6729V50.1353H-28.2995V50.9377H-26.3962V50.1353L-14.3395 50.1282L-4.98032 59.5574H12.586V61.3182H16.407V57.5338H12.5932V59.2947H-0.780148L-10.1465 49.8655H-26.3891V49.2123L-17.9458 40.7062H-5.63861V42.4671H-1.82482V38.6826H-5.64577ZM-13.9674 50.1282H-10.261L-1.15223 59.2947H-4.85868L-13.9674 50.1282Z" fill="url(#paint2_linear_1442_870)"/>
<path d="M10.9757 34.4004H9.9668V35.4015H10.9757V34.4004Z" fill="url(#paint3_linear_1442_870)"/>
<path d="M26.4102 41.2737V40.4572H34.2166C34.2238 40.372 34.2238 40.2797 34.2309 40.1945H26.4102V39.3779H24.5068V41.2666H26.4102V41.2737Z" fill="url(#paint4_linear_1442_870)"/>
<path d="M4.87959 49.3179L-0.780273 49.3321L-4.92321 45.1572H-4.98045L-17.0014 45.1501V44.6602H-18.2607V45.9098H-17.0014V45.4199L-6.9911 45.427L-2.84101 49.6019L4.77226 49.5877L7.08343 51.8811V55.4809H10.8972V51.6965H7.27663L4.87959 49.3179ZM7.48413 52.087H10.4894V55.0691H7.48413V52.087ZM-1.15235 49.3321H-2.73368L-6.61902 45.4199H-5.03769L-1.15235 49.3321Z" fill="url(#paint5_linear_1442_870)"/>
<path d="M-40.8786 53.7842H-44.6924V57.5686H-40.8786V55.8078H-33.4227L-24.0636 65.2369H-14.2965V66.9978H-10.6974L-4.48659 73.2531H4.6293V75.0139H8.44309V71.2224H4.6293V72.9833H-4.3721L-10.4828 66.8345V65.2369H-4.18606V64.9742H-10.4828V63.2133H-14.0819L-21.1227 56.1202V55.048H-22.3749V56.2977H-21.3159L-14.2894 63.3695V64.9671H-20.5718L-29.9381 55.5379H-40.8786V53.7842ZM5.03 71.62H8.03524V74.6021H5.03V71.62ZM-33.0435 55.8007H-30.0454L-20.9438 64.9671H-23.9419L-33.0435 55.8007ZM-41.2864 57.1639H-44.2917V54.1818H-41.2864V57.1639Z" fill="url(#paint6_linear_1442_870)"/>
<path d="M2.82575 39.96H1.56641V41.2096H2.82575V39.96Z" fill="url(#paint7_linear_1442_870)"/>
<path d="M3.87743 42.4666L6.26731 44.8381L12.0345 44.831L21.8588 35.0326H23.5546V36.6231L14.3671 45.7895V51.6827H12.5926V55.4672H16.4064V53.7063H29.4649L23.9195 59.2871H19.104V58.9179H18.0951V59.919H19.104V59.5498H24.034L29.837 53.7063H33.8726C33.894 53.6211 33.9155 53.5288 33.9298 53.4436H16.4064V51.6827H14.6319V45.896L23.7621 36.7864H27.3612V33.002H23.5474V34.7628H11.6123V35.0255H18.2811L8.72875 44.5683H6.3818L4.07063 42.2749V40.7057H7.82717V41.0749H8.83608V40.0738H7.82717V40.443H4.07063V38.6751H0.256836V42.4595H3.87743V42.4666ZM18.6603 35.0326H21.4795L11.9272 44.5683H9.10798L18.6603 35.0326ZM0.664691 39.0798H3.66993V42.0619H0.664691V39.0798Z" fill="url(#paint8_linear_1442_870)"/>
<path d="M27.362 47.6428V45.882H34.3742C34.4028 45.7968 34.4243 45.7045 34.4386 45.6193H27.3548V43.8584H23.541V47.6428H27.362ZM23.956 44.256H26.9613V47.2381H23.956V44.256Z" fill="url(#paint9_linear_1442_870)"/>
<path d="M7.16168 72.4863H5.90234V73.736H7.16168V72.4863Z" fill="url(#paint10_linear_1442_870)"/>
<path d="M8.42898 63.2139V66.9912H4.61519V65.2374H-1.90332V64.9676H4.61519V63.2139H8.42898Z" fill="url(#paint11_linear_1442_870)"/>
<path d="M23.0108 70.6903L14.3027 70.6974V69.8809H12.3994V71.7695H14.3027V70.953H23.0108C23.0036 70.8749 23.0179 70.7826 23.0108 70.6903Z" fill="url(#paint12_linear_1442_870)"/>
<path d="M83.7886 64.875H82.5293V66.1246H83.7886V64.875Z" fill="url(#paint13_linear_1442_870)"/>
<path d="M113.341 65.9749H116.961V62.1904H113.147V65.7903L110.836 68.0836L98.2071 68.0694L94.057 72.2444L82.816 72.2515V71.7616H81.5566V73.0112H82.816V72.5213L96.0677 72.5142H96.1249L100.268 68.3393L110.944 68.3535L113.341 65.9749ZM113.555 62.5951H116.561V65.5773H113.555V62.5951ZM96.0176 72.2444H94.4362L98.3216 68.3322H99.9029L96.0176 72.2444Z" fill="url(#paint14_linear_1442_870)"/>
<path d="M75.167 33.0584V36.8428H78.9808V35.0819H94.4148L97.8065 38.5043V39.3137H98.6079L103.774 44.5111H110.729V45.3276H112.632V43.4389H110.729V44.2555H103.888L98.8154 39.1433V38.9516H113.584L117.262 42.6579V46.2719H121.076V44.5182H131.479L126.356 49.7227L116.267 49.7298V49.9925L128.896 49.9854H128.954L134.334 44.5182H142.42L152.18 54.3804V57.9803H155.994V54.1958H152.373L142.47 44.2555H139.737L134.249 38.6889H120.117V37.8723H118.213V39.761H120.117V38.9445H131.651L136.875 44.2484H121.068V42.4804H117.462L113.691 38.6818H98.8082V38.3126H97.9853L94.515 34.8192H91.3524L84.0968 27.5557H80.741V27.8184H81.7642L88.7621 34.8192H78.9808V33.0584H75.167ZM152.588 54.5863H155.593V57.5684H152.588V54.5863ZM132.03 38.9445H134.141L139.365 44.2484H137.254L132.03 38.9445ZM133.962 44.5111L128.839 49.7156H126.728L131.852 44.5111H133.962ZM117.663 42.878H120.668V45.8601H117.663V42.878ZM82.1363 27.8184H83.9824L90.9803 34.8192H89.1342L82.1363 27.8184Z" fill="url(#paint15_linear_1442_870)"/>
<path d="M79.9254 27.0586H78.666V28.3082H79.9254V27.0586Z" fill="url(#paint16_linear_1442_870)"/>
<path d="M75.167 38.5254V42.3098H78.9808V40.549H81.9073L91.2665 49.9781H101.577V50.7946H103.481V48.906H101.778L93.778 40.8543V39.7963H92.5187V41.046H93.592L101.57 49.0764V49.7154H93.8496L84.4904 40.2863H78.9665V38.5254H75.167ZM84.3902 40.549L93.4918 49.7154H91.381L82.2794 40.549H84.3902ZM78.5729 41.9122H75.5677V38.9301H78.5729V41.9122Z" fill="url(#paint17_linear_1442_870)"/>
<path d="M76.4619 52.7832V53.5997H78.3939L82.7157 57.9522H83.7818V59.2018H82.5296V58.1368L78.2794 53.8624H76.4619V54.679H74.5586V52.7832H76.4619Z" fill="url(#paint18_linear_1442_870)"/>
<path d="M70.0364 59.287H76.7695L81.2416 63.7957V65.372H76.4976V64.5483H74.5943V66.437L76.4976 66.4441V65.6276H81.2416V67.3884H85.0554V65.6276H102.35L110.9 57.0149H112.625V55.1263H110.722V55.9428H91.3735L87.2664 51.8034V50.8093H86.279L82.0144 46.5137H69.972V46.7764H81.8999L86.0071 50.9158V52.0519H87.1448L91.2662 56.1984H103.402L98.9868 60.6432H89.0624V59.8267H87.1591V61.7153H89.0624V60.8988H101.412L106.092 56.1842H110.736V56.8019L102.257 65.3436H85.0769V63.5827H81.4563L76.9055 58.9959H70.0578V58.506H68.7842V59.7556H70.0435V59.287H70.0364ZM101.298 60.6503H99.366L103.781 56.2055H105.713L101.298 60.6503ZM81.6495 64.0087H84.6547V66.9908H81.6495V64.0087Z" fill="url(#paint19_linear_1442_870)"/>
<path d="M73.7209 27.3145H64.1113V74.801H73.7209V27.3145Z" fill="url(#paint20_linear_1442_870)"/>
<path d="M44.3556 27.3145H35.4973L17.1152 74.8081H27.3903L32.2273 61.559H48.0263L53.1638 74.8081H63.9325L44.3556 27.3145ZM35.3112 53.0884C35.3112 53.0884 39.7618 41.2452 40.0194 40.457C40.3701 41.4227 44.8064 53.0884 44.8064 53.0884H35.3112Z" fill="url(#paint21_linear_1442_870)"/>
</g>
<path d="M19.4976 29.7924H3.67714L3.64136 29.8279L-1.72514 35.2312H-4.85201V36.7578H-11.6281L-19.7709 44.9586H-22.2108V44.2486H-23.8709V44.9515H-29.0513V43.4249H-32.3643V46.7124H-29.0513V45.1858H-23.8709V45.8958H-22.2108V45.1858H-19.6779L-11.5351 36.985H-4.85917V38.5116H-1.54625V36.985H14.6176V36.7578H-0.143806L6.54643 30.0197H19.4904V31.5462H22.8033V28.2588H19.4904V29.7924H19.4976ZM3.77016 30.0197H6.22444L-0.465797 36.7578H-1.5391V35.3661L3.77016 30.0197ZM19.8482 28.6067H22.4599V31.1983H19.8482V28.6067Z" fill="url(#paint22_linear_1442_870)"/>
<path d="M21.7012 29.3594H20.6064V30.4457H21.7012V29.3594Z" fill="url(#paint23_linear_1442_870)"/>
<path d="M1.80975 40.1585V41.685H-8.98765L-16.422 49.1758H-17.896V49.8858H-29.5234V50.113H-17.896V50.816H-16.236V50.113L-5.75344 50.1059L2.38933 58.3067H17.666V59.8333H20.9789V56.5459H17.666V58.0724H6.03854L-2.10422 49.8787H-16.236V49.3107L-8.89462 41.9122H1.80975V43.4388H5.12267V40.1514H1.80975V40.1585ZM-5.42429 50.113H-2.19724L5.71656 58.0795H2.48951L-5.42429 50.113Z" fill="url(#paint24_linear_1442_870)"/>
<path d="M16.2636 36.4385H15.3906V37.3047H16.2636V36.4385Z" fill="url(#paint25_linear_1442_870)"/>
<path d="M29.6796 42.41V41.6999H36.4628C36.47 41.6218 36.47 41.5437 36.4771 41.4727H29.6796V40.7627H28.0195V42.41H29.6796Z" fill="url(#paint26_linear_1442_870)"/>
<path d="M10.9616 49.4036L6.03874 49.4178L2.43245 45.7896H2.38237L-8.06442 45.7825V45.3564H-9.15918V46.4428H-8.06442V46.0168L0.636464 46.0239L4.24275 49.6592L10.8614 49.645L12.8721 51.6402V54.7714H16.185V51.484H13.0367L10.9616 49.4036ZM13.2227 51.8177H15.8344V54.4093H13.2227V51.8177ZM5.71675 49.4178H4.34293L0.965611 46.0168H2.33944L5.71675 49.4178Z" fill="url(#paint27_linear_1442_870)"/>
<path d="M-28.8297 53.2871H-32.1426V56.5745H-28.8297V55.048H-22.3469L-14.2042 63.2488H-5.71079V64.7753H-2.58392L2.81836 70.2141H10.7465V71.7407H14.0594V68.4533H10.7465V69.9798H2.91853L-2.39072 64.6333V63.2417H3.0831V63.0145H-2.39072V61.4808H-5.5176L-11.6497 55.3178V54.3876H-12.7445V55.474H-11.8214L-5.71079 61.6228V63.0145H-11.1703L-19.3131 54.8137H-28.8297V53.2871ZM11.0899 68.8012H13.7016V71.3928H11.0899V68.8012ZM-22.0178 55.048H-19.4061L-11.4995 63.0145H-14.1112L-22.0178 55.048ZM-29.1803 56.2266H-31.792V53.635H-29.1803V56.2266Z" fill="url(#paint28_linear_1442_870)"/>
<path d="M9.17289 41.2666H8.07812V42.3529H9.17289V41.2666Z" fill="url(#paint29_linear_1442_870)"/>
<path d="M10.0885 43.4467L12.1635 45.5058H17.1794L25.7228 36.9855H27.1969V38.37L19.2115 46.3365V51.4629H17.6659V54.7503H20.9789V53.2238H32.3344L27.5117 58.0803H23.3258V57.7608H22.4529V58.6271H23.3258V58.3075H27.6119L32.6564 53.2238H36.1625C36.1768 53.1457 36.1983 53.0675 36.2126 52.9965H20.9717V51.47H19.4333V46.4359L27.3757 38.5191H30.5098V35.2246H27.1969V36.7583H16.8145V36.9855H22.6174L14.3029 45.2786H12.2637L10.253 43.2834V41.9202H13.523V42.2397H14.4031V41.3734H13.5302V41.6929H10.2602V40.1593H6.94727V43.4467H10.0885ZM22.9466 36.9855H25.4009L17.0864 45.2786H14.6321L22.9466 36.9855ZM7.29072 40.5072H9.90242V43.0988H7.29072V40.5072Z" fill="url(#paint30_linear_1442_870)"/>
<path d="M30.5102 47.9473V46.4208H36.6065C36.628 46.3427 36.6495 46.2716 36.6638 46.1935H30.5102V44.667H27.1973V47.9544H30.5102V47.9473ZM27.5479 45.0078H30.1596V47.5994H27.5479V45.0078Z" fill="url(#paint31_linear_1442_870)"/>
<path d="M12.9434 69.5537H11.8486V70.64H12.9434V69.5537Z" fill="url(#paint32_linear_1442_870)"/>
<path d="M4.4999 62.6953H3.62695V63.5615H4.4999V62.6953Z" fill="url(#paint33_linear_1442_870)"/>
<path d="M14.0457 61.4883V64.7757H10.7256V63.2491H5.05859V63.0148H10.7256V61.4883H14.0457Z" fill="url(#paint34_linear_1442_870)"/>
<path d="M26.7314 67.992L19.161 67.9991V67.2891H17.501V68.9363H19.161V68.2263H26.7314C26.7242 68.1482 26.7314 68.0701 26.7314 67.992Z" fill="url(#paint35_linear_1442_870)"/>
<path d="M98.2061 49.0479V50.688H99.8661V49.9851H105.676V49.7508H99.8661V49.0479H98.2061Z" fill="url(#paint36_linear_1442_870)"/>
<path d="M79.5743 62.9287H78.4795V64.015H79.5743V62.9287Z" fill="url(#paint37_linear_1442_870)"/>
<path d="M105.275 63.8948H108.424V60.6074H105.111V63.7386L103.1 65.7338L92.1168 65.7196L88.5105 69.3549L78.7364 69.362V68.936H77.6416V70.0224H78.7364V69.5963L90.2636 69.5892H90.3137L93.92 65.961L103.208 65.9752L105.275 63.8948ZM105.462 60.9553H108.073V63.5469H105.462V60.9553ZM90.2064 69.3407H88.8325L92.2098 65.9397H93.5837L90.2064 69.3407Z" fill="url(#paint38_linear_1442_870)"/>
<path d="M72.082 35.2668V38.5542H75.395V37.0276H88.8112L91.7663 40.0026V40.7055H92.4676L96.9611 45.2284H103.007V45.9384H104.667V44.2912H103.007V45.0012H97.0613L92.6464 40.5564V40.386H105.49L108.689 43.6096V46.755H112.002V45.2355H121.046L116.588 49.7584L107.816 49.7655V49.9927L118.799 49.9856H118.849L123.529 45.2284H130.563L139.049 53.7984V56.9296H142.362V53.6422H139.213L130.605 44.9941H128.23L123.457 40.1517H111.164V39.4417H109.504V41.089H111.164V40.3789H121.196L125.74 44.9941H112.002V43.4604H108.868L105.583 40.1588H92.6393V39.8393H91.9238L88.9042 36.8004H86.1494L79.8313 30.4883H76.9119V30.7155H77.8063L83.8955 36.8004H75.3878V35.2739H72.082V35.2668ZM139.399 53.9901H142.011V56.5817H139.399V53.9901ZM121.525 40.386H123.357L127.901 45.0012H126.062L121.525 40.386ZM123.207 45.2284L118.756 49.7513H116.917L121.375 45.2284H123.207ZM109.032 43.8084H111.644V46.4H109.032V43.8084ZM78.1426 30.7155H79.7454L85.8346 36.8004H84.2318L78.1426 30.7155Z" fill="url(#paint39_linear_1442_870)"/>
<path d="M76.2178 30.0547H75.123V31.141H76.2178V30.0547Z" fill="url(#paint40_linear_1442_870)"/>
<path d="M72.082 40.0234V43.3109H75.395V41.7843H77.9422L86.085 49.9851H95.0506V50.6951H96.7107V49.0479H95.2295L88.2745 42.047V41.1311H87.1726V42.2174H88.11L95.0435 49.2041V49.7579H88.3318L80.189 41.5571H75.3878V40.0305H72.082V40.0234ZM80.096 41.7843L88.0098 49.7508H86.1709L78.2571 41.7843H80.096ZM75.0443 42.9629H72.4326V40.3713H75.0443V42.9629Z" fill="url(#paint41_linear_1442_870)"/>
<path d="M73.2059 52.4209V53.1309H74.8874L78.644 56.9154H79.5742V58.0017H78.4794V57.0787L74.7873 53.3581H73.2059V54.0682H71.5459V52.4209H73.2059Z" fill="url(#paint42_linear_1442_870)"/>
<path d="M67.6172 58.0726H73.4775L77.37 61.9919V63.3623H73.2413V62.6522H71.5813V64.2924L73.2413 64.2995V63.5895H77.37V65.116H80.6829V63.5895H95.7234L103.158 56.0987H104.653V54.4514H102.993V55.1615H86.171L82.6005 51.5616V50.7025H81.7419L78.0354 46.9678H67.5672V47.195H77.9424L81.5129 50.7948V51.7888H82.5003L86.0852 55.3958H96.6393L92.7968 59.2654H84.1675V58.5554H82.5075V60.2027H84.1675V59.4926H94.9077L98.9791 55.3958H103.015V55.9354L95.6375 63.3623H80.6972V61.8357H77.5488L73.5919 57.8525H67.6387V57.4265H66.5439V58.5128H67.6387V58.0726H67.6172ZM94.8004 59.2583H93.1188L96.9613 55.3887H98.6428L94.8004 59.2583ZM77.7206 62.1765H80.3323V64.7681H77.7206V62.1765Z" fill="url(#paint43_linear_1442_870)"/>
<path d="M70.8232 30.2754H62.4658V71.5705H70.8232V30.2754Z" fill="url(#paint44_linear_1442_870)"/>
<path d="M45.2857 30.2754H37.5866L21.6016 71.5705H30.5386L34.7459 60.0468H48.4841L52.9491 71.5705H62.3154L45.2857 30.2754ZM37.422 52.6838C37.422 52.6838 41.293 42.3884 41.5148 41.6997C41.8225 42.5446 45.6721 52.6838 45.6721 52.6838H37.422Z" fill="url(#paint45_linear_1442_870)"/>
</g>
<defs>
<linearGradient id="paint0_linear_1442_870" x1="8.7298" y1="36.1909" x2="96.4195" y2="38.5474" gradientUnits="userSpaceOnUse">
<stop stop-color="#00FFFF"/>
<stop offset="1" stop-color="#4D9CFE"/>
</linearGradient>
<linearGradient id="paint1_linear_1442_870" x1="8.98558" y1="26.6895" x2="96.6755" y2="29.046" gradientUnits="userSpaceOnUse">
<stop stop-color="#00FFFF"/>
<stop offset="1" stop-color="#4D9CFE"/>
</linearGradient>
<linearGradient id="paint2_linear_1442_870" x1="8.35715" y1="50.0778" x2="96.0469" y2="52.4344" gradientUnits="userSpaceOnUse">
<stop stop-color="#00FFFF"/>
<stop offset="1" stop-color="#4D9CFE"/>
</linearGradient>
<linearGradient id="paint3_linear_1442_870" x1="8.76583" y1="34.8568" x2="96.4553" y2="37.2134" gradientUnits="userSpaceOnUse">
<stop stop-color="#00FFFF"/>
<stop offset="1" stop-color="#4D9CFE"/>
</linearGradient>
<linearGradient id="paint4_linear_1442_870" x1="8.63122" y1="39.8805" x2="96.3211" y2="42.237" gradientUnits="userSpaceOnUse">
<stop stop-color="#00FFFF"/>
<stop offset="1" stop-color="#4D9CFE"/>
</linearGradient>
<linearGradient id="paint5_linear_1442_870" x1="8.34799" y1="50.414" x2="96.038" y2="52.7705" gradientUnits="userSpaceOnUse">
<stop stop-color="#00FFFF"/>
<stop offset="1" stop-color="#4D9CFE"/>
</linearGradient>
<linearGradient id="paint6_linear_1442_870" x1="7.95391" y1="65.0826" x2="95.644" y2="67.4392" gradientUnits="userSpaceOnUse">
<stop stop-color="#00FFFF"/>
<stop offset="1" stop-color="#4D9CFE"/>
</linearGradient>
<linearGradient id="paint7_linear_1442_870" x1="8.60739" y1="40.7518" x2="96.2975" y2="43.1083" gradientUnits="userSpaceOnUse">
<stop stop-color="#00FFFF"/>
<stop offset="1" stop-color="#4D9CFE"/>
</linearGradient>
<linearGradient id="paint8_linear_1442_870" x1="8.46381" y1="46.0891" x2="96.1537" y2="48.4457" gradientUnits="userSpaceOnUse">
<stop stop-color="#00FFFF"/>
<stop offset="1" stop-color="#4D9CFE"/>
</linearGradient>
<linearGradient id="paint9_linear_1442_870" x1="8.48574" y1="45.3011" x2="96.1757" y2="47.6577" gradientUnits="userSpaceOnUse">
<stop stop-color="#00FFFF"/>
<stop offset="1" stop-color="#4D9CFE"/>
</linearGradient>
<linearGradient id="paint10_linear_1442_870" x1="7.7367" y1="73.1438" x2="95.4262" y2="75.5003" gradientUnits="userSpaceOnUse">
<stop stop-color="#00FFFF"/>
<stop offset="1" stop-color="#4D9CFE"/>
</linearGradient>
<linearGradient id="paint11_linear_1442_870" x1="7.95261" y1="65.1397" x2="95.6425" y2="67.4963" gradientUnits="userSpaceOnUse">
<stop stop-color="#00FFFF"/>
<stop offset="1" stop-color="#4D9CFE"/>
</linearGradient>
<linearGradient id="paint12_linear_1442_870" x1="7.80293" y1="70.6808" x2="95.4929" y2="73.0373" gradientUnits="userSpaceOnUse">
<stop stop-color="#00FFFF"/>
<stop offset="1" stop-color="#4D9CFE"/>
</linearGradient>
<linearGradient id="paint13_linear_1442_870" x1="7.9963" y1="63.5082" x2="95.686" y2="65.8647" gradientUnits="userSpaceOnUse">
<stop stop-color="#00FFFF"/>
<stop offset="1" stop-color="#4D9CFE"/>
</linearGradient>
<linearGradient id="paint14_linear_1442_870" x1="7.9515" y1="65.1854" x2="95.6415" y2="67.5419" gradientUnits="userSpaceOnUse">
<stop stop-color="#00FFFF"/>
<stop offset="1" stop-color="#4D9CFE"/>
</linearGradient>
<linearGradient id="paint15_linear_1442_870" x1="8.6321" y1="39.8637" x2="96.3221" y2="42.2202" gradientUnits="userSpaceOnUse">
<stop stop-color="#00FFFF"/>
<stop offset="1" stop-color="#4D9CFE"/>
</linearGradient>
<linearGradient id="paint16_linear_1442_870" x1="9.00981" y1="25.8264" x2="96.6991" y2="28.1829" gradientUnits="userSpaceOnUse">
<stop stop-color="#00FFFF"/>
<stop offset="1" stop-color="#4D9CFE"/>
</linearGradient>
<linearGradient id="paint17_linear_1442_870" x1="8.56132" y1="42.4984" x2="96.2512" y2="44.855" gradientUnits="userSpaceOnUse">
<stop stop-color="#00FFFF"/>
<stop offset="1" stop-color="#4D9CFE"/>
</linearGradient>
<linearGradient id="paint18_linear_1442_870" x1="8.24915" y1="54.108" x2="95.939" y2="56.4646" gradientUnits="userSpaceOnUse">
<stop stop-color="#00FFFF"/>
<stop offset="1" stop-color="#4D9CFE"/>
</linearGradient>
<linearGradient id="paint19_linear_1442_870" x1="8.22486" y1="55.006" x2="95.9146" y2="57.3625" gradientUnits="userSpaceOnUse">
<stop stop-color="#00FFFF"/>
<stop offset="1" stop-color="#4D9CFE"/>
</linearGradient>
<linearGradient id="paint20_linear_1442_870" x1="8.37354" y1="49.4589" x2="96.0635" y2="51.8155" gradientUnits="userSpaceOnUse">
<stop stop-color="#00FFFF"/>
<stop offset="1" stop-color="#4D9CFE"/>
</linearGradient>
<linearGradient id="paint21_linear_1442_870" x1="8.34657" y1="50.4686" x2="96.0365" y2="52.8251" gradientUnits="userSpaceOnUse">
<stop stop-color="#00FFFF"/>
<stop offset="1" stop-color="#4D9CFE"/>
</linearGradient>
<linearGradient id="paint22_linear_1442_870" x1="8.68544" y1="37.8433" x2="96.3752" y2="40.1998" gradientUnits="userSpaceOnUse">
<stop stop-color="#00FFFF"/>
<stop offset="1" stop-color="#4D9CFE"/>
</linearGradient>
<linearGradient id="paint23_linear_1442_870" x1="8.90725" y1="29.5814" x2="96.5974" y2="31.9379" gradientUnits="userSpaceOnUse">
<stop stop-color="#00FFFF"/>
<stop offset="1" stop-color="#4D9CFE"/>
</linearGradient>
<linearGradient id="paint24_linear_1442_870" x1="8.36111" y1="49.9182" x2="96.0511" y2="52.2747" gradientUnits="userSpaceOnUse">
<stop stop-color="#00FFFF"/>
<stop offset="1" stop-color="#4D9CFE"/>
</linearGradient>
<linearGradient id="paint25_linear_1442_870" x1="8.71682" y1="36.6837" x2="96.4068" y2="39.0403" gradientUnits="userSpaceOnUse">
<stop stop-color="#00FFFF"/>
<stop offset="1" stop-color="#4D9CFE"/>
</linearGradient>
<linearGradient id="paint26_linear_1442_870" x1="8.59916" y1="41.052" x2="96.289" y2="43.4086" gradientUnits="userSpaceOnUse">
<stop stop-color="#00FFFF"/>
<stop offset="1" stop-color="#4D9CFE"/>
</linearGradient>
<linearGradient id="paint27_linear_1442_870" x1="8.35342" y1="50.2118" x2="96.0432" y2="52.5684" gradientUnits="userSpaceOnUse">
<stop stop-color="#00FFFF"/>
<stop offset="1" stop-color="#4D9CFE"/>
</linearGradient>
<linearGradient id="paint28_linear_1442_870" x1="8.01014" y1="62.9667" x2="95.7" y2="65.3232" gradientUnits="userSpaceOnUse">
<stop stop-color="#00FFFF"/>
<stop offset="1" stop-color="#4D9CFE"/>
</linearGradient>
<linearGradient id="paint29_linear_1442_870" x1="8.57932" y1="41.8097" x2="96.2695" y2="44.1662" gradientUnits="userSpaceOnUse">
<stop stop-color="#00FFFF"/>
<stop offset="1" stop-color="#4D9CFE"/>
</linearGradient>
<linearGradient id="paint30_linear_1442_870" x1="8.45429" y1="46.4509" x2="96.1443" y2="48.8075" gradientUnits="userSpaceOnUse">
<stop stop-color="#00FFFF"/>
<stop offset="1" stop-color="#4D9CFE"/>
</linearGradient>
<linearGradient id="paint31_linear_1442_870" x1="8.47312" y1="45.7646" x2="96.163" y2="48.1212" gradientUnits="userSpaceOnUse">
<stop stop-color="#00FFFF"/>
<stop offset="1" stop-color="#4D9CFE"/>
</linearGradient>
<linearGradient id="paint32_linear_1442_870" x1="7.82203" y1="69.9762" x2="95.5118" y2="72.3328" gradientUnits="userSpaceOnUse">
<stop stop-color="#00FFFF"/>
<stop offset="1" stop-color="#4D9CFE"/>
</linearGradient>
<linearGradient id="paint33_linear_1442_870" x1="8.00295" y1="63.2361" x2="95.6924" y2="65.5926" gradientUnits="userSpaceOnUse">
<stop stop-color="#00FFFF"/>
<stop offset="1" stop-color="#4D9CFE"/>
</linearGradient>
<linearGradient id="paint34_linear_1442_870" x1="8.00945" y1="63.0162" x2="95.6993" y2="65.3728" gradientUnits="userSpaceOnUse">
<stop stop-color="#00FFFF"/>
<stop offset="1" stop-color="#4D9CFE"/>
</linearGradient>
<linearGradient id="paint35_linear_1442_870" x1="7.87923" y1="67.8345" x2="95.5692" y2="70.1911" gradientUnits="userSpaceOnUse">
<stop stop-color="#00FFFF"/>
<stop offset="1" stop-color="#4D9CFE"/>
</linearGradient>
<linearGradient id="paint36_linear_1442_870" x1="8.42611" y1="47.4705" x2="96.1163" y2="49.827" gradientUnits="userSpaceOnUse">
<stop stop-color="#00FFFF"/>
<stop offset="1" stop-color="#4D9CFE"/>
</linearGradient>
<linearGradient id="paint37_linear_1442_870" x1="8.04725" y1="61.5968" x2="95.7375" y2="63.9534" gradientUnits="userSpaceOnUse">
<stop stop-color="#00FFFF"/>
<stop offset="1" stop-color="#4D9CFE"/>
</linearGradient>
<linearGradient id="paint38_linear_1442_870" x1="8.00772" y1="63.0564" x2="95.6977" y2="65.4129" gradientUnits="userSpaceOnUse">
<stop stop-color="#00FFFF"/>
<stop offset="1" stop-color="#4D9CFE"/>
</linearGradient>
<linearGradient id="paint39_linear_1442_870" x1="8.59959" y1="41.0374" x2="96.2896" y2="43.3939" gradientUnits="userSpaceOnUse">
<stop stop-color="#00FFFF"/>
<stop offset="1" stop-color="#4D9CFE"/>
</linearGradient>
<linearGradient id="paint40_linear_1442_870" x1="8.92742" y1="28.8306" x2="96.6176" y2="31.1871" gradientUnits="userSpaceOnUse">
<stop stop-color="#00FFFF"/>
<stop offset="1" stop-color="#4D9CFE"/>
</linearGradient>
<linearGradient id="paint41_linear_1442_870" x1="8.53808" y1="43.3282" x2="96.228" y2="45.6847" gradientUnits="userSpaceOnUse">
<stop stop-color="#00FFFF"/>
<stop offset="1" stop-color="#4D9CFE"/>
</linearGradient>
<linearGradient id="paint42_linear_1442_870" x1="8.26717" y1="53.4234" x2="95.9574" y2="55.78" gradientUnits="userSpaceOnUse">
<stop stop-color="#00FFFF"/>
<stop offset="1" stop-color="#4D9CFE"/>
</linearGradient>
<linearGradient id="paint43_linear_1442_870" x1="8.24568" y1="54.2041" x2="95.9354" y2="56.5606" gradientUnits="userSpaceOnUse">
<stop stop-color="#00FFFF"/>
<stop offset="1" stop-color="#4D9CFE"/>
</linearGradient>
<linearGradient id="paint44_linear_1442_870" x1="8.3758" y1="49.381" x2="96.0658" y2="51.7376" gradientUnits="userSpaceOnUse">
<stop stop-color="#00FFFF"/>
<stop offset="1" stop-color="#4D9CFE"/>
</linearGradient>
<linearGradient id="paint45_linear_1442_870" x1="8.35211" y1="50.259" x2="96.042" y2="52.6156" gradientUnits="userSpaceOnUse">
<stop stop-color="#00FFFF"/>
<stop offset="1" stop-color="#4D9CFE"/>
</linearGradient>
</defs>
</svg>
