<svg width="180" height="180" viewBox="0 0 180 180" fill="none" xmlns="http://www.w3.org/2000/svg">
<g filter="url(#filter0_d_1442_946)">
<circle cx="90" cy="80" r="50" fill="#5B72EE"/>
</g>
<path d="M119 105.2C119 107 118.3 108.7 117 110C115.7 111.3 114 112 112.2 112H67.8C64.1 112 61 108.9 61 105.2C61 104.7 61.5 104.2 62 104.2H118C118.5 104.2 119 104.6 119 105.2Z" fill="white"/>
<path d="M111.5 102.2H68.5C67.9 102.2 67.5 101.8 67.5 101.2V82.5998C67.5 80.7998 68.9 79.2998 70.5 79.2998H109.4C111.1 79.2998 112.4 80.7998 112.4 82.5998V101.2C112.5 101.7 112.1 102.2 111.5 102.2ZM69.5 100.2H110.5V82.5998C110.5 81.8998 110 81.2998 109.5 81.2998H70.5C69.9 81.2998 69.5 81.8998 69.5 82.5998V100.2Z" fill="white"/>
<path d="M96.9995 90.3004L93.5995 92.7004L94.8995 96.6004C94.9995 97.0004 94.8995 97.5004 94.4995 97.7004C94.1995 98.0004 93.6995 98.0004 93.2995 97.7004L89.9995 95.3004L86.6995 97.7004C86.4995 97.8004 86.2995 97.9004 86.0995 97.9004C85.8995 97.9004 85.6995 97.8004 85.4995 97.7004C85.1995 97.4004 84.9995 97.0004 85.0995 96.6004L86.3995 92.7004L82.9995 90.3004C82.5995 90.0004 82.4995 89.6004 82.5995 89.2004C82.6995 88.8004 83.0995 88.5004 83.5995 88.5004H87.7995L89.0995 84.6004C89.1995 84.2004 89.5995 83.9004 90.0995 83.9004C90.4995 83.9004 90.8995 84.2004 91.0995 84.6004L92.3995 88.5004H96.5995C96.9995 88.5004 97.3995 88.8004 97.5995 89.2004C97.4995 89.5004 97.2995 90.0004 96.9995 90.3004Z" fill="white"/>
<path d="M82.7998 55.3C82.7998 51.3 85.9998 48 89.9998 48C93.9998 48 97.2998 51.3 97.2998 55.3C97.2998 59.3 93.9998 62.5 89.9998 62.5C85.9998 62.5 82.7998 59.3 82.7998 55.3Z" fill="white"/>
<path d="M106.4 73.5996V77.2996H73.5996V73.5996C73.5996 70.2996 76.2996 67.5996 79.5996 67.5996H86.8996C87.2996 67.5996 87.6996 67.8996 87.7996 68.1996L89.5996 72.0996L91.3996 68.1996C91.4996 67.8996 91.8996 67.5996 92.2996 67.5996H100.4C103.7 67.5996 106.4 70.2996 106.4 73.5996Z" fill="white"/>
<defs>
<filter id="filter0_d_1442_946" x="0" y="0" width="180" height="180" filterUnits="userSpaceOnUse" color-interpolation-filters="sRGB">
<feFlood flood-opacity="0" result="BackgroundImageFix"/>
<feColorMatrix in="SourceAlpha" type="matrix" values="0 0 0 0 0 0 0 0 0 0 0 0 0 0 0 0 0 0 127 0" result="hardAlpha"/>
<feOffset dy="10"/>
<feGaussianBlur stdDeviation="20"/>
<feColorMatrix type="matrix" values="0 0 0 0 0.212 0 0 0 0 0.238778 0 0 0 0 0.533333 0 0 0 0.06 0"/>
<feBlend mode="normal" in2="BackgroundImageFix" result="effect1_dropShadow_1442_946"/>
<feBlend mode="normal" in="SourceGraphic" in2="effect1_dropShadow_1442_946" result="shape"/>
</filter>
</defs>
</svg>
