<svg width="180" height="180" viewBox="0 0 180 180" fill="none" xmlns="http://www.w3.org/2000/svg">
<g filter="url(#filter0_d_1416_3111)">
<circle cx="90" cy="80" r="50" fill="#F48C06"/>
</g>
<path d="M99.7802 85.6C99.4019 85.9207 99.1562 86.3706 99.0909 86.8622C99.0256 87.3539 99.1453 87.8523 99.4268 88.2607C99.7083 88.6691 100.132 88.9583 100.614 89.0722C101.097 89.186 101.605 89.1165 102.039 88.877L108.967 84.877C109.392 84.6207 109.707 84.2156 109.85 83.7404C109.993 83.2651 109.954 82.7536 109.741 82.3054C109.528 81.8571 109.156 81.5041 108.697 81.315C108.238 81.1258 107.725 81.1141 107.258 81.282V81.276C106.508 79.0383 105.529 76.8836 104.338 74.846C103.166 72.7975 101.793 70.8713 100.238 69.096C100.616 68.7743 100.861 68.3237 100.925 67.8317C100.989 67.3397 100.868 66.8414 100.585 66.4337C100.302 66.0259 99.8782 65.7378 99.395 65.6253C98.9117 65.5128 98.4039 65.584 97.9702 65.825L91.0422 69.825C90.6121 70.0785 90.2924 70.4837 90.1459 70.961C89.9994 71.4383 90.0367 71.9532 90.2505 72.4044C90.4643 72.8555 90.8392 73.2104 91.3013 73.3993C91.7635 73.5881 92.2796 73.5973 92.7482 73.425C93.2869 75.0246 93.9468 76.5808 94.7222 78.08L62.5332 95.613C62.1893 95.7991 61.8862 96.0522 61.6419 96.3575C61.3975 96.6627 61.2168 97.0139 61.1104 97.3902C61.004 97.7664 60.9741 98.1602 61.0225 98.5482C61.0709 98.9362 61.1965 99.3106 61.392 99.6493C61.5876 99.9879 61.849 100.284 62.1608 100.52C62.4727 100.756 62.8287 100.927 63.2077 101.023C63.5868 101.119 63.9812 101.138 64.3678 101.079C64.7543 101.02 65.1251 100.884 65.4582 100.679L96.7312 81.566C97.6411 82.9879 98.6605 84.3366 99.7802 85.6Z" fill="white"/>
<path d="M96.1516 84.2637L80.6826 93.7177C83.1736 96.7457 86.3784 99.1069 90.0086 100.589C94.6416 98.6928 98.5602 95.3866 101.209 91.1387C101.154 91.1387 101.1 91.1487 101.045 91.1487C100.342 91.1478 99.6527 90.9626 99.0445 90.6116C98.4362 90.2607 97.9308 89.7562 97.5786 89.1487C97.2831 88.6405 97.104 88.0732 97.0544 87.4874C97.0048 86.9017 97.0858 86.3123 97.2916 85.7617C96.9076 85.2843 96.5276 84.785 96.1516 84.2637Z" fill="white"/>
<path d="M105.008 72.1241V63.0661C99.7639 62.2778 94.6919 60.605 90.0078 58.1191C85.3239 60.6053 80.2518 62.2781 75.0078 63.0661V78.0511C75.0127 80.7002 75.4481 83.3308 76.2968 85.8401L92.0968 77.2401C91.8301 76.6541 91.5875 76.0741 91.3688 75.5001C90.5578 75.363 89.8088 74.9788 89.2244 74.4C88.6399 73.8213 88.2483 73.0762 88.1033 72.2665C87.9582 71.4568 88.0666 70.6221 88.4138 69.8764C88.7609 69.1307 89.3298 68.5104 90.0428 68.1001L96.9708 64.1001C97.6829 63.6892 98.5043 63.5076 99.3232 63.5801C100.142 63.6526 100.919 63.9757 101.548 64.5055C102.176 65.0352 102.627 65.7458 102.837 66.5406C103.048 67.3353 103.008 68.1757 102.724 68.9471C103.539 69.966 104.302 71.0264 105.008 72.1241Z" fill="white"/>
<path d="M74.5208 86.808C73.5264 83.9952 73.0148 81.0344 73.0078 78.051V62.2C73.0079 61.9574 73.0963 61.7231 73.2563 61.5408C73.4164 61.3585 73.6373 61.2405 73.8778 61.209C79.3651 60.489 84.6717 58.7599 89.5298 56.109C89.6765 56.0292 89.8408 55.9874 90.0078 55.9874C90.1748 55.9874 90.3391 56.0292 90.4858 56.109C95.344 58.7596 100.651 60.4887 106.138 61.209C106.378 61.2405 106.599 61.3585 106.759 61.5408C106.919 61.7231 107.008 61.9574 107.008 62.2V75.583C107.619 76.7624 108.165 77.9738 108.646 79.212C109.224 79.3107 109.773 79.5352 110.255 79.8698C110.736 80.2044 111.139 80.6407 111.433 81.148C111.562 81.3736 111.67 81.611 111.755 81.857C111.915 80.5946 112 79.3236 112.008 78.051V56.591C104.381 56.585 96.9149 54.4025 90.4858 50.3L90.0078 50L89.5318 50.3C83.1022 54.403 75.635 56.5855 68.0078 56.591V78.051C68.013 81.8722 68.711 85.6608 70.0678 89.233L74.5208 86.808Z" fill="white"/>
<path d="M100.009 99.9996H103.139C107.016 96.0043 109.761 91.0496 111.092 85.6436C110.782 86.0341 110.402 86.3628 109.971 86.6126L104.165 89.9656C101.296 95.7448 96.3781 100.249 90.3696 102.6C90.1383 102.688 89.8828 102.688 89.6516 102.6C85.4629 100.973 81.7748 98.2744 78.9566 94.7746L74.6426 97.4106C78.5352 102.456 83.9078 106.158 90.0086 108C91.0299 107.688 92.034 107.323 93.0166 106.905C93.0367 106.017 93.3515 105.162 93.9113 104.473C94.471 103.784 95.2441 103.301 96.1086 103.1C96.3133 102.218 96.8102 101.433 97.5182 100.87C98.2263 100.307 99.104 100 100.009 99.9996Z" fill="white"/>
<path d="M117.008 105H116.008V104C116.008 103.47 115.797 102.961 115.422 102.586C115.047 102.211 114.538 102 114.008 102H100.008C99.4774 102 98.9687 102.211 98.5936 102.586C98.2185 102.961 98.0078 103.47 98.0078 104V105H97.0078C96.4774 105 95.9687 105.211 95.5936 105.586C95.2185 105.961 95.0078 106.47 95.0078 107V108H119.008V107C119.008 106.47 118.797 105.961 118.422 105.586C118.047 105.211 117.538 105 117.008 105Z" fill="white"/>
<defs>
<filter id="filter0_d_1416_3111" x="0" y="0" width="180" height="180" filterUnits="userSpaceOnUse" color-interpolation-filters="sRGB">
<feFlood flood-opacity="0" result="BackgroundImageFix"/>
<feColorMatrix in="SourceAlpha" type="matrix" values="0 0 0 0 0 0 0 0 0 0 0 0 0 0 0 0 0 0 127 0" result="hardAlpha"/>
<feOffset dy="10"/>
<feGaussianBlur stdDeviation="20"/>
<feColorMatrix type="matrix" values="0 0 0 0 0.212 0 0 0 0 0.238778 0 0 0 0 0.533333 0 0 0 0.06 0"/>
<feBlend mode="normal" in2="BackgroundImageFix" result="effect1_dropShadow_1416_3111"/>
<feBlend mode="normal" in="SourceGraphic" in2="effect1_dropShadow_1416_3111" result="shape"/>
</filter>
</defs>
</svg>
