<svg width="180" height="181" viewBox="0 0 180 181" fill="none" xmlns="http://www.w3.org/2000/svg">
<g filter="url(#filter0_d_1846_1668)">
<circle cx="90" cy="80.7285" r="50" fill="#EB7A02"/>
</g>
<path fill-rule="evenodd" clip-rule="evenodd" d="M73.1493 60.4433C72.7522 60.8494 72.1063 60.8542 71.7014 60.4558L67.7406 56.5486C67.3358 56.1502 67.331 55.5022 67.7281 55.0961C68.1252 54.69 68.7712 54.6852 69.176 55.0835L73.1368 58.9908C73.5416 59.3897 73.5464 60.0378 73.1493 60.4433Z" fill="white"/>
<path fill-rule="evenodd" clip-rule="evenodd" d="M68.1178 68.1156C67.9035 68.6424 67.3081 68.8938 66.7824 68.6788L61.638 66.5753C61.1129 66.3603 60.8623 65.763 61.0766 65.2356C61.2909 64.7089 61.8863 64.4574 62.412 64.6724L67.5564 66.776C68.0809 66.9916 68.3321 67.5888 68.1178 68.1156Z" fill="white"/>
<path fill-rule="evenodd" clip-rule="evenodd" d="M80.8713 55.1974C80.348 55.4172 79.7503 55.1718 79.5312 54.6468L77.3849 49.5069C77.1659 48.9819 77.4105 48.3823 77.9339 48.1625C78.4572 47.9427 79.0549 48.1882 79.274 48.7131L81.4202 53.853C81.6393 54.378 81.3946 54.9777 80.8713 55.1974Z" fill="white"/>
<path fill-rule="evenodd" clip-rule="evenodd" d="M90.0012 53.3566C89.4338 53.3566 88.9772 52.8979 88.9772 52.3293L88.9766 46.7558C88.9766 46.1866 89.4338 45.7285 90.0006 45.7285C90.5679 45.7285 91.0246 46.1872 91.0246 46.7558V52.3287C91.024 52.8979 90.5679 53.3566 90.0012 53.3566L90.0012 53.3566Z" fill="white"/>
<path fill-rule="evenodd" clip-rule="evenodd" d="M106.849 60.4433C107.246 60.8494 107.892 60.8542 108.297 60.4558L112.258 56.5486C112.663 56.1502 112.667 55.5022 112.27 55.0961C111.873 54.69 111.227 54.6852 110.822 55.0835L106.861 58.9908C106.457 59.3897 106.452 60.0378 106.849 60.4433Z" fill="white"/>
<path fill-rule="evenodd" clip-rule="evenodd" d="M111.881 68.1157C112.095 68.6425 112.69 68.8939 113.216 68.6789L118.361 66.5754C118.886 66.3604 119.136 65.7631 118.922 65.2358C118.708 64.709 118.112 64.4576 117.587 64.6726L112.442 66.7761C111.918 66.9917 111.668 67.5889 111.881 68.1157Z" fill="white"/>
<path fill-rule="evenodd" clip-rule="evenodd" d="M99.1292 55.1975C99.6525 55.4173 100.25 55.1718 100.469 54.6468L102.616 49.507C102.835 48.982 102.59 48.3823 102.067 48.1625C101.543 47.9428 100.946 48.1882 100.726 48.7132L98.5803 53.8531C98.3612 54.3781 98.6059 54.9777 99.1292 55.1975Z" fill="white"/>
<path fill-rule="evenodd" clip-rule="evenodd" d="M90.8527 57.0369C82.8649 56.7508 75.2719 61.3938 71.9371 68.9383C68.3942 76.9497 70.3137 86.2308 77.2793 91.5791C80.662 94.1771 80.5888 99.206 80.4649 102.619C80.4298 103.578 80.7715 104.491 81.3544 105.196C81.5907 105.482 81.8705 105.73 82.1706 105.958C83.1196 107.973 84.0292 109.515 85.4974 110.822C85.9487 113.641 88.4915 115.725 91.4854 115.729C94.4783 115.724 97.0215 113.641 97.4734 110.823C99.1546 109.385 100.321 107.214 100.994 105.402C101.886 104.675 102.407 103.608 102.445 102.696C102.524 100.82 102.752 99.6091 103.167 98.7776C103.582 97.9463 104.17 97.3956 105.261 96.7762C106.184 96.2518 107.012 95.7 107.661 94.9571C108.311 94.2141 108.741 93.2454 108.802 92.1398L109.104 86.5639L111.925 84.8582C112.522 84.4968 112.99 83.9032 113.149 83.1798C113.309 82.4566 113.129 81.6461 112.66 80.9593L108.2 74.4152C107.957 64.821 100.843 58.1548 92.4559 57.1594C91.9213 57.0961 91.3861 57.0561 90.8532 57.037L90.8527 57.0369ZM90.7771 59.1918C91.251 59.2091 91.7273 59.245 92.2035 59.3011C99.771 60.2 106.133 66.068 106.133 74.8781C106.133 75.0961 106.199 75.3093 106.322 75.4897L110.887 82.1824C111.214 82.6608 111.093 82.84 110.809 83.0108L107.505 85.0122C107.201 85.1967 107.006 85.5205 106.987 85.8758L106.651 92.0204C106.614 92.6851 106.426 93.0966 106.041 93.5368C105.656 93.9776 105.011 94.3807 104.2 94.8931C102.758 95.8057 101.751 96.8013 101.113 98.1021C99.288 99.1431 97.0484 99.9936 94.6026 100.391V85.0906H97.3954C99.1707 85.0906 100.779 84.031 101.463 82.3999C102.146 80.7694 101.764 78.8761 100.503 77.6314C99.2428 76.3873 97.3567 76.0176 95.7154 76.6895C94.0739 77.3614 92.9851 78.9538 92.9851 80.7215V83.4683H90.368L90.3674 80.7221C90.3674 78.9544 89.2785 77.362 87.6371 76.6901C85.9957 76.0182 84.1091 76.3873 82.8493 77.632C81.589 78.8761 81.2062 80.7688 81.8896 82.4005C82.5731 84.031 84.1829 85.0912 85.9571 85.0912H88.7499V100.391C86.45 100.016 84.3335 99.2393 82.5707 98.2801C82.3225 95.3147 81.4288 92.0508 78.5849 89.8661C72.4171 85.1294 70.7203 77.0068 73.9014 69.8154C76.8823 63.082 83.6656 58.9394 90.7777 59.1926L90.7771 59.1918ZM85.8137 77.9812C86.2215 77.9591 86.6377 78.0248 87.0306 78.1854C88.0796 78.6142 88.753 79.6146 88.753 80.722V83.4687H85.9602C84.8231 83.4687 83.8068 82.7944 83.3758 81.769C82.9454 80.7435 83.1788 79.5789 83.9777 78.7906C84.4772 78.2967 85.1345 78.0171 85.8138 77.9813L85.8137 77.9812ZM97.5433 77.9812C98.2226 78.0176 98.8793 78.2959 99.3794 78.7898C100.178 79.5788 100.411 80.7428 99.9813 81.7683C99.5508 82.7937 98.5352 83.468 97.3969 83.468H94.6041L94.6047 80.7218C94.6047 79.6145 95.2792 78.6148 96.3271 78.1853C96.72 78.0246 97.1356 77.9589 97.5434 77.981L97.5433 77.9812ZM90.37 85.0902H92.9872V100.589C92.5555 100.621 92.1186 100.638 91.6774 100.638C91.2362 100.638 90.801 100.62 90.3694 100.589L90.37 85.0902ZM82.6578 100.738C85.2362 101.952 88.3309 102.796 91.6786 102.794C94.9113 102.796 97.9089 102.007 100.434 100.858C100.37 101.405 100.32 101.979 100.296 102.618C100.283 102.984 100.127 103.297 99.6866 103.687C99.2466 104.077 98.5286 104.476 97.6153 104.796C95.7889 105.437 93.2211 105.786 90.6623 105.786C88.1059 105.786 85.9226 105.416 84.5022 104.831C83.9038 104.584 83.4401 104.244 83.0055 103.821C82.6804 103.503 82.5965 103.151 82.6131 102.696C82.634 102.115 82.6518 101.442 82.6578 100.737L82.6578 100.738ZM97.9033 106.966C97.4728 107.673 96.9531 108.357 96.3423 108.946C95.1207 110.121 93.5829 110.932 91.4843 110.932C89.3856 110.932 87.8473 110.121 86.6262 108.946C86.1321 108.471 85.7129 107.925 85.3373 107.363C86.8858 107.761 88.6849 107.948 90.6638 107.948C93.2405 107.949 95.8005 107.633 97.9033 106.966V106.966Z" fill="white"/>
<defs>
<filter id="filter0_d_1846_1668" x="0" y="0.728516" width="180" height="180" filterUnits="userSpaceOnUse" color-interpolation-filters="sRGB">
<feFlood flood-opacity="0" result="BackgroundImageFix"/>
<feColorMatrix in="SourceAlpha" type="matrix" values="0 0 0 0 0 0 0 0 0 0 0 0 0 0 0 0 0 0 127 0" result="hardAlpha"/>
<feOffset dy="10"/>
<feGaussianBlur stdDeviation="20"/>
<feColorMatrix type="matrix" values="0 0 0 0 0.212 0 0 0 0 0.238778 0 0 0 0 0.533333 0 0 0 0.06 0"/>
<feBlend mode="normal" in2="BackgroundImageFix" result="effect1_dropShadow_1846_1668"/>
<feBlend mode="normal" in="SourceGraphic" in2="effect1_dropShadow_1846_1668" result="shape"/>
</filter>
</defs>
</svg>
