<svg width="180" height="181" viewBox="0 0 180 181" fill="none" xmlns="http://www.w3.org/2000/svg">
<g filter="url(#filter0_d_1846_1558)">
<circle cx="90" cy="80.7285" r="50" fill="#423EB6"/>
</g>
<path d="M92.886 109.899C88.7511 109.899 83.4789 108.649 74.8412 106.228L71.6746 107.94C71.395 108.092 71.0468 107.986 70.897 107.704C70.7467 107.423 70.8519 107.072 71.1314 106.921L74.5011 105.099C74.6319 105.029 74.7843 105.012 74.9269 105.051C94.7666 110.619 95.993 109.881 107.729 102.82C110.746 101.005 114.499 98.746 119.417 96.0844C122.301 93.8474 122.616 92.5631 122.378 92.1953C121.833 91.3543 118.003 91.4333 112.311 94.5821C110.351 95.6401 106.283 97.8358 103.722 96.9865L85.8978 91.0635C85.7537 91.016 85.6342 90.9121 85.5654 90.7763C84.2653 88.1994 82.446 86.5493 80.157 85.8715C74.6679 84.2462 67.5818 88.4174 64.1762 90.4218C63.652 90.7307 63.1991 90.9973 62.8427 91.19C62.5632 91.3409 62.2149 91.2355 62.0646 90.9539C61.9144 90.6724 62.0195 90.3216 62.299 90.1702C62.6375 89.9873 63.0822 89.7254 63.5967 89.4227C67.1408 87.3361 74.5157 82.9945 80.4808 84.7607C83.0197 85.5124 85.0369 87.2874 86.4797 90.0379L104.082 95.8871C106.176 96.5819 110.091 94.4675 111.763 93.5649C117.252 90.5282 122.123 89.6851 123.34 91.5624C123.921 92.4587 123.827 94.1351 120.08 97.0303C120.056 97.0494 120.03 97.0665 120.002 97.0814C115.087 99.7404 111.334 101.999 108.319 103.813C102.298 107.436 98.982 109.432 94.5307 109.828C94.0009 109.875 93.4551 109.899 92.8878 109.899L92.886 109.899Z" fill="white"/>
<path d="M99.7119 103.435C99.2579 103.435 98.7681 103.397 98.2404 103.317C98.2086 103.312 98.1773 103.304 98.147 103.295L84.9065 98.9002C84.6054 98.8005 84.4413 98.4729 84.5408 98.1697C84.6398 97.8664 84.9645 97.7011 85.266 97.8013L98.4606 102.18C100.928 102.546 102.688 101.883 103.173 100.4C103.601 99.0892 102.889 97.1524 100.697 95.9869C100.417 95.8376 100.31 95.4879 100.457 95.2053C100.606 94.9227 100.953 94.8142 101.233 94.9635C103.665 96.2566 104.94 98.6951 104.264 100.762C103.816 102.131 102.392 103.435 99.712 103.435L99.7119 103.435Z" fill="white"/>
<path d="M67.0258 113.729C66.8212 113.729 66.6232 113.618 66.5191 113.424C66.3688 113.142 66.474 112.791 66.7535 112.641L72.0137 109.794L61.1792 89.475L55.8466 92.3618C55.5671 92.5132 55.2188 92.4078 55.0686 92.1262C54.9183 91.8447 55.0234 91.4939 55.3024 91.3425L61.1413 88.1814C61.2757 88.1085 61.4326 88.0925 61.5788 88.1369C61.7245 88.1814 61.8471 88.2821 61.9194 88.4175L73.2975 109.755C73.4478 110.037 73.3426 110.388 73.0631 110.538L67.2971 113.658C67.2104 113.705 67.1176 113.728 67.0258 113.728L67.0258 113.729Z" fill="white"/>
<path d="M66.8578 110.037C66.1172 110.037 65.4447 109.638 65.1022 108.996C64.856 108.535 64.8047 108.001 64.957 107.492C65.116 106.962 65.474 106.523 65.9654 106.258C66.2711 106.094 66.6137 106.007 66.9553 106.007C67.6949 106.007 68.3678 106.405 68.7109 107.047C68.9643 107.522 69.0115 108.07 68.8443 108.59C68.6796 109.103 68.3257 109.528 67.8477 109.785C67.5425 109.95 67.2004 110.037 66.8578 110.037V110.037ZM66.9553 107.163C66.8014 107.163 66.6465 107.203 66.507 107.278C66.2864 107.397 66.1264 107.591 66.0567 107.826C65.9931 108.039 66.0131 108.259 66.1136 108.448C66.2557 108.714 66.5403 108.879 66.8573 108.879C67.0112 108.879 67.1656 108.839 67.3045 108.764C67.5194 108.648 67.6779 108.46 67.7508 108.233C67.821 108.015 67.8026 107.788 67.699 107.594C67.5569 107.329 67.2722 107.163 66.9552 107.163H66.9553Z" fill="white"/>
<path d="M101.776 92.6423C101.726 92.6423 101.676 92.6356 101.626 92.6221C101.352 92.5477 101.173 92.2827 101.204 91.9986L103.031 75.5899L89.1224 78.6338C88.9116 78.6798 88.6936 78.6033 88.5567 78.436C88.4197 78.2686 88.3874 78.0376 88.4731 77.8388L98.6915 54.0344C98.8023 53.7766 99.0808 53.6366 99.3516 53.7012C99.623 53.7663 99.8086 54.0179 99.7922 54.2979L98.8787 69.9448L112.353 67.0487C112.565 67.0038 112.782 67.0808 112.919 67.2497C113.055 67.4181 113.086 67.6495 112.999 67.8484L102.301 92.2955C102.208 92.5099 101.999 92.6417 101.776 92.6417L101.776 92.6423ZM103.692 74.2749C103.832 74.2749 103.97 74.3271 104.077 74.4242C104.214 74.5492 104.283 74.7331 104.263 74.9181L102.765 88.367L111.495 68.4178L98.3808 71.2364C98.2054 71.2741 98.0223 71.2271 97.8869 71.1093C97.751 70.9915 97.6771 70.8169 97.6879 70.6366L98.4547 57.5042L89.9723 77.2642L103.57 74.2885C103.61 74.2792 103.651 74.2751 103.691 74.2751L103.692 74.2749Z" fill="white"/>
<path d="M121.744 84.7755C121.654 84.7755 121.563 84.7543 121.478 84.7099C121.197 84.5616 121.088 84.2124 121.236 83.9293C122.946 80.6349 123.85 76.9126 123.85 73.165C123.85 60.3286 113.482 49.8857 100.738 49.8857C87.995 49.8857 77.6289 60.3292 77.6289 73.165C77.6289 74.75 77.7873 76.3293 78.0992 77.86C78.1628 78.1731 77.9627 78.479 77.6519 78.543C77.3411 78.6076 77.0375 78.4056 76.9739 78.0925C76.6461 76.4854 76.4805 74.8275 76.4805 73.165C76.4805 59.6897 87.3627 48.7285 100.739 48.7285C114.116 48.7285 124.999 59.6912 124.999 73.165C124.999 77.0985 124.05 81.0062 122.255 84.4654C122.151 84.6623 121.951 84.7754 121.744 84.7754L121.744 84.7755Z" fill="white"/>
<defs>
<filter id="filter0_d_1846_1558" x="0" y="0.728516" width="180" height="180" filterUnits="userSpaceOnUse" color-interpolation-filters="sRGB">
<feFlood flood-opacity="0" result="BackgroundImageFix"/>
<feColorMatrix in="SourceAlpha" type="matrix" values="0 0 0 0 0 0 0 0 0 0 0 0 0 0 0 0 0 0 127 0" result="hardAlpha"/>
<feOffset dy="10"/>
<feGaussianBlur stdDeviation="20"/>
<feColorMatrix type="matrix" values="0 0 0 0 0.212 0 0 0 0 0.238778 0 0 0 0 0.533333 0 0 0 0.06 0"/>
<feBlend mode="normal" in2="BackgroundImageFix" result="effect1_dropShadow_1846_1558"/>
<feBlend mode="normal" in="SourceGraphic" in2="effect1_dropShadow_1846_1558" result="shape"/>
</filter>
</defs>
</svg>
