<svg width="390" height="389" viewBox="0 0 390 389" fill="none" xmlns="http://www.w3.org/2000/svg">
<circle cx="195.082" cy="194.683" r="194.228" fill="#E4E7F5"/>
<path d="M238.582 117.349C238.582 106.672 229.925 98.0156 219.248 98.0156C208.572 98.0156 199.915 106.672 199.915 117.349C199.915 123.41 199.915 164.43 199.915 170.516C199.915 181.192 208.572 189.849 219.248 189.849C229.925 189.849 238.582 181.192 238.582 170.516C238.582 164.43 238.582 123.41 238.582 117.349Z" fill="#33D375"/>
<path d="M286.916 170.516C286.916 181.193 278.259 189.849 267.582 189.849C261.807 189.849 248.249 189.849 248.249 189.849C248.249 189.849 248.249 175.417 248.249 170.516C248.249 159.839 256.906 151.183 267.582 151.183C278.259 151.183 286.916 159.839 286.916 170.516Z" fill="#33D375"/>
<path d="M117.748 146.35C107.072 146.35 98.415 155.006 98.415 165.683C98.415 176.36 107.072 185.016 117.748 185.016C123.809 185.016 164.83 185.016 170.915 185.016C181.592 185.016 190.248 176.36 190.248 165.683C190.248 155.006 181.592 146.35 170.915 146.35C164.83 146.35 123.809 146.35 117.748 146.35Z" fill="#40C4FF"/>
<path d="M170.915 98.0156C181.592 98.0156 190.249 106.672 190.249 117.349C190.249 123.125 190.249 136.682 190.249 136.682C190.249 136.682 175.816 136.682 170.915 136.682C160.239 136.682 151.582 128.026 151.582 117.349C151.582 106.672 160.239 98.0156 170.915 98.0156Z" fill="#40C4FF"/>
<path d="M146.749 267.212C146.749 277.874 155.406 286.516 166.082 286.516C176.759 286.516 185.416 277.874 185.416 267.212C185.416 261.161 185.416 220.198 185.416 214.123C185.416 203.46 176.759 194.818 166.082 194.818C155.406 194.818 146.749 203.46 146.749 214.123C146.749 220.198 146.749 261.161 146.749 267.212Z" fill="#E91E63"/>
<path d="M98.415 214.123C98.415 203.46 107.072 194.818 117.748 194.818C123.524 194.818 137.082 194.818 137.082 194.818C137.082 194.818 137.082 209.227 137.082 214.123C137.082 224.785 128.425 233.427 117.748 233.427C107.072 233.427 98.415 224.785 98.415 214.123Z" fill="#E91E63"/>
<path d="M267.582 238.182C278.259 238.182 286.915 229.526 286.915 218.849C286.915 208.172 278.259 199.516 267.582 199.516C261.521 199.516 220.501 199.516 214.415 199.516C203.739 199.516 195.082 208.172 195.082 218.849C195.082 229.526 203.739 238.182 214.415 238.182C220.496 238.182 261.521 238.182 267.582 238.182Z" fill="#FFC107"/>
<path d="M214.415 286.516C203.739 286.516 195.082 277.86 195.082 267.183C195.082 261.407 195.082 247.85 195.082 247.85C195.082 247.85 209.514 247.85 214.415 247.85C225.092 247.85 233.749 256.506 233.749 267.183C233.749 277.86 225.092 286.516 214.415 286.516Z" fill="#FFC107"/>
</svg>
