<svg width="390" height="389" viewBox="0 0 390 389" fill="none" xmlns="http://www.w3.org/2000/svg">
<circle cx="194.982" cy="194.228" r="194.228" fill="#E4E7F5"/>
<path d="M292.065 184.395V223.728C292.065 240.022 279.027 253.228 262.94 253.228C246.854 253.228 233.815 240.022 233.815 223.728V174.562H282.357C287.721 174.562 292.065 178.962 292.065 184.395ZM262.94 154.895C273.663 154.895 282.357 146.089 282.357 135.228C282.357 124.367 273.663 115.562 262.94 115.562C252.218 115.562 243.524 124.367 243.524 135.228C243.524 146.089 252.218 154.895 262.94 154.895Z" fill="#5059C9"/>
<path d="M248.378 184.395V238.478C248.378 266.715 224.879 289.395 196.604 287.537C170.804 285.845 151.295 262.978 151.295 236.792V174.562H238.67C244.034 174.562 248.378 178.962 248.378 184.395ZM199.837 159.812C215.923 159.812 228.962 146.605 228.962 130.312C228.962 114.018 215.923 100.812 199.837 100.812C183.75 100.812 170.712 114.018 170.712 130.312C170.712 146.605 183.75 159.812 199.837 159.812Z" fill="#7B83EB"/>
<path d="M199.837 159.812C215.922 159.812 228.962 146.604 228.962 130.312C228.962 114.019 215.922 100.812 199.837 100.812C183.752 100.812 170.712 114.019 170.712 130.312C170.712 146.604 183.752 159.812 199.837 159.812Z" fill="#7B83EB"/>
<path opacity="0.05" d="M204.691 240.047V174.562H151.295V236.792C151.295 244.334 152.96 251.581 155.877 258.145H186.818C196.691 258.145 204.691 250.042 204.691 240.047Z" fill="black"/>
<path opacity="0.07" d="M151.295 174.562V236.792C151.295 242.495 152.271 248.021 153.984 253.228H186.303C194.672 253.228 201.453 246.36 201.453 237.883V174.562H151.295Z" fill="black"/>
<path opacity="0.09" d="M198.22 174.562H151.295V236.792C151.295 240.735 151.785 244.58 152.625 248.312H185.789C192.652 248.312 198.215 242.677 198.215 235.725V174.562H198.22Z" fill="black"/>
<path d="M185.274 243.395H107.608C102.244 243.395 97.8994 238.994 97.8994 233.562V154.895C97.8994 149.462 102.244 145.062 107.608 145.062H185.274C190.638 145.062 194.983 149.462 194.983 154.895V233.562C194.983 238.994 190.638 243.395 185.274 243.395Z" fill="url(#paint0_linear_1482_59)"/>
<path d="M166.188 169.641H126.694V178.097H141.485V218.807H151.397V178.097H166.188V169.641Z" fill="white"/>
<defs>
<linearGradient id="paint0_linear_1482_59" x1="101.045" y1="148.248" x2="193.249" y2="239.28" gradientUnits="userSpaceOnUse">
<stop stop-color="#5961C3"/>
<stop offset="1" stop-color="#3A41AC"/>
</linearGradient>
</defs>
</svg>
