<?xml version="1.0" standalone="no"?>
<svg xmlns:xlink="http://www.w3.org/1999/xlink" id="wave" style="transform:rotate(180deg); transition: 0.3s" viewBox="0 0 1440 720" version="1.1" xmlns="http://www.w3.org/2000/svg"><defs><linearGradient id="sw-gradient-0" x1="0" x2="0" y1="1" y2="0"><stop stop-color="rgba(255, 255, 255, 1)" offset="0%"/><stop stop-color="rgba(255, 255, 255, 1)" offset="100%"/></linearGradient></defs><path style="transform:translate(0, 0px); opacity:1" fill="url(#sw-gradient-0)" d="M0,196L80,179.7C160,163,320,131,480,155.2C640,180,800,261,960,294C1120,327,1280,310,1440,277.7C1600,245,1760,196,1920,155.2C2080,114,2240,82,2400,114.3C2560,147,2720,245,2880,236.8C3040,229,3200,114,3360,130.7C3520,147,3680,294,3840,302.2C4000,310,4160,180,4320,147C4480,114,4640,180,4800,171.5C4960,163,5120,82,5280,73.5C5440,65,5600,131,5760,179.7C5920,229,6080,261,6240,245C6400,229,6560,163,6720,171.5C6880,180,7040,261,7200,261.3C7360,261,7520,180,7680,187.8C7840,196,8000,294,8160,334.8C8320,376,8480,359,8640,334.8C8800,310,8960,278,9120,228.7C9280,180,9440,114,9600,114.3C9760,114,9920,180,10080,196C10240,212,10400,180,10560,147C10720,114,10880,82,11040,130.7C11200,180,11360,310,11440,375.7L11520,441L11520,490L11440,490C11360,490,11200,490,11040,490C10880,490,10720,490,10560,490C10400,490,10240,490,10080,490C9920,490,9760,490,9600,490C9440,490,9280,490,9120,490C8960,490,8800,490,8640,490C8480,490,8320,490,8160,490C8000,490,7840,490,7680,490C7520,490,7360,490,7200,490C7040,490,6880,490,6720,490C6560,490,6400,490,6240,490C6080,490,5920,490,5760,490C5600,490,5440,490,5280,490C5120,490,4960,490,4800,490C4640,490,4480,490,4320,490C4160,490,4000,490,3840,490C3680,490,3520,490,3360,490C3200,490,3040,490,2880,490C2720,490,2560,490,2400,490C2240,490,2080,490,1920,490C1760,490,1600,490,1440,490C1280,490,1120,490,960,490C800,490,640,490,480,490C320,490,160,490,80,490L0,490Z"/>
</svg>