<svg width="607" height="609" viewBox="0 0 607 609" fill="none" xmlns="http://www.w3.org/2000/svg">
<g clip-path="url(#clip0_1443_1258)">
<path d="M550.755 116.589C546.019 110.667 462.392 8.58681 328.81 17.2477C309.938 18.4321 195.747 28.1293 152.157 105.781C118.262 166.259 154.155 219.927 112.786 261.085C76.7445 296.986 32.4147 273.225 10.2128 302.242C-23.5341 346.435 30.1945 465.91 112.86 532.459C204.405 606.261 367.145 646.53 488.146 559.922C608.036 474.127 607.074 321.341 606.926 297.135C606.778 264.49 606.334 186.764 550.755 116.589Z" fill="#F4F7FA"/>
<path d="M552.087 201.347C561.042 205.937 572.365 201.718 577.323 192.02C582.282 182.323 578.951 170.701 569.997 166.112C569.553 165.89 569.035 165.668 568.591 165.52C570.293 160.116 571.551 154.712 572.365 149.308C572.883 149.308 573.401 149.308 573.919 149.234C584.132 148.346 592.273 138.871 592.051 128.211C591.829 117.478 583.318 109.557 573.105 110.445C572.587 110.519 572.069 110.593 571.551 110.667C570.515 105.338 569.035 100.156 567.184 95.1963C567.629 94.9002 568.147 94.6041 568.591 94.308C577.323 88.1639 580.136 76.0239 574.881 67.215C569.553 58.4061 558.156 56.2593 549.423 62.4034C548.979 62.6995 548.535 63.0696 548.165 63.4397C544.687 59.5904 540.912 56.0373 536.768 52.8542C537.064 52.4101 537.36 51.8919 537.582 51.3737C542.54 41.6765 548.979 31.017 539.95 26.5755C519.006 16.3601 510.052 25.095 505.093 34.8662C504.871 35.3844 504.649 35.9026 504.427 36.4208C499.395 35.0143 494.288 34.052 489.182 33.5338C489.182 33.0156 489.256 32.4234 489.256 31.9053C489.034 21.1717 492.216 15.3978 481.929 15.1757C459.505 14.7316 451.957 24.5028 452.179 35.1623C452.179 35.7545 452.253 36.2727 452.327 36.7909C447.22 38.2714 442.114 40.122 437.229 42.4167C437.007 41.9726 436.785 41.4544 436.489 41.0103C431.161 32.2014 419.764 30.0546 411.031 36.1987C402.298 42.3427 399.486 54.4828 404.741 63.2917C405.037 63.7358 405.333 64.18 405.629 64.5501C401.78 68.3994 398.08 72.6188 394.75 77.2083C394.306 76.9122 393.862 76.6901 393.418 76.468C384.463 71.8785 373.14 76.0979 368.181 85.7951C363.223 95.4924 366.553 107.114 375.508 111.704C375.952 111.926 376.47 112.148 376.914 112.296C375.212 117.7 373.954 123.104 373.14 128.507C372.622 128.507 372.104 128.507 371.586 128.581C361.373 129.47 353.232 138.945 353.454 149.604C353.676 160.338 362.187 168.258 372.4 167.37C372.918 167.296 373.436 167.222 373.954 167.148C374.99 172.478 376.47 177.66 378.32 182.619C377.876 182.915 377.358 183.211 376.914 183.508C368.181 189.652 365.369 201.792 370.624 210.601C375.952 219.409 393.492 223.481 402.298 217.337C402.742 217.041 396.97 214.746 397.414 214.376C400.892 218.225 404.667 221.778 408.811 224.961C408.515 225.405 408.219 225.924 407.997 226.442C403.038 236.139 406.369 247.761 415.323 252.35C424.278 256.94 435.601 252.72 440.56 243.023C440.782 242.505 441.004 241.987 441.226 241.469C446.258 242.875 451.365 243.838 456.471 244.356C456.471 244.874 456.397 245.466 456.397 245.984C456.619 256.718 465.13 264.638 475.343 263.75C485.555 262.862 493.696 253.387 493.474 242.727C493.474 242.135 493.4 241.617 493.326 241.099C498.433 239.618 503.539 237.768 508.423 235.473C508.645 235.917 508.867 236.435 509.163 236.879C514.492 245.688 525.889 247.835 534.622 241.691C543.354 235.547 546.167 223.407 540.912 214.598C540.616 214.154 540.32 213.71 540.024 213.339C543.872 209.49 547.573 205.271 550.903 200.681C551.125 200.829 551.569 201.125 552.087 201.347ZM440.116 202.754C407.479 186.172 395.564 144.126 413.547 108.817C431.457 73.5071 472.456 58.258 505.093 74.8395C537.73 91.421 549.645 133.467 531.661 168.777C513.678 204.16 472.678 219.335 440.116 202.754Z" fill="url(#paint0_linear_1443_1258)"/>
<path d="M573.845 149.234C584.058 148.346 592.199 138.871 591.977 128.211C591.755 117.478 583.244 109.557 573.031 110.445C572.513 110.519 571.995 110.593 571.477 110.667C570.441 105.338 568.961 100.156 567.111 95.1962C567.555 94.9001 568.073 94.604 568.517 94.3079C577.249 88.0899 588.128 73.285 581.912 65.0682C570.145 49.449 558.008 56.1853 549.275 62.3293C548.831 62.6254 548.387 62.9955 548.017 63.3657C544.539 59.5164 540.764 55.9632 536.62 52.7802C536.916 52.336 537.212 51.8178 537.434 51.2997C540.098 45.9699 540.394 40.196 538.618 35.2363C530.181 50.1153 521.819 65.1423 513.604 80.1692C539.654 99.2676 547.943 136.798 531.662 168.851C517.896 196.018 490.514 211.267 463.724 209.342C462.54 212.451 461.355 215.56 460.097 218.595C456.619 226.886 452.697 235.029 448.774 243.171C451.291 243.615 453.733 243.986 456.249 244.282C456.249 244.8 456.175 245.392 456.175 245.91C456.397 256.644 462.91 265.749 481.485 264.712C491.772 264.194 493.548 253.313 493.326 242.579C493.326 241.987 493.252 241.469 493.178 240.951C498.285 239.47 503.391 237.619 508.275 235.325C508.498 235.769 508.72 236.287 509.016 236.731C514.344 245.54 532.772 249.315 541.504 243.171C550.237 237.027 546.093 223.333 540.764 214.524C540.468 214.08 540.172 213.635 539.876 213.265C543.725 209.416 547.425 205.197 550.755 200.607C551.199 200.903 551.643 201.125 552.087 201.347C561.042 205.937 572.365 201.718 577.323 192.02C582.282 182.323 578.952 170.701 569.997 166.112C569.553 165.89 569.035 165.668 568.591 165.52C570.293 160.116 571.551 154.712 572.365 149.308C572.809 149.234 573.327 149.234 573.845 149.234Z" fill="url(#paint1_linear_1443_1258)"/>
<path d="M561.708 202.458C570.663 207.047 581.986 202.828 586.944 193.13C591.903 183.433 588.572 171.811 579.618 167.222C579.174 167 578.655 166.778 578.211 166.63C579.914 161.226 581.172 155.822 581.986 150.418C582.504 150.418 583.022 150.418 583.54 150.344C593.753 149.456 601.893 139.981 601.671 129.321C601.449 118.588 592.939 110.667 582.726 111.555C582.208 111.629 581.69 111.703 581.172 111.777C580.136 106.448 578.655 101.266 576.805 96.3063C577.249 96.0102 577.767 95.7141 578.211 95.418C586.944 89.274 589.756 77.1339 584.502 68.325C579.174 59.5161 567.777 57.3694 559.044 63.5134C558.6 63.8095 558.156 64.1796 557.786 64.5498C554.307 60.7005 550.533 57.1473 546.389 53.9643C546.685 53.5201 546.981 53.0019 547.203 52.4838C552.161 42.7866 548.831 31.1647 539.876 26.5752C530.921 21.9857 519.598 26.2051 514.64 35.9023C514.418 36.4204 514.196 36.9386 513.974 37.4568C508.942 36.0503 503.835 35.088 498.729 34.5698C498.729 34.0517 498.803 33.4595 498.803 32.9413C498.581 22.2077 490.07 14.2871 479.857 15.1754C469.644 16.0637 461.503 25.5388 461.725 36.1984C461.725 36.7906 461.799 37.3087 461.873 37.8269C456.767 39.3074 451.661 41.158 446.776 43.4528C446.554 43.0086 446.332 42.4905 446.036 42.0463C440.708 33.2374 429.311 31.0907 420.578 37.2347C411.845 43.3787 409.033 55.5188 414.287 64.3277C414.583 64.7718 414.879 65.216 415.175 65.5861C411.327 69.4354 407.627 73.6548 404.297 78.2443C403.853 77.9482 403.408 77.7261 402.964 77.5041C394.01 72.9145 382.687 77.1339 377.728 86.8312C372.77 96.5284 376.1 108.15 385.055 112.74C385.499 112.962 386.017 113.184 386.461 113.332C384.759 118.736 383.501 124.14 382.687 129.543C382.169 129.543 381.651 129.543 381.133 129.617C370.92 130.506 362.779 139.981 363.001 150.64C363.223 161.374 371.734 169.295 381.947 168.406C382.465 168.332 382.983 168.258 383.501 168.184C384.537 173.514 386.017 178.696 387.867 183.655C387.423 183.951 386.905 184.247 386.461 184.544C377.728 190.688 374.916 202.828 380.17 211.637C385.499 220.445 396.896 222.592 405.629 216.448C406.073 216.152 406.517 215.782 406.887 215.412C410.365 219.261 414.139 222.814 418.284 225.997C417.988 226.441 417.692 226.96 417.47 227.478C412.511 237.175 415.842 248.797 424.796 253.386C433.751 257.976 445.074 253.757 450.032 244.059C450.254 243.541 450.477 243.023 450.699 242.505C455.731 243.911 460.837 244.874 465.944 245.392C465.944 245.91 465.87 246.502 465.87 247.02C466.092 257.754 474.603 265.674 484.815 264.786C495.028 263.898 503.169 254.423 502.947 243.763C502.947 243.171 502.873 242.653 502.799 242.135C507.905 240.654 513.012 238.804 517.896 236.509C518.118 236.953 518.34 237.471 518.636 237.915C523.965 246.724 535.362 248.871 544.095 242.727C552.827 236.583 555.64 224.443 550.385 215.634C550.089 215.19 549.793 214.746 549.497 214.375C553.345 210.526 557.046 206.307 560.376 201.717C560.82 201.939 561.264 202.235 561.708 202.458ZM449.736 203.864C417.1 187.282 405.185 145.237 423.168 109.927C441.078 74.6171 482.077 59.368 514.714 75.9495C547.351 92.531 559.266 134.577 541.282 169.887C523.299 205.196 482.373 220.445 449.736 203.864Z" fill="url(#paint2_linear_1443_1258)"/>
<path d="M171.324 453.475C167.698 462.062 160.89 474.054 153.711 487.822H307.274C283.814 444.444 253.101 399.733 277.006 315.049C288.254 275.298 322.889 203.272 298.393 162.114C270.419 115.257 232.602 142.72 216.616 105.633C191.676 47.6722 134.247 13.1028 83.4049 51.0774C33.2286 88.5338 50.6941 196.462 139.576 304.389C194.562 389.073 190.344 408.542 171.324 453.475Z" fill="url(#paint3_linear_1443_1258)"/>
<path d="M233.12 478.939C231.343 459.026 228.679 440.298 225.793 420.533L224.831 413.945C222.907 404.47 221.205 395.143 219.576 386.038C215.95 365.607 212.472 346.287 206.033 326.152C205.811 324.968 205.589 323.783 205.441 322.525C204.775 318.084 204.109 313.568 200.927 309.571L200.853 309.423C174.729 201.865 126.032 97.9345 56.0225 0.518172L56.7625 0C126.773 97.4903 175.543 201.495 201.741 309.127C205.071 313.272 205.737 318.158 206.403 322.451C206.551 323.709 206.773 324.82 206.995 325.93C213.434 346.065 216.912 365.385 220.539 385.89C222.167 394.921 223.795 404.322 225.793 413.797L226.755 420.459C229.567 440.298 232.306 458.952 234.082 478.939H233.12Z" fill="#FCFDFE"/>
<path d="M218.17 382.411C209.734 330.964 228.087 265.823 244.887 220.223C263.166 170.849 283.666 133.096 283.888 132.652L284.702 133.096C284.48 133.467 263.98 171.145 245.775 220.519C228.975 266.045 210.696 331.038 219.058 382.263L218.17 382.411Z" fill="#FCFDFE"/>
<path d="M151.121 163.372C139.132 109.334 139.058 49.8186 139.058 30.2761C139.058 26.5008 139.058 24.058 138.984 23.6139L139.872 23.4658C139.946 23.984 139.946 25.9086 139.946 30.2761C139.946 49.8186 140.02 109.26 152.009 163.224L151.121 163.372Z" fill="#FCFDFE"/>
<path d="M183.387 247.908C158.151 203.493 55.7265 175.734 54.6904 175.438L54.9124 174.55C55.9485 174.846 158.743 202.679 184.202 247.464L183.387 247.908Z" fill="#FCFDFE"/>
<path d="M144.978 282.033C145.792 352.579 179.835 329.335 211.214 336.293C247.403 388.703 250.807 437.337 196.783 479.309L136.541 470.278C114.191 469.241 87.9192 462.431 89.3994 432.599C91.1015 398.918 99.0202 377.525 61.0549 361.018C23.0897 344.51 6.73427 314.308 22.1276 279.961C38.261 243.911 0.295717 195.203 28.0481 170.997C76.4482 128.877 144.09 208.527 144.978 282.033Z" fill="url(#paint4_linear_1443_1258)"/>
<path d="M159.928 408.32C134.766 380.783 113.008 350.21 95.1723 317.418C77.1887 284.329 63.4975 249.463 54.4688 213.709C49.2883 193.204 45.588 172.329 43.5898 151.677L44.4779 151.603C46.4761 172.255 50.1764 193.056 55.3569 213.561C64.3856 249.241 78.0768 284.032 95.9863 317.047C113.748 349.766 135.506 380.338 160.668 407.802L159.928 408.32Z" fill="#FCFDFE"/>
<path d="M95.0978 447.109L94.6538 446.295C105.829 440.595 119.076 436.153 133.877 433.044C140.982 431.564 148.012 430.601 154.747 430.157L154.821 431.046C148.086 431.49 141.13 432.452 134.025 433.933C119.298 436.968 106.199 441.409 95.0978 447.109Z" fill="#FCFDFE"/>
<path d="M106.865 337.552C75.7824 307.424 9.5467 310.163 8.88065 310.237L8.80664 309.349C9.4727 309.349 76.0784 306.536 107.457 336.886L106.865 337.552Z" fill="#FCFDFE"/>
<path d="M68.5299 258.938C59.2052 210.97 95.1722 155.452 95.5423 154.859L96.2823 155.378C95.9123 155.896 60.1672 211.118 69.344 258.79L68.5299 258.938Z" fill="#FCFDFE"/>
<path d="M523.225 155.378C495.028 144.57 464.242 150.048 439.45 167.222C430.347 121.845 401.558 83.5001 358.635 66.9927C288.329 40.0477 206.774 82.0937 176.505 161.004C168.734 181.361 165.108 202.161 165.182 222.222C161.556 219.927 157.708 218.003 153.563 216.448C115.154 201.717 70.6021 224.739 54.0987 267.821C37.5952 310.904 54.7647 359.39 93.7661 372.566C114.562 379.598 147.569 379.746 147.569 379.746C147.569 379.746 468.016 355.91 477.933 355.984C517.378 356.281 556.306 329.336 572.809 286.253C593.383 232.364 571.255 173.81 523.225 155.378Z" fill="#D8DEE8"/>
<path d="M532.771 155.452C504.575 144.645 473.788 150.122 448.996 167.296C439.893 121.919 411.105 83.5744 368.181 67.0669C297.875 40.1219 216.32 82.1679 186.052 161.078C178.281 181.435 174.655 202.236 174.729 222.296C171.102 220.002 167.254 218.077 163.11 216.522C124.701 201.866 80.1487 224.813 63.6453 267.97C47.1419 311.052 64.8294 357.983 103.313 372.714C111.453 375.823 157.115 379.895 157.115 379.895C157.115 379.895 477.563 356.059 487.48 356.133C526.925 356.429 565.852 329.484 582.356 286.402C602.929 232.438 580.728 173.81 532.771 155.452Z" fill="white"/>
<path d="M600.339 557.109L97.8359 552.741V565.696C97.8359 569.175 100.056 572.21 103.016 572.728L245.109 598.266C246.811 598.562 248.513 598.636 250.215 598.488L594.937 569.397C598.045 569.101 600.413 566.14 600.413 562.512V557.109H600.339Z" fill="url(#paint5_linear_1443_1258)"/>
<path d="M438.561 536.086L103.313 559.773C97.318 560.218 92.4336 555.702 92.4336 549.706V310.015C92.4336 304.019 97.318 299.207 103.313 299.207H438.561C443.52 299.207 447.516 303.574 447.516 308.978V525.648C447.516 531.052 443.52 535.715 438.561 536.086Z" fill="url(#paint6_linear_1443_1258)"/>
<path d="M443.89 536.086L108.641 559.773C102.647 560.218 97.7622 555.702 97.7622 549.706V310.015C97.7622 304.019 102.647 299.207 108.641 299.207H443.89C448.848 299.207 452.845 303.574 452.845 308.978V525.648C452.845 531.052 448.848 535.715 443.89 536.086Z" fill="url(#paint7_linear_1443_1258)"/>
<path d="M433.455 520.836L121.222 541.415C116.338 541.711 112.341 538.01 112.341 533.124V323.264C112.341 318.379 116.338 314.381 121.222 314.381L433.455 313.123C437.525 313.123 440.855 316.676 440.855 321.118V512.249C440.855 516.691 437.525 520.54 433.455 520.836Z" fill="url(#paint8_linear_1443_1258)"/>
<path d="M288.106 305.721C288.106 307.942 286.404 309.792 284.258 309.792C282.112 309.792 280.41 308.016 280.41 305.795C280.41 303.574 282.112 301.724 284.258 301.724C286.404 301.724 288.106 303.5 288.106 305.721Z" fill="white"/>
<path d="M435.527 534.975L97.7622 559.921L245.035 586.348C246.737 586.644 248.439 586.718 250.141 586.57L600.339 557.034L440.93 535.197C439.153 534.901 437.303 534.901 435.527 534.975Z" fill="url(#paint9_linear_1443_1258)"/>
<path d="M284.258 490.339C320.021 490.339 349.014 460.975 349.014 424.753C349.014 388.531 320.021 359.167 284.258 359.167C248.494 359.167 219.502 388.531 219.502 424.753C219.502 460.975 248.494 490.339 284.258 490.339Z" fill="white"/>
<path d="M281.964 460.062C279.152 460.062 276.562 458.582 275.081 456.139L250.733 415.055C248.439 411.206 249.697 406.247 253.472 403.952C257.246 401.657 262.204 402.915 264.499 406.765L281.372 435.264L303.722 390.775C305.72 386.778 310.53 385.224 314.527 387.222C318.449 389.221 320.077 394.181 318.005 398.104L289.069 455.621C287.737 458.286 285.146 459.914 282.186 460.062C282.186 460.062 282.112 460.062 281.964 460.062Z" fill="url(#paint10_linear_1443_1258)"/>
<path opacity="0.3" d="M147.05 560.587L428.274 539.49L515.306 551.334L236.524 573.912L147.05 560.587Z" fill="url(#paint11_linear_1443_1258)"/>
<path opacity="0.48" d="M363.149 470.352C337.321 456.435 316.969 474.053 297.357 456.657C285.442 446.146 291.289 438.225 276.71 422.532C260.502 405.062 249.993 410.984 233.638 395.217C213.064 375.378 223.351 359.907 205.589 345.62C184.054 328.298 160.89 344.362 140.39 327.78C131.583 320.6 126.699 310.236 124.182 299.133H104.127C100.648 299.133 97.7622 301.946 97.7622 305.499V553.999C97.7622 557.479 100.648 560.143 104.127 559.921L445.814 535.641C447.516 535.493 448.996 534.531 449.958 533.124C424.944 532.236 409.551 523.797 399.782 515.136C380.54 498.185 383.871 481.455 363.149 470.352Z" fill="white"/>
<path d="M366.997 454.141L366.701 453.771C372.77 455.547 382.465 457.028 388.163 457.842C388.311 457.916 388.533 457.99 388.681 458.138C393.713 461.025 399.708 463.764 406.369 465.985C413.029 468.206 420.504 469.686 428.348 470.352C429.311 470.5 430.347 470.426 431.309 470.5C431.827 470.5 432.271 470.574 432.789 470.574L433.529 470.648C433.751 470.648 434.047 470.648 434.269 470.648C435.305 470.648 436.267 470.648 437.303 470.648H438.043L438.783 470.574C439.301 470.574 439.819 470.5 440.337 470.5C442.336 470.426 444.408 470.204 446.48 469.982C447.516 469.834 448.552 469.686 449.588 469.538C450.106 469.464 450.624 469.39 451.142 469.316C451.66 469.242 452.179 469.094 452.697 469.02C460.837 467.465 468.978 464.653 476.453 460.729C477.415 460.211 478.303 459.767 479.265 459.249C480.153 458.731 481.041 458.138 482.003 457.62L483.335 456.806L484.667 455.918L485.999 455.029C486.443 454.733 486.887 454.437 487.258 454.141C488.072 453.475 488.96 452.883 489.774 452.216C489.996 452.068 490.218 451.92 490.366 451.772L490.884 451.328L491.92 450.44L492.956 449.551C493.03 449.477 493.104 449.403 493.252 449.329L494.288 448.367L495.694 447.109L496.73 446.146L496.878 445.998L496.952 445.924C496.952 445.924 497.322 445.628 496.656 446.146L498.802 443.926C499.173 443.556 499.543 443.185 499.839 442.815L500.875 441.631L501.911 440.446L502.429 439.854C502.577 439.632 502.725 439.484 502.873 439.262C503.539 438.448 504.131 437.634 504.723 436.819C505.019 436.449 505.315 436.005 505.611 435.561L506.499 434.302L507.387 433.044L508.201 431.786C508.719 430.897 509.311 430.083 509.755 429.269C510.273 428.38 510.718 427.566 511.236 426.678C515.01 419.72 517.6 412.539 519.08 405.433L519.376 404.1L519.598 402.768C519.746 401.88 519.894 400.991 520.042 400.103V400.029C520.264 398.327 520.486 396.624 520.56 394.921C520.56 394.477 520.634 394.033 520.634 393.663L520.708 392.997V392.331C520.708 391.516 520.708 390.628 520.782 389.814C520.782 389.592 520.782 389.37 520.782 389.221V388.629C520.782 388.185 520.782 387.815 520.782 387.371C520.708 386.557 520.782 385.742 520.708 384.928C520.264 378.488 519.154 372.566 517.526 367.458C515.898 362.277 513.826 357.835 511.754 354.06C511.458 353.616 511.236 353.172 510.94 352.727C510.644 352.283 510.422 351.839 510.199 351.395C509.681 350.581 509.163 349.766 508.645 349.026C508.127 348.286 507.609 347.546 507.091 346.879C506.869 346.509 506.647 346.213 506.351 345.917C506.129 345.621 505.833 345.325 505.611 345.029C505.167 344.437 504.723 343.844 504.279 343.326C504.205 343.178 504.057 343.104 503.983 343.03C503.909 342.956 503.835 342.882 503.687 342.808C503.539 342.66 503.539 342.66 503.391 342.512C503.243 342.364 503.169 342.29 503.169 342.364L475.268 363.905L477.711 332.001L483.853 258.494L587.98 276.926L558.378 299.8C558.304 299.8 558.674 300.392 558.97 300.836C559.488 301.798 560.08 302.687 560.672 303.871C560.968 304.463 561.264 304.982 561.634 305.574C561.782 305.87 561.93 306.166 562.152 306.462C562.3 306.758 562.522 307.128 562.67 307.35C563.262 308.535 563.854 309.793 564.52 311.126C564.816 311.792 565.186 312.458 565.482 313.198C565.778 313.939 566.148 314.605 566.444 315.419C567.11 316.9 567.776 318.454 568.442 320.157C569.034 321.785 569.701 323.562 570.367 325.338C570.737 326.227 570.959 327.189 571.255 328.151C571.551 329.114 571.847 330.076 572.143 331.038C574.511 338.885 576.435 347.842 577.323 357.687C578.211 367.532 577.989 378.266 576.361 389.221C576.213 390.628 575.917 391.96 575.695 393.367C575.547 394.033 575.473 394.773 575.325 395.44L575.103 396.476L574.881 397.512C574.585 398.919 574.215 400.251 573.919 401.658L573.697 402.694L573.401 403.73C573.179 404.397 573.031 405.137 572.809 405.803C572.069 408.616 571.107 411.355 570.145 414.094C569.627 415.5 569.109 416.833 568.59 418.239C568.294 418.905 568.072 419.572 567.776 420.312C567.48 420.978 567.184 421.644 566.888 422.384C562.152 433.266 555.639 443.704 547.795 453.105C546.759 454.215 545.797 455.399 544.76 456.584C543.724 457.694 542.688 458.805 541.578 459.915L539.95 461.543L538.248 463.098L536.546 464.653C535.954 465.171 535.436 465.689 534.844 466.207C533.659 467.169 532.549 468.28 531.439 469.242C531.143 469.464 530.921 469.834 530.625 470.056L529.737 470.723L527.887 471.981L526.037 473.313C525.445 473.758 524.779 474.128 524.187 474.572L520.412 477.089C519.598 477.681 520.116 477.311 519.894 477.459L519.82 477.533L519.598 477.681L519.154 477.903L518.34 478.421L516.712 479.383L515.898 479.902L515.454 480.124L514.936 480.42L512.79 481.604L510.644 482.789L509.607 483.381C509.237 483.603 508.941 483.677 508.571 483.899C507.239 484.565 505.907 485.157 504.501 485.824C503.835 486.12 503.169 486.416 502.429 486.712L500.357 487.6L498.284 488.488L496.212 489.229C494.806 489.747 493.474 490.265 492.068 490.709C490.662 491.153 489.256 491.597 487.85 491.968C476.675 495.151 465.278 496.631 454.473 496.557C453.807 496.557 453.141 496.557 452.475 496.557C451.808 496.557 451.142 496.483 450.476 496.483C449.144 496.409 447.812 496.409 446.48 496.261C443.816 496.039 441.226 495.817 438.709 495.373C438.043 495.299 437.451 495.151 436.785 495.077L435.823 494.929L434.861 494.781C433.603 494.558 432.345 494.262 431.161 494.04L430.273 493.892L429.385 493.67C428.793 493.522 428.2 493.374 427.608 493.226C426.424 492.93 425.24 492.708 424.056 492.338C417.766 490.561 411.919 488.34 406.591 485.898C404 484.713 401.484 483.381 399.116 482.048C391.863 477.977 385.795 473.461 380.836 469.168C380.244 468.576 379.578 468.058 378.986 467.539C378.394 467.021 377.802 466.503 377.284 465.985C376.174 464.875 375.138 463.838 374.102 462.876C373.14 461.84 372.178 460.803 371.364 459.915C370.92 459.471 370.475 458.953 370.105 458.508C369.735 458.064 369.217 457.62 368.847 457.176C368.403 455.696 367.589 454.955 366.997 454.141Z" fill="url(#paint12_linear_1443_1258)"/>
<path opacity="0.4" d="M366.997 454.141L366.701 453.771C372.77 455.548 382.465 457.028 388.163 457.842C388.311 457.916 388.533 457.991 388.681 458.139C393.713 461.026 399.708 463.764 406.369 465.985C413.029 468.206 420.504 469.686 428.348 470.353C429.311 470.501 430.347 470.427 431.309 470.501C431.827 470.501 432.271 470.575 432.789 470.575L433.529 470.649C433.751 470.649 434.047 470.649 434.269 470.649C435.305 470.649 436.267 470.649 437.303 470.649H438.043L438.783 470.575C439.301 470.575 439.819 470.501 440.337 470.501C442.336 470.427 444.408 470.205 446.48 469.982C447.516 469.834 448.552 469.686 449.588 469.538C450.106 469.464 450.624 469.39 451.142 469.316C451.66 469.242 452.179 469.094 452.697 469.02C460.837 467.466 468.978 464.653 476.453 460.729C477.415 460.211 478.303 459.767 479.265 459.249C480.153 458.731 481.041 458.139 482.003 457.62L483.335 456.806L484.667 455.918L485.999 455.03C486.443 454.733 486.887 454.437 487.258 454.141C488.072 453.475 488.96 452.883 489.774 452.217C489.996 452.069 490.218 451.92 490.366 451.772L490.884 451.328L491.92 450.44L492.956 449.552C493.03 449.478 493.104 449.404 493.252 449.33L494.288 448.367L495.694 447.109L496.73 446.147L496.878 445.999L496.952 445.925C496.952 445.925 497.322 445.628 496.656 446.147L498.802 443.926C499.173 443.556 499.543 443.186 499.839 442.815L500.875 441.631L501.911 440.447L502.429 439.854C502.577 439.632 502.725 439.484 502.873 439.262C503.539 438.448 504.131 437.634 504.723 436.819C505.019 436.449 505.315 436.005 505.611 435.561L506.499 434.303L507.387 433.044L508.201 431.786C508.719 430.898 509.311 430.083 509.755 429.269C510.273 428.381 510.717 427.566 511.236 426.678C515.01 419.72 517.6 412.539 519.08 405.433L519.376 404.101L519.598 402.768C519.746 401.88 519.894 400.992 520.042 400.103V400.029C519.45 425.198 506.943 450.958 484.075 468.576C460.615 486.712 431.753 492.116 406.813 485.528C404.222 484.343 401.706 483.011 399.338 481.678C392.085 477.607 386.017 473.091 381.058 468.798C380.466 468.206 379.8 467.688 379.208 467.17C378.616 466.651 378.024 466.133 377.506 465.615C376.396 464.505 375.36 463.468 374.324 462.506C373.362 461.47 372.4 460.433 371.586 459.545C371.142 459.101 370.698 458.583 370.327 458.139C369.957 457.694 369.439 457.25 369.069 456.806C368.403 455.696 367.589 454.955 366.997 454.141Z" fill="url(#paint13_linear_1443_1258)"/>
<path d="M147.791 459.915C151.639 456.362 158.966 452.29 162.666 442.741C163.776 439.854 167.698 429.713 161.926 422.014C158.522 417.425 152.083 414.316 146.459 415.426C141.648 416.388 140.908 419.719 132.693 426.456C129.511 429.047 124.405 433.266 118.706 435.635C108.937 439.632 103.091 435.857 93.322 436.301C81.333 436.819 67.3458 443.555 60.6112 453.327C48.6962 470.648 65.9397 488.192 52.9146 508.475C48.6222 515.137 46.55 513.657 36.3372 526.463C26.1983 539.343 21.0919 545.783 21.9799 553.704C23.238 564.66 35.005 575.097 46.106 575.837C56.9849 576.503 63.8675 567.991 69.418 571.692C73.3403 574.357 71.1201 579.538 75.2645 585.757C80.667 593.751 91.2499 595.38 92.952 595.602C108.789 597.971 130.177 579.39 139.28 557.331C155.709 517.654 126.995 479.161 147.791 459.915Z" fill="url(#paint14_linear_1443_1258)"/>
<path d="M141.056 571.692L215.803 553.038L219.577 571.174L151.121 602.783L96.9483 589.384L64.3115 557.257L141.056 571.692Z" fill="url(#paint15_linear_1443_1258)"/>
<path d="M212.916 466.725C212.99 457.472 187.828 450.07 176.283 447.701C158.374 444 144.017 446.294 140.464 446.961C118.114 450.884 104.201 462.062 98.9467 466.799C103.239 469.094 115.08 476.2 120.927 489.747C126.625 502.775 122.555 514.767 120.409 521.725C118.558 527.795 115.746 536.975 107.531 543.637C103.165 547.19 98.3546 548.966 88.6598 552.52C77.2628 556.739 70.2322 557.923 70.3062 560.144C70.3802 563.031 81.9252 565.4 81.5552 567.251C81.5552 567.399 81.4072 567.399 81.4072 567.473C81.2592 568.731 94.2103 571.84 110.64 574.283C129.807 577.17 139.428 578.576 148.605 577.022C162.888 574.579 160.52 570.138 174.803 567.695C191.455 564.808 199.077 570.063 214.101 564.216C216.617 563.253 226.83 559.33 226.534 555.259C226.164 550.225 209.364 551.927 194.785 539.047C188.346 533.347 185.238 527.425 184.128 525.205C182.722 522.318 176.875 507.365 182.722 491.079C183.018 490.339 183.314 489.747 183.684 489.007C192.491 474.498 212.842 475.016 212.916 466.725Z" fill="white"/>
<path d="M139.206 502.701C142.24 509.215 128.179 524.316 112.564 531.496C109.382 532.977 86.5136 543.488 76.3747 533.347C67.938 524.982 73.5625 507.808 75.3386 501.59C84.7374 468.723 111.898 457.027 124.183 451.476C133.36 474.349 130.103 483.454 128.031 486.637C125.811 489.968 119.668 496.927 113.082 503.071C108.493 507.364 105.607 509.511 105.977 510.177C106.495 510.991 111.898 509.437 132.916 499.221C135.284 499.592 138.17 500.48 139.206 502.701Z" fill="white"/>
<path d="M225.127 466.577L214.988 517.136C214.692 518.765 213.434 520.023 211.806 520.393L136.172 536.605C133.433 537.197 130.991 534.976 131.139 532.237L135.136 480.864C135.284 479.088 136.542 477.607 138.244 477.163C150.233 474.202 196.413 463.098 220.761 461.692C223.499 461.47 225.645 463.913 225.127 466.577Z" fill="url(#paint16_linear_1443_1258)"/>
<path d="M149.715 429.713C149.715 429.713 148.309 441.113 144.091 443.704C139.872 446.294 133.064 449.7 132.324 450.662C131.584 451.624 158.374 454.437 171.695 447.775C167.329 446.887 166.145 446.516 166.145 446.516C164.96 446.146 162.74 445.554 160.52 444.296C159.04 443.407 156.598 441.779 154.303 438.596L154.378 432.304L149.715 429.713Z" fill="url(#paint17_linear_1443_1258)"/>
<path d="M149.049 433.71C149.049 433.71 151.787 437.485 156.08 435.931C159.928 434.524 157.634 424.605 154.599 423.421C153.563 423.05 151.713 423.198 150.455 424.013C149.567 424.531 147.199 427.492 148.605 430.749C147.643 430.453 146.755 430.749 146.533 431.193C146.237 431.785 147.051 432.674 147.273 432.822C147.939 433.488 148.679 433.71 149.049 433.71Z" fill="url(#paint18_linear_1443_1258)"/>
<path opacity="0.4" d="M157.041 510.252C165.182 507.957 171.917 513.657 178.355 509.141C185.016 504.552 180.649 496.631 187.532 488.933C194.933 480.642 204.257 484.713 211.066 477.163C213.582 474.35 215.876 469.76 215.876 461.988C217.579 461.84 219.207 461.692 220.761 461.618C223.499 461.47 225.571 463.912 225.053 466.577L214.914 517.136C214.618 518.765 213.36 520.023 211.732 520.393L139.132 535.938C144.238 517.95 151.047 511.954 157.041 510.252Z" fill="url(#paint19_linear_1443_1258)"/>
<path d="M220.317 493.447C220.317 493.447 225.127 489.006 225.645 483.824C226.163 478.643 222.537 474.497 218.985 473.461C215.432 472.424 213.582 473.979 215.95 479.087C218.319 484.194 222.093 487.451 220.317 493.447Z" fill="url(#paint20_linear_1443_1258)"/>
<path d="M138.762 596.86C153.637 588.866 164.59 580.797 171.991 574.653C186.644 562.587 193.378 553.482 208.18 549.929C210.844 549.263 225.941 545.635 230.826 552.298C236.228 559.7 225.719 575.245 224.461 577.17C205.515 605.225 157.263 603.893 142.166 603.004C140.982 600.932 139.872 598.859 138.762 596.86Z" fill="url(#paint21_linear_1443_1258)"/>
<path opacity="0.3" d="M230.826 552.297C229.42 550.373 227.125 549.262 224.461 548.744C225.349 551.779 225.423 554.592 224.313 557.035C221.353 563.771 212.62 561.698 206.404 569.619C200.335 577.392 204.553 584.868 199.225 588.051C193.082 591.752 185.534 583.166 178.947 587.237C174.507 590.05 175.839 595.306 170.659 598.193C167.032 600.191 163.554 599.229 159.484 598.711C154.821 598.119 148.383 597.97 140.316 599.673C140.908 600.783 141.574 601.894 142.166 603.004C157.263 603.892 205.515 605.225 224.461 577.17C225.719 575.245 236.228 559.7 230.826 552.297Z" fill="url(#paint22_linear_1443_1258)"/>
<path d="M149.937 601.005C149.937 601.005 152.675 599.081 156.597 600.413C160.52 601.746 166.81 602.782 166.81 604.781C166.81 606.705 160.52 607.89 156.227 607.15C152.083 606.335 148.827 602.708 149.937 601.005Z" fill="url(#paint23_linear_1443_1258)"/>
<path d="M146.015 597.749L153.267 600.118C153.267 600.118 154.452 602.116 152.823 603.301C151.195 604.559 145.719 601.894 145.719 601.894L146.015 597.749Z" fill="url(#paint24_linear_1443_1258)"/>
<path d="M44.9959 564.215C42.8497 576.726 69.788 590.198 76.0046 593.307C88.5856 599.599 112.268 608.482 147.347 605.151C147.791 602.338 148.309 599.525 148.753 596.712C144.09 595.158 137.208 592.567 129.289 588.644C115.672 581.907 110.492 577.17 91.6199 565.696C70.6761 553.038 64.6076 551.409 58.3911 552.964C52.9886 554.37 45.958 558.442 44.9959 564.215Z" fill="url(#paint25_linear_1443_1258)"/>
<path d="M448.552 259.234C453.067 261.528 458.691 259.456 461.133 254.57C463.575 249.684 461.947 243.91 457.507 241.616C457.285 241.468 457.063 241.394 456.767 241.32C457.581 238.655 458.247 235.916 458.617 233.177C458.839 233.177 459.135 233.177 459.431 233.177C464.538 232.733 468.608 227.995 468.534 222.665C468.46 217.336 464.168 213.338 459.061 213.782C458.765 213.782 458.543 213.856 458.247 213.93C457.729 211.266 456.989 208.675 456.027 206.158C456.249 206.01 456.471 205.862 456.693 205.714C461.059 202.679 462.465 196.609 459.801 192.167C457.137 187.726 451.438 186.689 447.072 189.724C446.85 189.872 446.628 190.021 446.406 190.243C444.704 188.318 442.78 186.541 440.708 184.913C440.856 184.691 441.004 184.469 441.152 184.173C443.594 179.287 446.85 174.031 442.336 171.811C431.901 166.703 427.386 171.07 424.87 175.956C424.722 176.178 424.648 176.474 424.5 176.696C421.984 175.956 419.394 175.512 416.877 175.216C416.877 174.92 416.877 174.697 416.877 174.401C416.803 169.072 418.358 166.185 413.251 166.037C402.002 165.815 398.228 170.7 398.376 176.03C398.376 176.326 398.376 176.548 398.45 176.844C395.86 177.584 393.343 178.547 390.901 179.657C390.753 179.435 390.679 179.213 390.531 178.917C387.867 174.475 382.169 173.439 377.802 176.474C373.436 179.583 372.03 185.579 374.694 190.021C374.842 190.243 374.99 190.465 375.138 190.687C373.214 192.611 371.364 194.758 369.661 196.979C369.439 196.831 369.217 196.683 368.995 196.609C364.481 194.314 358.857 196.387 356.414 201.272C353.972 206.158 355.6 211.932 360.041 214.227C360.263 214.375 360.485 214.449 360.781 214.523C359.967 217.188 359.301 219.926 358.931 222.665C358.709 222.665 358.412 222.665 358.116 222.665C353.01 223.11 348.94 227.847 349.014 233.177C349.088 238.507 353.38 242.504 358.486 242.06C358.783 242.06 359.005 241.986 359.301 241.912C359.819 244.577 360.559 247.167 361.521 249.684C361.299 249.832 361.077 249.98 360.855 250.128C356.488 253.163 355.082 259.234 357.746 263.675C360.411 268.116 369.217 270.115 373.584 267.08C373.806 266.932 370.92 265.822 371.142 265.6C372.844 267.524 374.768 269.301 376.84 270.929C376.692 271.151 376.544 271.374 376.396 271.67C373.954 276.555 375.582 282.329 380.022 284.624C384.537 286.919 390.161 284.846 392.603 279.96C392.751 279.738 392.825 279.442 392.973 279.22C395.49 279.96 398.08 280.405 400.596 280.701C400.596 280.997 400.596 281.219 400.596 281.515C400.67 286.845 404.962 290.842 410.069 290.398C415.175 289.954 419.246 285.216 419.172 279.886C419.172 279.59 419.172 279.368 419.098 279.072C421.688 278.332 424.204 277.37 426.646 276.259C426.794 276.481 426.868 276.703 427.016 276.999C429.681 281.441 435.379 282.477 439.745 279.442C444.112 276.333 445.518 270.337 442.854 265.896C442.706 265.674 442.558 265.452 442.41 265.229C444.334 263.305 446.184 261.158 447.886 258.937C448.108 259.011 448.33 259.159 448.552 259.234ZM392.529 259.974C376.248 251.683 370.254 230.66 379.208 212.968C388.163 195.276 408.663 187.726 424.944 196.017C441.226 204.307 447.22 225.33 438.265 243.022C429.385 260.64 408.885 268.265 392.529 259.974Z" fill="#BCC1C9"/>
<path d="M459.431 233.177C464.538 232.732 468.608 227.995 468.534 222.665C468.46 217.335 464.168 213.338 459.061 213.782C458.765 213.782 458.543 213.856 458.247 213.93C457.729 211.265 456.989 208.675 456.027 206.158C456.249 206.01 456.471 205.862 456.693 205.714C461.06 202.679 466.536 195.202 463.428 191.131C457.581 183.358 451.513 186.689 447.072 189.798C446.85 189.946 446.628 190.094 446.406 190.316C444.704 188.392 442.78 186.615 440.708 184.987C440.856 184.765 441.004 184.543 441.152 184.246C442.484 181.582 442.632 178.695 441.744 176.178C437.526 183.654 433.307 191.131 429.237 198.681C442.262 208.23 446.406 227.033 438.266 243.022C431.383 256.568 417.692 264.193 404.297 263.231C403.705 264.785 403.113 266.34 402.447 267.894C400.744 272.04 398.746 276.111 396.748 280.182C398.006 280.404 399.264 280.626 400.448 280.7C400.448 280.997 400.448 281.219 400.448 281.515C400.522 286.844 403.779 291.434 413.103 290.916C418.21 290.62 419.098 285.216 419.024 279.886C419.024 279.59 419.024 279.368 418.95 279.072C421.54 278.332 424.056 277.369 426.499 276.259C426.647 276.481 426.721 276.703 426.869 276.999C429.533 281.441 438.71 283.291 443.15 280.182C447.516 277.073 445.444 270.263 442.78 265.821C442.632 265.599 442.484 265.377 442.336 265.155C444.26 263.231 446.11 261.084 447.812 258.863C448.034 259.011 448.256 259.159 448.478 259.233C452.993 261.528 458.617 259.455 461.06 254.57C463.502 249.684 461.874 243.91 457.433 241.615C457.211 241.467 456.989 241.393 456.693 241.319C457.507 238.654 458.173 235.916 458.543 233.177C458.913 233.251 459.209 233.251 459.431 233.177Z" fill="#BCC1C9"/>
<path d="M453.363 259.826C457.877 262.121 463.502 260.048 465.944 255.162C468.386 250.277 466.758 244.503 462.318 242.208C462.096 242.06 461.873 241.986 461.577 241.912C462.392 239.247 463.058 236.508 463.428 233.769C463.65 233.769 463.946 233.769 464.242 233.769C469.348 233.325 473.418 228.587 473.344 223.258C473.27 217.928 468.978 213.931 463.872 214.375C463.576 214.375 463.354 214.449 463.058 214.523C462.54 211.858 461.799 209.267 460.837 206.75C461.059 206.602 461.281 206.454 461.503 206.306C465.87 203.271 467.276 197.201 464.612 192.759C461.947 188.318 456.249 187.282 451.883 190.317C451.661 190.465 451.439 190.613 451.217 190.835C449.514 188.91 447.59 187.134 445.518 185.505C445.666 185.283 445.814 185.061 445.962 184.765C448.404 179.879 446.776 174.105 442.336 171.811C437.821 169.516 432.197 171.588 429.755 176.474C429.607 176.696 429.533 176.992 429.385 177.214C426.868 176.474 424.278 176.03 421.762 175.734C421.762 175.438 421.762 175.216 421.762 174.92C421.688 169.59 417.396 165.592 412.289 166.037C407.183 166.481 403.112 171.218 403.186 176.548C403.186 176.844 403.186 177.066 403.26 177.362C400.67 178.103 398.154 179.065 395.712 180.175C395.564 179.953 395.49 179.731 395.342 179.435C392.678 174.994 386.979 173.957 382.613 176.992C378.246 180.101 376.84 186.097 379.504 190.539C379.652 190.761 379.8 190.983 379.948 191.205C378.024 193.13 376.174 195.276 374.472 197.497C374.25 197.349 374.028 197.201 373.806 197.127C369.292 194.832 363.667 196.905 361.225 201.791C358.783 206.676 360.411 212.45 364.851 214.745C365.073 214.893 365.295 214.967 365.591 215.041C364.777 217.706 364.111 220.445 363.741 223.184C363.519 223.184 363.223 223.184 362.927 223.184C357.821 223.628 353.75 228.365 353.824 233.695C353.898 239.025 358.191 243.022 363.297 242.578C363.593 242.578 363.815 242.504 364.111 242.43C364.629 245.095 365.369 247.686 366.331 250.203C366.109 250.351 365.887 250.499 365.665 250.647C361.299 253.682 359.893 259.752 362.557 264.193C365.221 268.635 370.92 269.671 375.286 266.636C375.508 266.488 375.73 266.34 375.952 266.118C377.654 268.042 379.578 269.819 381.651 271.448C381.503 271.67 381.355 271.892 381.207 272.188C378.764 277.073 380.393 282.847 384.833 285.142C389.347 287.437 394.972 285.364 397.414 280.479C397.562 280.257 397.636 279.96 397.784 279.738C400.3 280.479 402.89 280.923 405.407 281.219C405.407 281.515 405.407 281.737 405.407 282.033C405.481 287.363 409.773 291.36 414.879 290.916C419.986 290.472 424.056 285.734 423.982 280.405C423.982 280.108 423.982 279.886 423.908 279.59C426.498 278.85 429.015 277.888 431.457 276.777C431.605 276.999 431.679 277.222 431.827 277.518C434.491 281.959 440.19 282.995 444.556 279.96C448.922 276.851 450.329 270.855 447.664 266.414C447.516 266.192 447.368 265.97 447.22 265.748C449.144 263.823 450.995 261.676 452.697 259.456C452.919 259.53 453.141 259.678 453.363 259.826ZM397.414 260.492C381.133 252.201 375.138 231.178 384.093 213.486C393.048 195.795 413.547 188.244 429.829 196.535C446.11 204.826 452.105 225.848 443.15 243.54C434.195 261.232 413.695 268.783 397.414 260.492Z" fill="#D8DEE8"/>
<path d="M518.637 210.969C520.487 211.931 522.855 211.043 523.891 209.045C524.927 207.046 524.261 204.603 522.337 203.715C522.263 203.641 522.115 203.641 522.041 203.567C522.411 202.456 522.633 201.346 522.855 200.236C522.929 200.236 523.077 200.236 523.151 200.236C525.297 200.014 526.925 198.089 526.925 195.868C526.851 193.647 525.149 192.019 523.003 192.167C522.855 192.167 522.781 192.167 522.707 192.241C522.485 191.131 522.189 190.094 521.819 189.058C521.893 188.984 522.041 188.91 522.115 188.91C523.965 187.651 524.483 185.135 523.447 183.284C522.337 181.433 519.969 180.989 518.193 182.248C518.119 182.322 518.045 182.396 517.897 182.47C517.156 181.655 516.416 180.915 515.528 180.249C515.602 180.175 515.676 180.027 515.676 179.953C516.712 177.954 518.045 175.733 516.194 174.845C511.828 172.698 509.978 174.549 508.942 176.548C508.868 176.622 508.868 176.77 508.794 176.844C507.758 176.548 506.722 176.326 505.611 176.252C505.611 176.104 505.611 176.03 505.611 175.882C505.537 173.661 506.204 172.476 504.057 172.402C499.395 172.328 497.841 174.327 497.915 176.548C497.915 176.696 497.915 176.77 497.915 176.918C496.879 177.214 495.769 177.584 494.807 178.102C494.733 178.028 494.733 177.88 494.659 177.806C493.548 175.956 491.18 175.511 489.404 176.77C487.554 178.028 487.036 180.545 488.072 182.396C488.146 182.47 488.22 182.544 488.22 182.692C487.406 183.506 486.666 184.394 486 185.283C485.926 185.209 485.852 185.135 485.704 185.135C483.854 184.172 481.485 185.061 480.449 187.059C479.413 189.058 480.079 191.501 482.003 192.389C482.077 192.463 482.225 192.463 482.299 192.537C481.929 193.647 481.707 194.758 481.485 195.868C481.411 195.868 481.263 195.868 481.189 195.868C479.043 196.09 477.415 198.015 477.415 200.236C477.489 202.456 479.191 204.085 481.337 203.937C481.411 203.937 481.559 203.937 481.633 203.863C481.855 204.973 482.151 206.01 482.521 207.046C482.447 207.12 482.299 207.194 482.225 207.194C480.375 208.452 479.857 210.969 480.893 212.82C482.003 214.67 485.63 215.485 487.48 214.226C487.554 214.152 486.37 213.708 486.444 213.634C487.184 214.448 487.924 215.189 488.812 215.855C488.738 215.929 488.664 216.077 488.664 216.151C487.628 218.15 488.294 220.592 490.218 221.481C492.068 222.443 494.437 221.555 495.473 219.556C495.547 219.482 495.547 219.334 495.621 219.26C496.657 219.556 497.693 219.778 498.803 219.852C498.803 220 498.803 220.074 498.803 220.222C498.877 222.443 500.579 224.072 502.725 223.923C504.871 223.701 506.5 221.777 506.5 219.556C506.5 219.408 506.5 219.334 506.5 219.186C507.536 218.89 508.646 218.52 509.608 218.002C509.682 218.076 509.682 218.224 509.756 218.298C510.866 220.148 513.234 220.592 515.01 219.334C516.786 218.076 517.378 215.559 516.342 213.708C516.268 213.634 516.194 213.56 516.194 213.412C517.008 212.598 517.749 211.709 518.415 210.821C518.415 210.821 518.563 210.895 518.637 210.969ZM495.399 211.265C488.664 207.86 486.148 199.125 489.922 191.797C493.622 184.468 502.133 181.285 508.868 184.764C515.602 188.17 518.119 196.905 514.344 204.233C510.644 211.561 502.207 214.67 495.399 211.265Z" fill="#BCC1C9"/>
<path d="M523.15 200.162C525.297 199.94 526.925 198.015 526.925 195.794C526.851 193.573 525.149 191.945 523.002 192.093C522.854 192.093 522.78 192.093 522.706 192.167C522.484 191.057 522.188 190.02 521.818 188.984C521.892 188.91 522.04 188.836 522.114 188.836C523.965 187.578 526.185 184.468 524.927 182.766C522.484 179.509 519.968 180.915 518.192 182.174C518.118 182.248 518.044 182.322 517.896 182.396C517.156 181.582 516.416 180.841 515.528 180.175C515.602 180.101 515.676 179.953 515.676 179.879C516.268 178.769 516.268 177.584 515.898 176.548C514.122 179.657 512.42 182.766 510.717 185.875C516.12 189.798 517.822 197.645 514.492 204.233C511.605 209.859 505.981 213.042 500.431 212.598C500.209 213.264 499.912 213.856 499.69 214.522C498.95 216.225 498.136 217.928 497.322 219.63C497.84 219.704 498.358 219.778 498.876 219.852C498.876 220 498.876 220.074 498.876 220.222C498.95 222.443 500.283 224.294 504.131 224.146C506.277 223.998 506.647 221.777 506.573 219.556C506.573 219.408 506.573 219.334 506.573 219.186C507.609 218.89 508.719 218.52 509.681 218.002C509.755 218.076 509.755 218.224 509.829 218.298C510.939 220.148 514.714 220.889 516.564 219.63C518.414 218.372 517.526 215.485 516.416 213.708C516.342 213.634 516.268 213.56 516.268 213.412C517.082 212.598 517.822 211.71 518.488 210.821C518.562 210.895 518.636 210.969 518.784 210.969C520.634 211.932 523.002 211.043 524.039 209.045C525.075 207.046 524.409 204.603 522.484 203.715C522.41 203.641 522.262 203.641 522.188 203.567C522.558 202.456 522.78 201.346 523.002 200.236C522.928 200.162 523.076 200.162 523.15 200.162Z" fill="#BCC1C9"/>
<path d="M520.634 211.192C522.485 212.154 524.853 211.266 525.889 209.267C526.925 207.268 526.259 204.826 524.335 203.937C524.261 203.863 524.113 203.863 524.039 203.789C524.409 202.679 524.631 201.569 524.853 200.458C524.927 200.458 525.075 200.458 525.149 200.458C527.295 200.236 528.923 198.311 528.923 196.091C528.849 193.87 527.147 192.241 525.001 192.39C524.853 192.39 524.779 192.39 524.705 192.464C524.483 191.353 524.187 190.317 523.817 189.28C523.891 189.206 524.039 189.132 524.113 189.132C525.963 187.874 526.481 185.357 525.445 183.507C524.335 181.656 521.967 181.212 520.19 182.47C520.116 182.544 520.042 182.618 519.894 182.692C519.154 181.878 518.414 181.138 517.526 180.472C517.6 180.398 517.674 180.249 517.674 180.175C518.71 178.177 518.044 175.734 516.12 174.846C514.27 173.883 511.902 174.772 510.866 176.77C510.792 176.844 510.792 176.992 510.718 177.066C509.681 176.77 508.645 176.548 507.535 176.474C507.535 176.326 507.535 176.252 507.535 176.104C507.461 173.883 505.759 172.255 503.613 172.403C501.467 172.625 499.839 174.55 499.839 176.77C499.839 176.918 499.839 176.992 499.839 177.14C498.803 177.437 497.692 177.807 496.73 178.325C496.656 178.251 496.656 178.103 496.582 178.029C495.472 176.178 493.104 175.734 491.328 176.992C489.478 178.251 488.96 180.768 489.996 182.618C490.07 182.692 490.144 182.766 490.144 182.914C489.33 183.729 488.59 184.617 487.924 185.505C487.85 185.431 487.776 185.357 487.628 185.357C485.777 184.395 483.409 185.283 482.373 187.282C481.337 189.28 482.003 191.723 483.927 192.612C484.001 192.686 484.149 192.686 484.223 192.76C483.853 193.87 483.631 194.98 483.409 196.091C483.335 196.091 483.187 196.091 483.113 196.091C480.967 196.313 479.339 198.237 479.339 200.458C479.413 202.679 481.115 204.307 483.261 204.159C483.335 204.159 483.483 204.159 483.557 204.085C483.779 205.196 484.075 206.232 484.445 207.268C484.371 207.342 484.223 207.417 484.149 207.417C482.299 208.675 481.781 211.192 482.817 213.042C483.927 214.893 486.295 215.337 488.072 214.079C488.146 214.005 488.22 213.931 488.368 213.857C489.108 214.671 489.848 215.411 490.736 216.077C490.662 216.151 490.588 216.299 490.588 216.373C489.552 218.372 490.218 220.815 492.142 221.703C493.992 222.666 496.36 221.777 497.396 219.779C497.47 219.705 497.47 219.557 497.544 219.483C498.58 219.779 499.617 220.001 500.727 220.075C500.727 220.223 500.727 220.297 500.727 220.445C500.801 222.666 502.503 224.294 504.649 224.146C506.795 223.924 508.423 221.999 508.423 219.779C508.423 219.631 508.423 219.557 508.423 219.408C509.459 219.112 510.57 218.742 511.532 218.224C511.606 218.298 511.606 218.446 511.68 218.52C512.79 220.371 515.158 220.815 516.934 219.557C518.71 218.298 519.302 215.781 518.266 213.931C518.192 213.857 518.118 213.783 518.118 213.635C518.932 212.82 519.672 211.932 520.338 211.044C520.486 211.044 520.56 211.118 520.634 211.192ZM497.396 211.488C490.662 208.083 488.146 199.348 491.92 192.019C495.62 184.691 504.131 181.508 510.866 184.987C517.6 188.392 520.116 197.127 516.342 204.456C512.642 211.784 504.205 214.893 497.396 211.488Z" fill="#D8DEE8"/>
</g>
<defs>
<linearGradient id="paint0_linear_1443_1258" x1="353.067" y1="139.36" x2="592.028" y2="139.36" gradientUnits="userSpaceOnUse">
<stop stop-color="#311944"/>
<stop offset="1" stop-color="#A03976"/>
</linearGradient>
<linearGradient id="paint1_linear_1443_1258" x1="448.68" y1="149.984" x2="592.028" y2="149.984" gradientUnits="userSpaceOnUse">
<stop stop-color="#311944"/>
<stop offset="1" stop-color="#A03976"/>
</linearGradient>
<linearGradient id="paint2_linear_1443_1258" x1="557.805" y1="13.2093" x2="229.065" y2="563.935" gradientUnits="userSpaceOnUse">
<stop stop-color="#FFC444"/>
<stop offset="0.9964" stop-color="#F36F56"/>
</linearGradient>
<linearGradient id="paint3_linear_1443_1258" x1="374.563" y1="581.75" x2="-63.0317" y2="-174.738" gradientUnits="userSpaceOnUse">
<stop stop-color="#FF9085"/>
<stop offset="1" stop-color="#FB6FBB"/>
</linearGradient>
<linearGradient id="paint4_linear_1443_1258" x1="45.2108" y1="217.291" x2="273.875" y2="593.639" gradientUnits="userSpaceOnUse">
<stop offset="0.00359712" stop-color="#E38DDD"/>
<stop offset="1" stop-color="#9571F6"/>
</linearGradient>
<linearGradient id="paint5_linear_1443_1258" x1="310.06" y1="576.401" x2="274.756" y2="591.225" gradientUnits="userSpaceOnUse">
<stop stop-color="#40447E"/>
<stop offset="0.9964" stop-color="#3C3B6B"/>
</linearGradient>
<linearGradient id="paint6_linear_1443_1258" x1="262.922" y1="420.777" x2="224.607" y2="436.865" gradientUnits="userSpaceOnUse">
<stop stop-color="#40447E"/>
<stop offset="0.9964" stop-color="#3C3B6B"/>
</linearGradient>
<linearGradient id="paint7_linear_1443_1258" x1="97.7938" y1="429.489" x2="452.835" y2="429.489" gradientUnits="userSpaceOnUse">
<stop stop-color="#40447E"/>
<stop offset="0.9964" stop-color="#3C3B6B"/>
</linearGradient>
<linearGradient id="paint8_linear_1443_1258" x1="394.734" y1="252.66" x2="106.099" y2="655.91" gradientUnits="userSpaceOnUse">
<stop stop-color="#FFC444"/>
<stop offset="0.9964" stop-color="#F36F56"/>
</linearGradient>
<linearGradient id="paint9_linear_1443_1258" x1="97.7938" y1="560.814" x2="600.323" y2="560.814" gradientUnits="userSpaceOnUse">
<stop stop-color="#40447E"/>
<stop offset="0.9964" stop-color="#3C3B6B"/>
</linearGradient>
<linearGradient id="paint10_linear_1443_1258" x1="249.614" y1="423.173" x2="318.911" y2="423.173" gradientUnits="userSpaceOnUse">
<stop stop-color="#FF9085"/>
<stop offset="1" stop-color="#FB6FBB"/>
</linearGradient>
<linearGradient id="paint11_linear_1443_1258" x1="147.075" y1="556.695" x2="515.275" y2="556.695" gradientUnits="userSpaceOnUse">
<stop stop-color="#40447E"/>
<stop offset="0.9964" stop-color="#3C3B6B"/>
</linearGradient>
<linearGradient id="paint12_linear_1443_1258" x1="474.512" y1="258.436" x2="480.879" y2="495.48" gradientUnits="userSpaceOnUse">
<stop offset="0.00359712" stop-color="#6165D7"/>
<stop offset="1" stop-color="#AA80F9"/>
</linearGradient>
<linearGradient id="paint13_linear_1443_1258" x1="442.729" y1="401.916" x2="445.031" y2="487.634" gradientUnits="userSpaceOnUse">
<stop offset="0.00359712" stop-color="#6165D7"/>
<stop offset="1" stop-color="#AA80F9"/>
</linearGradient>
<linearGradient id="paint14_linear_1443_1258" x1="77.6998" y1="538.495" x2="108.6" y2="494.73" gradientUnits="userSpaceOnUse">
<stop stop-color="#444B8C"/>
<stop offset="0.9964" stop-color="#26264F"/>
</linearGradient>
<linearGradient id="paint15_linear_1443_1258" x1="142.775" y1="547.433" x2="141.172" y2="579.071" gradientUnits="userSpaceOnUse">
<stop stop-color="#893976"/>
<stop offset="1" stop-color="#311944"/>
</linearGradient>
<linearGradient id="paint16_linear_1443_1258" x1="131.144" y1="499.163" x2="225.203" y2="499.163" gradientUnits="userSpaceOnUse">
<stop offset="0.00359712" stop-color="#6165D7"/>
<stop offset="1" stop-color="#AA80F9"/>
</linearGradient>
<linearGradient id="paint17_linear_1443_1258" x1="151.211" y1="413.31" x2="152.058" y2="453.543" gradientUnits="userSpaceOnUse">
<stop stop-color="#311944"/>
<stop offset="1" stop-color="#A03976"/>
</linearGradient>
<linearGradient id="paint18_linear_1443_1258" x1="130.337" y1="420.976" x2="156.253" y2="430.813" gradientUnits="userSpaceOnUse">
<stop stop-color="#311944"/>
<stop offset="1" stop-color="#A03976"/>
</linearGradient>
<linearGradient id="paint19_linear_1443_1258" x1="139.104" y1="498.799" x2="225.202" y2="498.799" gradientUnits="userSpaceOnUse">
<stop offset="0.00359712" stop-color="#6165D7"/>
<stop offset="1" stop-color="#AA80F9"/>
</linearGradient>
<linearGradient id="paint20_linear_1443_1258" x1="226.334" y1="509.585" x2="216.769" y2="460.787" gradientUnits="userSpaceOnUse">
<stop stop-color="#311944"/>
<stop offset="1" stop-color="#A03976"/>
</linearGradient>
<linearGradient id="paint21_linear_1443_1258" x1="138.738" y1="575.815" x2="232.351" y2="575.815" gradientUnits="userSpaceOnUse">
<stop stop-color="#893976"/>
<stop offset="1" stop-color="#311944"/>
</linearGradient>
<linearGradient id="paint22_linear_1443_1258" x1="138.738" y1="576.033" x2="232.351" y2="576.033" gradientUnits="userSpaceOnUse">
<stop stop-color="#893976"/>
<stop offset="1" stop-color="#311944"/>
</linearGradient>
<linearGradient id="paint23_linear_1443_1258" x1="165.247" y1="612.249" x2="147.224" y2="589.826" gradientUnits="userSpaceOnUse">
<stop stop-color="#AA80F9"/>
<stop offset="0.9964" stop-color="#6165D7"/>
</linearGradient>
<linearGradient id="paint24_linear_1443_1258" x1="154.185" y1="606.924" x2="129.353" y2="575.691" gradientUnits="userSpaceOnUse">
<stop stop-color="#FFC444"/>
<stop offset="0.9964" stop-color="#F36F56"/>
</linearGradient>
<linearGradient id="paint25_linear_1443_1258" x1="100.741" y1="574.767" x2="80.1057" y2="617.677" gradientUnits="userSpaceOnUse">
<stop stop-color="#893976"/>
<stop offset="1" stop-color="#311944"/>
</linearGradient>
<clipPath id="clip0_1443_1258">
<rect width="607" height="609" fill="white"/>
</clipPath>
</defs>
</svg>
