<svg width="657" height="588" viewBox="0 0 657 588" fill="none" xmlns="http://www.w3.org/2000/svg">
<path d="M648.387 250.162C632.52 146.181 567.425 18.4319 438.837 5.06329C438.837 5.06329 341.211 -6.82113 244.968 11.1896C187.848 21.8788 137.763 53.6992 106.073 99.4308C74.3831 145.162 63.7941 200.928 76.642 254.094C84.9855 288.624 90.6249 324.362 89.0778 359.845C86.3848 421.594 87.9341 479.243 147.821 516.069C201.296 548.955 268.588 577.957 332.797 583.036C376.431 586.489 425.355 580.901 467.411 569.535C681.723 511.599 664.261 354.142 648.387 250.162Z" fill="#F4F7FA"/>
<g style="mix-blend-mode:soft-light">
<g style="mix-blend-mode:soft-light">
<path d="M340.128 450.642C337.538 436.544 333.744 422.696 328.787 409.248C317.436 378.49 303.797 361.075 286.526 339.026C275.262 324.645 262.505 308.346 248.03 285.237C220.97 242.012 212.686 226.897 205.965 203.003C192.665 155.719 197.981 114.488 202.333 94.1199C208.504 65.2303 220.164 38.1204 236.978 13.5576L237.64 13.9987C220.891 38.4776 209.266 65.4861 203.115 94.272C198.778 114.561 193.481 155.655 206.736 202.773C213.429 226.571 221.695 241.642 248.711 284.811C263.153 307.885 275.906 324.167 287.158 338.535C304.469 360.636 318.143 378.096 329.539 408.97C334.511 422.46 338.317 436.352 340.915 450.494L340.128 450.642Z" fill="white"/>
</g>
<g style="mix-blend-mode:soft-light">
<path d="M199.915 169.636L199.36 169.286C199.195 169.18 182.525 158.48 168.445 138.063C155.443 119.205 142.051 87.9583 152.041 46.1787L152.814 46.364C142.897 87.8591 156.195 118.888 169.1 137.611C181.661 155.816 196.248 166.225 199.236 168.249C202.399 134.44 225.556 113.966 244.495 102.725C265.12 90.4812 285.327 86.2558 285.529 86.2139L285.688 86.9946C285.487 87.0365 265.394 91.242 244.883 103.42C225.988 114.64 202.857 135.121 199.97 168.984L199.915 169.636Z" fill="white"/>
</g>
<g style="mix-blend-mode:soft-light">
<path d="M205.092 279.109C187.55 279.109 163.165 274.849 141.844 255.799L142.373 255.206C164.565 275.034 190.122 278.699 207.648 278.283C225.076 277.868 238.225 273.455 240.392 272.685C233.985 238.724 243.272 214.606 252.21 200.351C261.931 184.846 273.367 177.312 273.477 177.237L273.918 177.899C273.805 177.972 262.498 185.43 252.872 200.801C243.99 214.979 234.765 238.993 241.242 272.866L241.306 273.195L240.993 273.314C240.854 273.367 226.81 278.62 207.672 279.074C206.828 279.098 205.967 279.109 205.092 279.109Z" fill="white"/>
</g>
<g style="mix-blend-mode:soft-light">
<path d="M239.867 345.36C225.734 345.36 207.564 342.416 185.908 332.79L186.232 332.06C218.437 346.364 242.868 345.826 257.68 342.855C272.293 339.924 280.689 334.12 282.142 333.052C269.801 297.935 294.104 243.998 294.353 243.455L295.076 243.786C294.829 244.326 270.521 298.257 282.988 333.061L283.085 333.33L282.865 333.507C282.779 333.575 274.111 340.361 257.894 343.625C251.957 344.799 245.918 345.38 239.867 345.36V345.36Z" fill="white"/>
</g>
</g>
<g style="mix-blend-mode:soft-light">
<g style="mix-blend-mode:soft-light">
<path d="M350.615 476.778C343.221 423.436 324.886 386.715 296.118 367.637C282.073 358.324 270.499 356.216 258.246 353.982C244.893 351.556 231.087 349.033 213.439 336.657C196.269 324.614 190.568 313.775 183.351 300.049C176.925 287.831 168.93 272.628 150.087 251.828C133.572 233.594 121.24 224.746 110.358 216.939C98.4708 208.409 89.0805 201.672 78.714 185.99C61.8155 160.431 54.2324 128.628 56.1673 91.4639L56.9629 91.5058C55.0302 128.498 62.5758 160.137 79.3773 185.547C89.6623 201.108 98.9909 207.807 110.823 216.289C121.736 224.118 134.103 232.992 150.678 251.289C169.586 272.163 177.61 287.417 184.056 299.674C191.223 313.303 196.884 324.067 213.897 335.998C231.402 348.275 245.12 350.773 258.389 353.199C270.73 355.446 282.377 357.57 296.556 366.973C325.522 386.184 343.977 423.09 351.401 476.668L350.615 476.778Z" fill="white"/>
</g>
<g style="mix-blend-mode:soft-light">
<path d="M115.854 220.462L115.323 220.442C74.5732 218.936 45.3909 201.516 28.0848 187.168C9.33514 171.621 0.0969657 156.217 0 156.073L0.685368 155.665C0.775722 155.82 9.96323 171.124 28.6181 186.584C45.7502 200.782 74.5864 218.007 114.825 219.635C114.049 216.441 109.99 198.905 108.963 178.656C107.916 158.027 109.895 130.271 125.271 115.193L125.826 115.762C96.7783 144.259 115.535 219.191 115.726 219.954L115.854 220.462Z" fill="white"/>
</g>
<g style="mix-blend-mode:soft-light">
<path d="M115.656 282.895C89.7393 282.895 53.278 277.287 17.9473 252.709L18.4012 252.047C55.9336 278.169 94.7595 282.767 120.718 282.029C146.89 281.283 165.6 275.117 168.251 274.2C160.383 235.097 173.335 181.451 173.467 180.915L174.24 181.105C174.108 181.643 161.126 235.428 169.099 274.389L169.167 274.725L168.846 274.844C168.652 274.914 149.036 282.026 120.771 282.834C119.118 282.871 117.408 282.895 115.656 282.895Z" fill="white"/>
</g>
<g style="mix-blend-mode:soft-light">
<path d="M148.067 374.543C140.774 374.543 133.132 374.225 125.147 373.513L125.218 372.719C164.476 376.225 195.298 370.088 214.224 364.323C232.711 358.695 243.754 352.329 245.834 351.078C219.332 313.367 234.595 255.553 234.752 254.971L235.519 255.191C235.362 255.769 220.11 313.575 246.729 350.977L246.972 351.319L246.619 351.539C246.22 351.784 209.688 374.543 148.067 374.543Z" fill="white"/>
</g>
</g>
<path d="M347.983 431.028C330.628 416.637 311.326 404.774 290.65 395.794C243.694 375.474 220.969 384.053 201.977 362.326C182.32 339.832 197.373 320.006 173.723 294.775C171.739 292.654 146.295 266.216 121.161 273.721C103.577 278.974 95.5794 298.017 91.833 306.953C77.2881 341.634 80.6952 396.208 116.736 425.449C150.912 453.172 197.158 444.194 211.846 441.23C237.616 436.045 244.278 426.58 270.426 422.077C302.231 416.601 329.97 424.125 347.983 431.028Z" fill="url(#paint0_linear_1443_1329)"/>
<path d="M437.431 556.455C433.076 554.995 429.184 552.409 426.148 548.96C423.112 545.51 421.041 541.32 420.143 536.813L407.295 473.174L297.38 477.088L283.853 543.384C281.958 552.671 289.541 561.984 298.277 565.404L344.263 583.411C352.807 586.758 362.007 588.092 371.149 587.31L468.335 578.991C469.72 578.866 471.019 578.265 472.012 577.291C473.006 576.317 473.632 575.029 473.785 573.646C474.115 570.779 476.105 567.559 473.397 566.659L437.431 556.455Z" fill="#97A6B7"/>
<path d="M438.518 552.585C434.184 551.163 430.304 548.618 427.271 545.21C424.238 541.801 422.16 537.65 421.249 533.178L408.412 470.338L301.177 474.221L287.664 539.686C286.747 544.126 287.434 548.747 289.602 552.727C291.77 556.708 295.279 559.789 299.504 561.424L345.444 579.194C353.988 582.502 363.173 583.819 372.301 583.045L469.388 574.83C470.765 574.714 472.059 574.125 473.051 573.163C474.043 572.201 474.673 570.926 474.833 569.553C474.993 568.18 474.674 566.793 473.93 565.629C473.186 564.464 472.063 563.592 470.75 563.162L438.518 552.585Z" fill="url(#paint1_linear_1443_1329)"/>
<path d="M72.7834 515.461C60.8632 516.173 51.1138 508.435 51.1138 498.208V129.646C51.1138 119.42 60.8632 111.523 72.7834 112.039L624.013 135.94C632.765 136.319 639.852 143.702 639.852 152.4V465.868C639.852 474.565 632.765 482.063 624.013 482.586L72.7834 515.461Z" fill="#97A6B7"/>
<path d="M77.7292 515.461C65.809 516.173 56.0596 508.435 56.0596 498.208V129.646C56.0596 119.42 65.809 111.523 77.7292 112.039L628.959 135.94C637.71 136.319 644.795 143.702 644.795 152.4V465.868C644.795 474.565 637.71 482.063 628.959 482.586L77.7292 515.461Z" fill="white"/>
<g style="mix-blend-mode:multiply" opacity="0.3">
<path d="M628.968 143.319L77.7289 120.626C71.3578 120.363 66.1768 124.576 66.1768 130.036V497.661C66.1768 503.122 71.3578 507.25 77.7289 506.884L628.959 475.209C633.651 474.938 637.443 470.937 637.443 466.271V152.116C637.452 147.449 633.66 143.51 628.968 143.319Z" fill="#D8DEE8"/>
</g>
<path d="M77.7296 475.574C75.2481 475.697 73.2295 474.068 73.2295 471.944V130.31C73.2295 128.186 75.2481 126.537 77.7296 126.636L628.96 148.482C629.846 148.523 630.683 148.902 631.3 149.54C631.917 150.179 632.266 151.03 632.276 151.918V444.838C632.262 445.728 631.913 446.58 631.298 447.223C630.683 447.866 629.847 448.252 628.96 448.305L77.7296 475.574Z" fill="#D8DEE8"/>
<g style="mix-blend-mode:soft-light" opacity="0.6">
<path d="M571.423 459.772C525.047 431.066 557.438 349.445 505.359 308.437C452.852 267.092 378.968 317.801 342.19 274.982C314.804 243.102 346.849 204.607 320.699 174.623C279.691 127.604 174.717 192.266 126.487 145.954C119.64 139.376 112.732 129.399 108.798 113.39L77.7292 112.039C65.809 111.523 56.0596 119.42 56.0596 129.646V498.217C56.0596 508.443 65.809 516.182 77.7292 515.469L628.959 482.586C637.71 482.063 644.795 474.565 644.795 465.868V460.295C608.204 472.724 585.827 468.69 571.423 459.772Z" fill="white"/>
</g>
<path d="M373.565 126.669L331.636 120.613V97.3779H373.565V126.669Z" fill="#AABBCC"/>
<path d="M361.934 111.942C392.825 111.942 417.866 86.8826 417.866 55.9708C417.866 25.059 392.825 0 361.934 0C331.044 0 306.003 25.059 306.003 55.9708C306.003 86.8826 331.044 111.942 361.934 111.942Z" fill="#D8DEE8"/>
<path d="M376.51 90.4664C395.282 90.4664 410.499 75.2385 410.499 56.4539C410.499 37.6693 395.282 22.4414 376.51 22.4414C357.739 22.4414 342.521 37.6693 342.521 56.4539C342.521 75.2385 357.739 90.4664 376.51 90.4664Z" fill="white"/>
<path d="M395.538 73.5687C404.808 64.2924 404.808 49.2526 395.538 39.9763C386.268 30.7 371.239 30.7 361.969 39.9763C352.699 49.2526 352.699 64.2924 361.969 73.5687C371.239 82.845 386.268 82.845 395.538 73.5687Z" fill="#D8DEE8"/>
<path opacity="0.5" d="M388.36 64.9604C393.426 59.8904 393.426 51.6702 388.36 46.6001C383.293 41.5301 375.079 41.5301 370.013 46.6002C364.946 51.6702 364.946 59.8904 370.013 64.9604C375.079 70.0305 383.293 70.0305 388.36 64.9604Z" fill="#97A6B7"/>
<g style="mix-blend-mode:soft-light">
<path d="M389.879 54.3366C393.661 54.3366 396.726 51.2689 396.726 47.4847C396.726 43.7005 393.661 40.6328 389.879 40.6328C386.098 40.6328 383.032 43.7005 383.032 47.4847C383.032 51.2689 386.098 54.3366 389.879 54.3366Z" fill="white"/>
</g>
<path d="M392.156 120.733L335.986 118.177C333.584 118.069 331.636 119.769 331.636 121.977V142.508C331.636 147.426 335.973 151.609 341.332 151.854L386.822 153.936C392.178 154.181 396.519 150.392 396.519 145.472V124.929C396.508 122.722 394.56 120.843 392.156 120.733Z" fill="#97A6B7"/>
<path d="M320.454 118.246C319.163 118.223 317.884 118.493 316.712 119.036C315.541 119.579 314.507 120.38 313.689 121.38L312.986 122.24L331.636 123.563L337.503 118.235C337.042 118.224 329.241 118.407 320.454 118.246Z" fill="#97A6B7"/>
<path d="M594.409 196.07C594.39 194.109 593.613 192.233 592.24 190.835C590.867 189.436 589.006 188.625 587.048 188.571L121.3 176.773C116.011 176.641 111.703 180.282 111.703 184.906V441.291C111.703 445.922 116.009 449.473 121.304 449.23L587.222 427.643C591.29 427.453 594.576 424.024 594.574 419.981L594.409 196.07Z" fill="white"/>
<path d="M270.719 156.679C270.719 160.317 267.24 163.167 263.227 163.041L119.709 158.577C115.358 158.441 111.709 155.254 111.709 151.456V150.965C111.709 147.167 115.235 144.212 119.592 144.362L263.224 149.364C267.242 149.503 270.717 152.568 270.717 156.2L270.719 156.679Z" fill="white"/>
<path d="M373.423 460.369C277.365 466.129 242.453 479.925 226.41 461.083C211.521 443.597 223.856 411.023 241.481 392.13C269.004 362.627 312.346 360.177 370 357.308C422.562 354.695 454.184 353.118 478.767 373.376C501.437 392.055 515.775 427.377 501.827 446.592C488.781 464.563 460.522 455.144 373.423 460.369Z" fill="url(#paint2_linear_1443_1329)"/>
<path d="M338.414 357.969L327.217 360.889C324.462 361.608 323.204 364.587 324.742 366.757C332.389 377.55 352.49 404.417 364.957 407.176C377.756 410.008 401.402 374.789 409.199 362.516C410.541 360.402 409.464 357.709 406.996 357.03L399.097 354.844C392.533 353.043 385.693 352.467 378.92 353.144L348.829 356.108C345.314 356.454 341.832 357.076 338.414 357.969V357.969Z" fill="url(#paint3_linear_1443_1329)"/>
<path d="M346.669 317.726C346.669 317.726 352.78 358.357 344.344 362.454L368.268 386.025L392.157 356.831C392.157 356.831 383.157 350.674 385.517 317.241L346.669 317.726Z" fill="url(#paint4_linear_1443_1329)"/>
<path d="M332.409 259.317C331.527 260.419 320.138 312.121 359.336 317.052C397.693 321.879 399.348 284.444 398.859 268.572C398.369 252.701 380.933 246.804 370.871 245.613C360.767 244.415 335.512 255.455 332.409 259.317Z" fill="url(#paint5_linear_1443_1329)"/>
<path d="M330.135 289.441C330.135 289.441 328.151 281.008 321.39 286.297C314.629 291.585 325.394 305.529 334.251 304.872L330.135 289.441Z" fill="url(#paint6_linear_1443_1329)"/>
<path d="M397.696 283.366C396.605 284.063 393.48 303.527 393.48 303.527C393.48 303.527 398.961 304.085 402.914 297.085C406.868 290.085 408.75 276.293 397.696 283.366Z" fill="url(#paint7_linear_1443_1329)"/>
<path d="M412.529 246.36C408.562 240.108 398.5 242.969 395.56 236.922C393.076 231.834 398.899 227.148 395.78 222.735C393.162 219.039 386.745 219.032 385.61 219.03C376.905 219.03 374.908 225.461 368.67 225.229C361.018 224.947 360.716 215.179 350.548 210.895C340.631 206.704 326.027 209.721 320.094 217.182C315.466 222.997 319.407 227.375 313.337 234.866C309.15 240.036 305.439 240.232 303.354 245.322C301.393 250.105 302.722 254.685 303.762 258.086C306.25 266.228 310.878 269.82 317.849 278.452C322.191 283.835 326.123 289.537 329.612 295.51C332.303 302.132 334.603 308.907 336.499 315.799C338.703 323.804 338.571 325.434 340.624 328.003C347.694 336.84 363.713 335.691 370.413 335.212C378.062 334.665 387.538 333.986 392.285 327.714C394.844 324.336 394.522 321.319 395.11 313.245C395.7 305.303 396.791 297.406 398.376 289.602C399.146 286.187 400.178 282.836 401.462 279.579C404.201 272.681 407.044 271.585 410.122 264.475C412.575 258.783 415.755 251.441 412.529 246.36ZM381.116 300.274C376.403 301.502 373.214 300.454 366.792 300.159C353.876 299.563 349.774 305.244 343.63 302.805C341.063 301.789 335.108 298.926 333.843 293.358C332.884 288.656 332.745 283.823 333.434 279.074C334.456 272.083 335.637 264.023 341.676 260.481C350.403 255.36 361.492 264.252 369.41 258.558C372.427 256.388 373.639 253.067 374.188 250.542C375.938 251.117 389.788 255.914 394.866 269.752C397.988 278.265 396.206 285.851 394.687 289.995C391.836 294.063 387.472 298.617 381.116 300.274Z" fill="url(#paint8_linear_1443_1329)"/>
<path d="M354.442 308.949C361.292 310.887 368.577 310.622 375.268 308.191C376.132 307.875 376.87 308.753 376.15 309.241C373.172 311.252 368.815 313.406 364.062 313.131C360.124 312.91 356.499 311.525 353.704 310.079C352.898 309.664 353.532 308.696 354.442 308.949Z" fill="url(#paint9_linear_1443_1329)"/>
<path d="M237.44 244.827C240.146 246.201 243.544 244.939 245.032 242.008C246.519 239.077 245.532 235.586 242.828 234.213C242.689 234.142 242.546 234.079 242.401 234.023C242.9 232.423 243.28 230.788 243.538 229.131C243.692 229.131 243.848 229.131 244.007 229.114C247.092 228.838 249.543 226 249.477 222.776C249.411 219.552 246.859 217.157 243.771 217.432C243.61 217.448 243.452 217.472 243.295 217.501C242.975 215.912 242.533 214.351 241.973 212.83C242.116 212.746 242.257 212.66 242.394 212.563C245.038 210.713 245.88 207.05 244.28 204.403C242.68 201.757 239.245 201.095 236.602 202.948C236.468 203.043 236.34 203.144 236.215 203.248C235.165 202.087 234.02 201.017 232.79 200.05C232.878 199.907 232.962 199.761 233.039 199.609C234.527 196.676 236.47 193.474 233.744 192.142C227.437 189.054 224.731 191.701 223.243 194.632C223.166 194.782 223.1 194.936 223.036 195.09C221.53 194.668 219.99 194.372 218.435 194.208C218.435 194.045 218.452 193.882 218.448 193.716C218.384 190.49 219.329 188.746 216.244 188.684C209.487 188.554 207.209 191.487 207.273 194.713C207.273 194.881 207.29 195.046 207.308 195.209C205.751 195.655 204.23 196.22 202.759 196.899C202.689 196.755 202.616 196.612 202.539 196.473C200.939 193.827 197.503 193.165 194.861 195.018C192.219 196.87 191.377 200.531 192.977 203.177C193.058 203.314 193.149 203.442 193.239 203.568C192.055 204.753 190.959 206.025 189.962 207.372C189.832 207.29 189.7 207.208 189.559 207.138C186.852 205.764 183.454 207.025 181.967 209.956C180.479 212.887 181.469 216.378 184.17 217.752C184.312 217.825 184.455 217.884 184.598 217.942C184.101 219.542 183.721 221.177 183.461 222.833C183.307 222.833 183.15 222.833 182.994 222.851C179.908 223.126 177.458 225.965 177.522 229.189C177.586 232.413 180.14 234.808 183.227 234.532C183.388 234.517 183.547 234.493 183.703 234.464C184.024 236.052 184.466 237.614 185.026 239.135C184.885 239.219 184.743 239.305 184.605 239.402C181.96 241.252 181.12 244.915 182.718 247.561C184.316 250.208 189.612 251.449 192.254 249.599C192.388 249.504 190.658 248.82 190.784 248.717C191.833 249.878 192.979 250.947 194.209 251.915C194.123 252.058 194.037 252.201 193.96 252.356C192.472 255.289 193.459 258.778 196.163 260.154C198.867 261.53 202.266 260.266 203.753 257.333C203.83 257.181 203.896 257.029 203.96 256.874C205.467 257.297 207.006 257.592 208.562 257.756C208.562 257.92 208.546 258.083 208.549 258.248C208.612 261.475 211.169 263.865 214.254 263.589C217.339 263.314 219.79 260.478 219.726 257.251C219.726 257.082 219.708 256.918 219.691 256.753C221.248 256.309 222.769 255.745 224.239 255.066C224.31 255.209 224.383 255.353 224.46 255.492C226.06 258.138 229.498 258.8 232.138 256.947C234.778 255.095 235.622 251.434 234.024 248.787C233.94 248.653 233.852 248.525 233.76 248.399C234.943 247.213 236.039 245.942 237.037 244.595C237.167 244.675 237.301 244.756 237.44 244.827ZM203.722 245.255C193.9 240.264 190.317 227.592 195.716 216.949C201.115 206.307 213.456 201.733 223.279 206.714C233.101 211.696 236.684 224.377 231.285 235.02C225.886 245.662 213.538 250.245 203.716 245.255H203.722Z" fill="url(#paint10_linear_1443_1329)"/>
<path d="M244.005 229.114C247.091 228.838 249.541 226 249.475 222.776C249.409 219.551 246.857 217.156 243.769 217.432C243.609 217.448 243.45 217.472 243.293 217.5C242.973 215.912 242.531 214.35 241.971 212.83C242.114 212.746 242.255 212.66 242.392 212.563C245.037 210.713 248.3 206.238 246.438 203.761C242.912 199.057 239.243 201.093 236.601 202.945C236.466 203.04 236.338 203.142 236.213 203.245C235.163 202.085 234.018 201.015 232.788 200.048C232.876 199.904 232.96 199.759 233.037 199.607C233.422 198.864 233.651 198.051 233.711 197.216C233.77 196.382 233.659 195.545 233.383 194.755C230.833 199.248 228.32 203.761 225.846 208.293C233.683 214.027 236.177 225.362 231.279 235.015C227.129 243.197 218.878 247.79 210.821 247.215C210.462 248.148 210.109 249.085 209.719 250.009C208.674 252.514 207.487 254.969 206.299 257.421C207.046 257.562 207.797 257.672 208.549 257.752C208.549 257.915 208.533 258.078 208.536 258.244C208.6 261.47 210.556 264.211 216.152 263.913C219.237 263.748 219.777 260.473 219.713 257.247C219.713 257.077 219.696 256.914 219.678 256.748C221.236 256.304 222.756 255.739 224.226 255.059C224.297 255.205 224.37 255.348 224.447 255.487C226.047 258.133 231.594 259.271 234.236 257.419C236.878 255.566 235.609 251.438 234.016 248.781C233.932 248.646 233.844 248.518 233.751 248.392C234.935 247.206 236.03 245.935 237.028 244.588C237.158 244.67 237.293 244.752 237.431 244.822C240.138 246.196 243.536 244.935 245.023 242.004C246.511 239.073 245.524 235.582 242.82 234.208C242.68 234.137 242.538 234.074 242.392 234.018C242.891 232.418 243.271 230.783 243.529 229.127C243.69 229.131 243.847 229.129 244.005 229.114Z" fill="url(#paint11_linear_1443_1329)"/>
<path d="M240.352 245.159C243.056 246.532 246.454 245.271 247.941 242.34C249.429 239.409 248.442 235.918 245.738 234.544C245.599 234.474 245.457 234.411 245.312 234.355C245.81 232.754 246.189 231.119 246.447 229.463C246.604 229.463 246.758 229.463 246.917 229.446C250.002 229.17 252.452 226.332 252.388 223.108C252.325 219.883 249.768 217.488 246.683 217.764C246.52 217.78 246.363 217.804 246.205 217.832C245.885 216.244 245.443 214.682 244.882 213.162C245.026 213.078 245.167 212.992 245.306 212.895C247.95 211.045 248.79 207.382 247.19 204.735C245.59 202.089 242.154 201.427 239.514 203.28C239.377 203.374 239.252 203.476 239.124 203.58C238.075 202.419 236.93 201.35 235.702 200.382C235.788 200.239 235.873 200.095 235.951 199.941C237.436 197.01 236.449 193.519 233.747 192.143C231.045 190.767 227.642 192.033 226.155 194.963C226.078 195.116 226.012 195.27 225.948 195.424C224.442 195.001 222.902 194.705 221.346 194.542C221.346 194.379 221.364 194.216 221.359 194.05C221.296 190.824 218.741 188.433 215.654 188.709C212.566 188.985 210.118 191.821 210.184 195.047C210.184 195.217 210.202 195.38 210.217 195.546C208.66 195.99 207.139 196.555 205.669 197.235C205.598 197.089 205.525 196.946 205.448 196.807C203.851 194.161 200.413 193.499 197.773 195.352C195.132 197.204 194.286 200.865 195.886 203.511C195.968 203.646 196.058 203.774 196.148 203.899C194.966 205.087 193.871 206.358 192.871 207.703C192.741 207.622 192.609 207.54 192.468 207.47C189.764 206.096 186.366 207.357 184.878 210.288C183.391 213.219 184.378 216.71 187.082 218.084C187.223 218.157 187.366 218.216 187.51 218.274C187.012 219.874 186.633 221.509 186.375 223.165C186.218 223.165 186.064 223.165 185.905 223.183C182.82 223.458 180.369 226.296 180.433 229.521C180.497 232.745 183.054 235.14 186.139 234.864C186.3 234.849 186.458 234.824 186.617 234.796C186.938 236.385 187.38 237.947 187.939 239.469C187.798 239.55 187.657 239.636 187.518 239.733C184.874 241.584 184.034 245.247 185.634 247.893C187.234 250.539 190.67 251.201 193.31 249.349C193.447 249.254 193.572 249.152 193.698 249.049C194.748 250.208 195.894 251.278 197.122 252.246C197.037 252.39 196.951 252.535 196.873 252.687C195.386 255.62 196.373 259.109 199.077 260.485C201.781 261.862 205.182 260.598 206.669 257.665C206.746 257.515 206.812 257.36 206.876 257.206C208.383 257.629 209.922 257.924 211.478 258.088C211.478 258.251 211.46 258.415 211.462 258.58C211.528 261.806 214.083 264.197 217.168 263.924C220.253 263.65 222.704 260.81 222.64 257.583C222.64 257.416 222.622 257.25 222.607 257.087C224.164 256.64 225.684 256.076 227.155 255.398C227.226 255.541 227.299 255.684 227.376 255.823C228.973 258.47 232.411 259.131 235.051 257.279C237.692 255.426 238.536 251.766 236.938 249.119C236.856 248.983 236.766 248.855 236.676 248.729C237.859 247.543 238.953 246.271 239.95 244.925C240.078 245.006 240.21 245.09 240.352 245.159ZM206.634 245.586C196.812 240.596 193.226 227.924 198.625 217.281C204.025 206.638 216.366 202.065 226.188 207.046C236.01 212.028 239.596 224.709 234.196 235.351C228.797 245.994 216.449 250.577 206.627 245.586H206.634Z" fill="url(#paint12_linear_1443_1329)"/>
<path d="M173.461 172.125C178.75 174.817 185.418 172.345 188.332 166.611C191.245 160.878 189.31 154.041 184.012 151.34C183.737 151.198 183.457 151.082 183.175 150.969C184.15 147.834 184.894 144.631 185.401 141.387C185.705 141.387 186.009 141.387 186.317 141.354C192.364 140.814 197.162 135.254 197.036 128.936C196.911 122.618 191.906 117.931 185.859 118.469C185.544 118.498 185.233 118.549 184.925 118.604C184.299 115.491 183.434 112.431 182.337 109.452C182.615 109.289 182.89 109.121 183.161 108.931C188.334 105.306 189.993 98.1474 186.855 92.9451C183.717 87.7428 176.989 86.4637 171.816 90.0914C171.552 90.2767 171.303 90.4774 171.056 90.6803C169 88.4073 166.756 86.3114 164.348 84.415C164.518 84.1349 164.685 83.8526 164.837 83.5549C167.751 77.8211 171.556 71.5404 166.217 68.9315C153.86 62.8956 148.56 68.0626 145.647 73.803C145.495 74.1007 145.365 74.4029 145.239 74.7072C142.288 73.8809 139.273 73.3048 136.226 72.9849C136.246 72.6651 136.259 72.3453 136.254 72.0211C136.127 65.7029 138 62.2825 131.931 62.1656C118.697 61.9076 114.232 67.6546 114.358 73.975C114.358 74.3036 114.393 74.6366 114.426 74.9476C111.376 75.8193 108.397 76.9252 105.516 78.2555C105.377 77.9733 105.234 77.6932 105.075 77.4219C101.942 72.2174 95.2092 70.9405 90.037 74.5683C84.8647 78.196 83.2053 85.3522 86.3435 90.5546C86.5044 90.8214 86.6807 91.0706 86.8592 91.3154C84.5405 93.6393 82.3949 96.1298 80.4396 98.7671C80.184 98.6062 79.9239 98.4496 79.6484 98.3106C74.3594 95.618 67.693 98.0901 64.7796 103.824C61.8663 109.558 63.799 116.394 69.099 119.096C69.3745 119.235 69.6544 119.352 69.9342 119.464C68.9613 122.6 68.2182 125.802 67.7106 129.046C67.4065 129.046 67.1024 129.046 66.7917 129.081C60.7467 129.619 55.9469 135.179 56.0748 141.499C56.2026 147.82 61.2051 152.504 67.2501 151.964C67.5674 151.935 67.8759 151.886 68.1845 151.831C68.8116 154.943 69.6773 158.002 70.7739 160.981C70.4962 161.144 70.2185 161.312 69.9497 161.502C64.7752 165.129 63.118 172.286 66.2562 177.49C69.3943 182.695 79.7586 185.11 84.9309 181.482C85.1975 181.297 81.8081 179.958 82.066 179.753C84.1219 182.027 86.366 184.124 88.7742 186.02C88.6023 186.298 88.4349 186.583 88.285 186.88C85.3716 192.614 87.3065 199.451 92.6044 202.152C97.9022 204.854 104.562 202.373 107.475 196.639C107.627 196.341 107.755 196.039 107.881 195.737C110.832 196.563 113.847 197.139 116.894 197.459C116.877 197.777 116.861 198.099 116.868 198.421C116.996 204.741 121.998 209.425 128.045 208.887C134.092 208.349 138.89 202.787 138.762 196.469C138.762 196.138 138.729 195.807 138.696 195.494C141.747 194.622 144.725 193.516 147.606 192.186C147.743 192.469 147.886 192.749 148.047 193.02C151.178 198.222 157.911 199.499 163.083 195.874C168.255 192.248 169.915 185.09 166.779 179.887C166.618 179.62 166.442 179.371 166.263 179.124C168.582 176.801 170.726 174.31 172.68 171.673C172.932 171.827 173.187 171.984 173.461 172.125ZM107.4 172.963C88.1594 163.186 81.1382 138.361 91.7141 117.515C102.29 96.6677 126.465 87.6899 145.706 97.4638C164.947 107.238 171.969 132.065 161.39 152.914C150.812 173.763 126.653 182.739 107.4 172.963V172.963Z" fill="url(#paint13_linear_1443_1329)"/>
<path d="M186.318 141.345C192.365 140.805 197.163 135.246 197.037 128.927C196.911 122.609 191.907 117.923 185.86 118.461C185.544 118.49 185.234 118.54 184.925 118.595C184.299 115.483 183.434 112.423 182.338 109.443C182.616 109.28 182.891 109.113 183.162 108.923C188.334 105.297 194.734 96.5335 191.085 91.6796C184.158 82.468 176.981 86.4552 171.817 90.0829C171.553 90.2682 171.304 90.4688 171.057 90.6717C169 88.3987 166.756 86.3029 164.349 84.4064C164.518 84.1264 164.686 83.8441 164.838 83.5464C165.59 82.092 166.038 80.4994 166.154 78.8659C166.271 77.2324 166.053 75.5923 165.514 74.0459C160.519 82.8451 155.597 91.6854 150.749 100.567C166.098 111.814 170.986 134.004 161.391 152.914C153.261 168.94 137.099 177.938 121.318 176.809C120.615 178.637 119.923 180.474 119.169 182.283C117.124 187.194 114.801 192.001 112.474 196.805C113.943 197.081 115.412 197.297 116.882 197.453C116.864 197.77 116.849 198.092 116.855 198.414C116.983 204.735 120.822 210.103 131.772 209.52C137.835 209.201 138.877 202.781 138.75 196.463C138.75 196.132 138.717 195.801 138.684 195.488C141.734 194.616 144.713 193.51 147.593 192.18C147.73 192.462 147.873 192.742 148.034 193.014C151.166 198.216 162.032 200.426 167.207 196.8C172.381 193.175 169.898 185.083 166.766 179.881C166.605 179.614 166.429 179.365 166.25 179.118C168.569 176.795 170.714 174.304 172.668 171.666C172.926 171.827 173.186 171.984 173.459 172.125C178.748 174.818 185.417 172.345 188.33 166.612C191.243 160.878 189.308 154.041 184.011 151.34C183.735 151.199 183.455 151.082 183.173 150.969C184.148 147.834 184.892 144.632 185.399 141.387C185.714 141.378 186.009 141.372 186.318 141.345Z" fill="url(#paint14_linear_1443_1329)"/>
<path d="M179.161 172.772C184.45 175.465 191.117 172.993 194.03 167.259C196.944 161.525 195.011 154.689 189.711 151.987C189.435 151.848 189.155 151.729 188.876 151.619C189.849 148.483 190.592 145.279 191.099 142.035C191.403 142.035 191.707 142.035 192.018 142.002C198.063 141.461 202.863 135.902 202.735 129.583C202.607 123.265 197.605 118.579 191.56 119.117C191.242 119.146 190.934 119.196 190.623 119.252C189.997 116.139 189.133 113.079 188.036 110.1C188.314 109.936 188.591 109.769 188.86 109.579C194.032 105.954 195.692 98.7951 192.554 93.5927C189.415 88.3904 182.69 87.1113 177.517 90.7391C177.251 90.9243 177.002 91.125 176.755 91.3279C174.698 89.0555 172.454 86.9597 170.047 85.0626C170.219 84.7825 170.384 84.5003 170.536 84.2025C173.449 78.4687 171.514 71.6323 166.216 68.9308C160.919 66.2292 154.259 68.7102 151.345 74.444C151.193 74.7395 151.063 75.0417 150.94 75.346C147.989 74.5199 144.974 73.9438 141.927 73.6236C141.944 73.3039 141.96 72.9841 141.953 72.6599C141.825 66.3417 136.823 61.6554 130.776 62.1957C124.728 62.736 119.931 68.2956 120.059 74.6182C120.059 74.949 120.092 75.2798 120.125 75.5908C117.074 76.4625 114.095 77.5684 111.215 78.8988C111.076 78.6165 110.935 78.3364 110.774 78.0652C107.643 72.8606 100.91 71.5837 95.7356 75.2115C90.5612 78.8392 88.904 85.9954 92.0421 91.1978C92.203 91.4646 92.3793 91.7138 92.5578 91.9586C90.2404 94.283 88.0956 96.7735 86.1404 99.4104C85.8826 99.2494 85.6226 99.0928 85.3493 98.9539C80.0603 96.2612 73.3917 98.7333 70.4783 104.467C67.5649 110.201 69.4998 117.037 74.7977 119.739C75.0731 119.878 75.353 119.995 75.6351 120.107C74.6602 123.243 73.9163 126.447 73.4093 129.691C73.1052 129.691 72.8011 129.691 72.4925 129.725C66.4454 130.263 61.6478 135.822 61.7734 142.143C61.899 148.463 66.9038 153.147 72.9509 152.607C73.266 152.578 73.5768 152.53 73.8853 152.475C74.5107 155.587 75.3757 158.646 76.4725 161.624C76.1948 161.788 75.9194 161.957 75.6483 162.147C70.4761 165.773 68.8166 172.931 71.9548 178.133C75.093 183.336 81.8189 184.613 86.9933 180.987C87.2577 180.802 87.5068 180.601 87.7536 180.396C89.8101 182.67 92.0541 184.766 94.4619 186.664C94.2922 186.944 94.1247 187.226 93.9726 187.524C91.0593 193.257 92.9942 200.094 98.2942 202.795C103.594 205.497 110.25 203.016 113.163 197.282C113.315 196.984 113.445 196.682 113.571 196.38C116.522 197.206 119.537 197.783 122.584 198.102C122.564 198.422 122.551 198.742 122.555 199.064C122.683 205.384 127.686 210.068 133.733 209.53C139.78 208.992 144.578 203.43 144.45 197.112C144.45 196.781 144.417 196.451 144.384 196.138C147.434 195.266 150.413 194.16 153.294 192.83C153.432 193.112 153.576 193.392 153.734 193.663C156.868 198.866 163.601 200.145 168.773 196.517C173.945 192.889 175.605 185.733 172.466 180.531C172.305 180.264 172.129 180.015 171.951 179.768C174.27 177.444 176.415 174.954 178.37 172.316C178.626 172.475 178.881 172.631 179.161 172.772ZM113.099 173.61C93.8602 163.834 86.8368 139.009 97.4149 118.162C107.993 97.3153 132.164 88.3375 151.407 98.1136C170.65 107.89 177.669 132.713 167.094 153.562C156.518 174.411 132.34 183.386 113.099 173.61V173.61Z" fill="url(#paint15_linear_1443_1329)"/>
<path d="M367.135 177.244C342.918 177.244 320.51 183.146 302.256 193.155C274.211 208.531 255.951 233.621 255.951 261.961C255.951 278.06 261.832 293.089 272.058 305.904L261.332 334.437C261.144 334.94 261.067 335.479 261.108 336.016C261.148 336.552 261.305 337.073 261.568 337.543C261.83 338.012 262.192 338.419 262.627 338.735C263.063 339.05 263.561 339.267 264.089 339.37V339.37H264.171C264.336 339.396 264.503 339.412 264.671 339.418C265.773 339.515 268.197 339.681 269.72 339.418C269.583 339.169 269.44 338.913 269.294 338.658C279.372 336.785 294.691 333.971 304.995 332.211C322.729 341.339 344.11 346.665 367.128 346.665C400.879 346.665 431.124 335.197 451.515 317.114C468.217 302.296 478.313 283.029 478.313 261.957C478.319 215.169 428.536 177.244 367.135 177.244Z" fill="url(#paint16_linear_1443_1329)"/>
<path d="M482.961 261.958C482.961 283.029 472.866 302.297 456.164 317.115C435.772 335.211 405.528 346.666 371.777 346.666C348.756 346.666 327.378 341.34 309.642 332.212C297.916 334.215 279.715 337.58 270.106 339.371C269.462 339.489 268.799 339.435 268.183 339.213C267.567 338.991 267.021 338.609 266.6 338.107C266.18 337.604 265.901 336.999 265.791 336.353C265.681 335.708 265.744 335.044 265.974 334.431L276.7 305.898C266.474 293.083 260.59 278.043 260.59 261.955C260.59 233.619 278.853 208.529 306.898 193.15C325.152 183.14 347.56 177.238 371.777 177.238C433.178 177.245 482.961 215.17 482.961 261.958Z" fill="url(#paint17_linear_1443_1329)"/>
<path d="M373.427 210.816C383.155 210.816 390.964 213.482 396.857 218.813C402.843 224.051 405.836 231.299 405.836 240.559C405.836 249.725 402.889 256.74 396.997 261.603C391.105 266.373 383.295 268.758 373.568 268.758L373.007 279.561H355.75L355.049 255.711H361.362C369.499 255.711 375.766 254.635 380.162 252.484C384.558 250.333 386.755 246.405 386.755 240.699C386.755 236.584 385.54 233.31 383.108 230.879C380.77 228.447 377.543 227.231 373.427 227.231C369.125 227.231 365.758 228.4 363.326 230.738C360.988 233.077 359.819 236.303 359.819 240.419H341.3C341.206 234.713 342.422 229.616 344.948 225.126C347.473 220.637 351.167 217.13 356.031 214.604C360.988 212.079 366.787 210.816 373.427 210.816ZM364.308 313.091C360.754 313.091 357.808 312.016 355.47 309.865C353.225 307.62 352.103 304.861 352.103 301.587C352.103 298.314 353.225 295.601 355.47 293.45C357.808 291.205 360.754 290.083 364.308 290.083C367.769 290.083 370.622 291.205 372.866 293.45C375.111 295.601 376.233 298.314 376.233 301.587C376.233 304.861 375.111 307.62 372.866 309.865C370.622 312.016 367.769 313.091 364.308 313.091Z" fill="white"/>
<path opacity="0.7" d="M579.873 215.911H475.622V225.242H579.873V215.911Z" fill="white"/>
<defs>
<linearGradient id="paint0_linear_1443_1329" x1="80.2661" y1="329.929" x2="463.699" y2="503.706" gradientUnits="userSpaceOnUse">
<stop stop-color="#FFC444"/>
<stop offset="1" stop-color="#F36F56"/>
</linearGradient>
<linearGradient id="paint1_linear_1443_1329" x1="381.07" y1="498.004" x2="381.07" y2="559.335" gradientUnits="userSpaceOnUse">
<stop offset="0.49" stop-color="#EBEFF2"/>
<stop offset="1" stop-color="white"/>
</linearGradient>
<linearGradient id="paint2_linear_1443_1329" x1="460.985" y1="240.085" x2="321.755" y2="513.958" gradientUnits="userSpaceOnUse">
<stop stop-color="#FF9085"/>
<stop offset="1" stop-color="#FB6FBB"/>
</linearGradient>
<linearGradient id="paint3_linear_1443_1329" x1="365.146" y1="460.038" x2="367.686" y2="321.489" gradientUnits="userSpaceOnUse">
<stop stop-color="#311944"/>
<stop offset="0.56" stop-color="#6F2B60"/>
<stop offset="1" stop-color="#A03976"/>
</linearGradient>
<linearGradient id="paint4_linear_1443_1329" x1="367.72" y1="400.223" x2="368.724" y2="323.555" gradientUnits="userSpaceOnUse">
<stop stop-color="#FFC444"/>
<stop offset="1" stop-color="#F36F56"/>
</linearGradient>
<linearGradient id="paint5_linear_1443_1329" x1="360.26" y1="314.672" x2="368.555" y2="238.947" gradientUnits="userSpaceOnUse">
<stop stop-color="#FFC444"/>
<stop offset="1" stop-color="#F36F56"/>
</linearGradient>
<linearGradient id="paint6_linear_1443_1329" x1="326.831" y1="312.687" x2="326.478" y2="236.013" gradientUnits="userSpaceOnUse">
<stop stop-color="#FFC444"/>
<stop offset="1" stop-color="#F36F56"/>
</linearGradient>
<linearGradient id="paint7_linear_1443_1329" x1="397.231" y1="318.201" x2="405.48" y2="242.906" gradientUnits="userSpaceOnUse">
<stop stop-color="#FFC444"/>
<stop offset="1" stop-color="#F36F56"/>
</linearGradient>
<linearGradient id="paint8_linear_1443_1329" x1="302.332" y1="272.268" x2="413.895" y2="272.268" gradientUnits="userSpaceOnUse">
<stop stop-color="#444B8C"/>
<stop offset="1" stop-color="#3E4177"/>
</linearGradient>
<linearGradient id="paint9_linear_1443_1329" x1="372.813" y1="240.691" x2="365.851" y2="300.762" gradientUnits="userSpaceOnUse">
<stop stop-color="#FFC444"/>
<stop offset="1" stop-color="#F36F56"/>
</linearGradient>
<linearGradient id="paint10_linear_1443_1329" x1="302.733" y1="250.918" x2="218.252" y2="227.028" gradientUnits="userSpaceOnUse">
<stop stop-color="#311944"/>
<stop offset="1" stop-color="#A03976"/>
</linearGradient>
<linearGradient id="paint11_linear_1443_1329" x1="302.513" y1="251.7" x2="218.032" y2="227.81" gradientUnits="userSpaceOnUse">
<stop stop-color="#311944"/>
<stop offset="1" stop-color="#A03976"/>
</linearGradient>
<linearGradient id="paint12_linear_1443_1329" x1="216.048" y1="197.5" x2="217.37" y2="304.243" gradientUnits="userSpaceOnUse">
<stop stop-color="#FF9085"/>
<stop offset="1" stop-color="#FB6FBB"/>
</linearGradient>
<linearGradient id="paint13_linear_1443_1329" x1="301.363" y1="184.055" x2="135.874" y2="137.258" gradientUnits="userSpaceOnUse">
<stop stop-color="#311944"/>
<stop offset="1" stop-color="#A03976"/>
</linearGradient>
<linearGradient id="paint14_linear_1443_1329" x1="300.929" y1="185.588" x2="135.44" y2="138.793" gradientUnits="userSpaceOnUse">
<stop stop-color="#311944"/>
<stop offset="1" stop-color="#A03976"/>
</linearGradient>
<linearGradient id="paint15_linear_1443_1329" x1="131.553" y1="79.4126" x2="134.144" y2="288.514" gradientUnits="userSpaceOnUse">
<stop stop-color="#FF9085"/>
<stop offset="1" stop-color="#FB6FBB"/>
</linearGradient>
<linearGradient id="paint16_linear_1443_1329" x1="255.951" y1="261.957" x2="478.319" y2="261.957" gradientUnits="userSpaceOnUse">
<stop stop-color="#444B8C"/>
<stop offset="1" stop-color="#26264F"/>
</linearGradient>
<linearGradient id="paint17_linear_1443_1329" x1="260.59" y1="261.958" x2="482.961" y2="261.958" gradientUnits="userSpaceOnUse">
<stop stop-color="#E38DDD"/>
<stop offset="1" stop-color="#9571F6"/>
</linearGradient>
</defs>
</svg>
