<svg width="583" height="599" viewBox="0 0 583 599" fill="none" xmlns="http://www.w3.org/2000/svg">
<path d="M524.122 113.82C519.615 108.192 440.032 11.1846 312.91 19.4151C294.951 20.611 186.351 29.7561 144.87 103.62C112.614 161.093 146.771 212.094 107.402 251.207C73.1038 285.325 30.9176 262.744 9.78933 290.319C-22.3257 332.316 28.8048 445.855 107.472 509.097C194.591 579.232 349.462 617.501 464.611 535.195C578.704 453.664 577.788 308.469 577.647 285.465C577.436 254.372 577.014 180.579 524.122 113.82Z" fill="#F4F7FA"/>
<path d="M160.082 445.012C156.49 453.454 149.87 465.202 142.757 478.708H293.683C270.653 436.148 240.51 392.323 263.963 309.173C275.02 270.201 309.036 199.503 284.95 159.124C257.483 113.118 220.298 140.06 204.592 103.691C180.013 46.7808 123.6 12.8738 73.6673 50.1575C24.3679 86.9487 41.5523 192.82 128.883 298.691C182.901 381.771 178.745 400.835 160.082 445.012Z" fill="url(#paint0_linear_1443_1063)"/>
<path d="M220.79 469.985C219.03 450.428 216.424 432.068 213.607 412.652L212.691 406.18C210.79 396.895 209.099 387.75 207.55 378.816C203.958 358.767 200.578 339.773 194.239 320.076C194.028 318.88 193.817 317.755 193.676 316.559C193.042 312.198 192.338 307.766 189.239 303.826L189.168 303.686C163.462 198.096 115.571 96.1636 46.7637 0.492425L47.4679 0C116.276 95.6712 164.237 197.744 189.873 303.334C193.112 307.414 193.817 312.198 194.45 316.418C194.662 317.614 194.803 318.74 195.014 319.865C201.352 339.633 204.733 358.626 208.325 378.675C209.945 387.539 211.564 396.754 213.466 406.04L214.381 412.512C217.199 431.927 219.804 450.288 221.565 469.844L220.79 469.985Z" fill="#FCFDFE"/>
<path d="M206.071 375.228C197.761 324.789 215.79 260.844 232.341 216.034C250.3 167.565 270.442 130.492 270.653 130.141L271.428 130.563C271.217 130.914 251.074 167.917 233.186 216.385C216.635 261.055 198.676 324.86 206.987 375.087L206.071 375.228Z" fill="#FCFDFE"/>
<path d="M140.151 160.319C128.389 107.278 128.319 48.8904 128.319 29.6858C128.319 26.0278 128.319 23.5657 128.249 23.1436L129.094 23.0029C129.164 23.4954 129.164 25.4651 129.164 29.6858C129.164 48.8201 129.235 107.208 140.996 160.108L140.151 160.319Z" fill="#FCFDFE"/>
<path d="M171.914 243.258C147.123 199.714 46.4822 172.419 45.4258 172.138L45.6371 171.294C46.6231 171.575 147.687 198.94 172.618 242.836L171.914 243.258Z" fill="#FCFDFE"/>
<path d="M134.164 276.742C135.01 345.963 168.392 323.171 199.24 329.995C234.806 381.418 238.186 429.113 185.013 470.336L125.854 461.472C103.881 460.487 78.1041 453.734 79.583 424.54C81.2029 391.478 89.0203 370.514 51.6937 354.264C14.367 338.014 -1.69046 308.398 13.4515 274.773C29.3681 239.318 -7.95853 191.553 19.297 167.776C66.8356 126.412 133.319 204.637 134.164 276.742Z" fill="url(#paint1_linear_1443_1063)"/>
<path d="M148.884 400.623C124.164 373.61 102.754 343.572 85.2173 311.423C67.54 278.994 54.0883 244.735 45.144 209.632C40.0732 189.513 36.4109 169.042 34.439 148.712L35.3545 148.642C37.3265 168.901 40.9183 189.372 46.0595 209.421C54.9334 244.383 68.3851 278.571 85.992 311.001C103.458 343.15 124.868 373.047 149.518 400.06L148.884 400.623Z" fill="#FCFDFE"/>
<path d="M85.1472 438.68L84.7246 437.906C95.7113 432.278 108.67 427.917 123.249 424.962C130.221 423.555 137.123 422.571 143.743 422.148L143.813 423.063C137.193 423.485 130.291 424.4 123.389 425.877C108.952 428.761 96.0635 433.122 85.1472 438.68Z" fill="#FCFDFE"/>
<path d="M96.6971 331.191C66.1315 301.645 1.05633 304.319 0.422478 304.389L0.352051 303.474C0.9859 303.474 66.4836 300.731 97.3309 330.558L96.6971 331.191Z" fill="#FCFDFE"/>
<path d="M59.0181 254.091C49.8625 206.959 85.2172 152.511 85.5693 151.948L86.344 152.441C85.9919 153.003 50.8485 207.17 59.9336 253.88L59.0181 254.091Z" fill="#FCFDFE"/>
<path d="M400.029 132.884L406.579 132.813C406.579 132.813 422.284 112.976 432.919 111.85L433.905 55.9248C393.198 56.0655 357.35 78.9281 341.011 112.765L400.029 132.884Z" fill="url(#paint2_linear_1443_1063)"/>
<path d="M478.486 157.716C475.175 176.076 458.414 190.568 437.849 191.201C432.778 191.341 426.862 188.317 426.862 188.317C426.862 188.317 421.439 188.598 420.524 188.246L388.479 237.84C403.41 244.594 420.242 247.83 437.849 246.845C489.05 243.89 529.334 205.411 533.771 159.052L478.486 157.716Z" fill="url(#paint3_linear_1443_1063)"/>
<path d="M378.478 232.635L384.887 232.846L410.804 182.9C401.156 175.725 394.888 164.61 394.888 151.947C394.888 148.923 395.24 145.898 395.944 143.084L343.124 123.176L336.715 123.246C333.545 132.532 331.785 142.451 331.785 152.721C331.855 186.769 350.518 216.033 378.478 232.635Z" fill="url(#paint4_linear_1443_1063)"/>
<path d="M444.187 112.132C462.921 114.946 477.288 129.367 478.978 147.305L569.407 149.908V149.837C569.407 149.837 569.407 149.837 569.407 149.767C569.407 149.697 583.07 147.586 583.07 147.586C583.07 146.953 459.54 17.2344 459.54 17.2344L445.807 19.5558C445.807 19.5558 444.68 81.2496 444.187 112.132Z" fill="url(#paint5_linear_1443_1063)"/>
<path d="M406.509 132.884C413.058 121.417 425.242 113.327 439.398 111.921L440.384 55.9951C399.677 56.1358 363.829 78.9984 347.49 112.835L406.509 132.884Z" fill="url(#paint6_linear_1443_1063)"/>
<path d="M484.965 157.716C481.655 176.076 464.893 190.568 444.328 191.201C438.201 191.412 432.355 190.357 427.073 188.246L395.029 237.84C409.959 244.594 426.792 247.83 444.399 246.845C495.599 243.89 535.884 205.411 540.321 159.052L484.965 157.716Z" fill="url(#paint7_linear_1443_1063)"/>
<path d="M384.958 232.635L417.284 182.9C407.635 175.725 401.367 164.61 401.367 151.947C401.367 148.923 401.719 145.898 402.424 143.084L343.194 123.246C340.025 132.532 338.264 142.451 338.264 152.721C338.335 186.769 356.998 216.033 384.958 232.635Z" fill="url(#paint8_linear_1443_1063)"/>
<path d="M457.78 109.81C476.514 112.624 490.881 127.045 492.571 144.984L583 147.586C583 147.516 583 147.516 583 147.446C583 81.1793 530.109 24.4801 459.4 17.1641L457.78 109.81Z" fill="url(#paint9_linear_1443_1063)"/>
<g opacity="0.3">
<path d="M432.003 189.795C430.313 189.373 428.693 188.81 427.073 188.247L395.029 237.841C409.959 244.595 426.792 247.831 444.399 246.846C458.625 246.001 472.006 242.484 483.979 236.716C471.865 234.887 461.02 230.314 452.427 222.646C442.567 213.924 436.159 201.824 432.003 189.795Z" fill="url(#paint10_linear_1443_1063)"/>
</g>
<g opacity="0.3">
<path d="M421.228 78.1544C417.425 71.1197 412.002 65.8438 405.875 61.7637C380.169 70.6273 358.97 88.9877 347.49 112.835L406.509 132.884C410.593 125.709 416.932 119.87 424.538 116.141C426.087 101.298 427.848 90.3243 421.228 78.1544Z" fill="url(#paint11_linear_1443_1063)"/>
</g>
<path d="M511.657 472.869L49.4403 505.791C44.5808 506.142 40.5664 502.414 40.5664 497.56V150.611C40.5664 145.687 44.5104 141.818 49.4403 141.959L511.657 152.37C515.46 152.44 518.488 156.028 518.488 160.319V464.638C518.559 468.929 515.46 472.587 511.657 472.869Z" fill="#BCC1C9"/>
<path d="M516.587 472.869L54.3705 505.791C49.511 506.142 45.4966 502.414 45.4966 497.56V150.611C45.4966 145.687 49.4405 141.818 54.3705 141.959L516.587 152.37C520.39 152.44 523.419 156.028 523.419 160.319V464.638C523.419 468.929 520.32 472.587 516.587 472.869Z" fill="#D8DEE8"/>
<path opacity="0.74" d="M502.079 452.186L72.8926 480.044C68.9487 480.325 65.709 477.3 65.709 473.29V170.66C65.709 166.65 68.9487 163.485 72.8926 163.555L502.079 170.871C505.178 170.941 507.713 173.825 507.713 177.413V445.433C507.713 448.95 505.178 452.046 502.079 452.186Z" fill="white"/>
<path d="M305.304 156.591C305.304 159.616 302.98 162.078 300.093 162.008C297.205 161.937 294.881 159.405 294.881 156.38C294.881 153.285 297.205 150.893 300.093 150.963C302.98 151.034 305.304 153.566 305.304 156.591Z" fill="white"/>
<path d="M395.874 183.814H395.169V438.82H395.874V183.814Z" fill="#D8DEE8"/>
<path d="M386.026 373.851L77.7998 386.485L77.8287 387.188L386.055 374.553L386.026 373.851Z" fill="#D8DEE8"/>
<g opacity="0.7">
<path d="M416.791 298.55L411.932 298.62V209.351H416.791V298.55Z" fill="url(#paint12_linear_1443_1063)"/>
<path d="M425.524 298.339L420.594 298.48V253.95L425.524 253.88V298.339Z" fill="url(#paint13_linear_1443_1063)"/>
<path d="M434.116 298.198L429.257 298.269V200.979L434.116 201.05V298.198Z" fill="url(#paint14_linear_1443_1063)"/>
<path d="M442.779 297.987L437.919 298.128V215.471H442.779V297.987Z" fill="url(#paint15_linear_1443_1063)"/>
<path d="M451.301 297.847L446.512 297.917V275.828L451.301 275.758V297.847Z" fill="url(#paint16_linear_1443_1063)"/>
<path d="M459.822 297.706L455.033 297.776V245.931H459.822V297.706Z" fill="url(#paint17_linear_1443_1063)"/>
<path d="M468.344 297.495L463.555 297.636V223.068H468.344V297.495Z" fill="url(#paint18_linear_1443_1063)"/>
<path d="M476.725 297.354L472.006 297.425V243.258L476.725 243.188V297.354Z" fill="url(#paint19_linear_1443_1063)"/>
<path d="M485.177 297.213L480.458 297.284V213.36L485.177 213.431V297.213Z" fill="url(#paint20_linear_1443_1063)"/>
<path d="M493.487 297.003L488.839 297.144V204.075L493.487 204.146V297.003Z" fill="url(#paint21_linear_1443_1063)"/>
</g>
<path d="M493.487 311.283L411.932 313.182V303.685L493.487 301.927V311.283Z" fill="#D8DEE8"/>
<path d="M493.487 433.896L411.932 438.75V429.183L493.487 424.54V433.896Z" fill="#D8DEE8"/>
<path d="M493.487 421.024L480.739 421.727V407.306L493.487 406.673V421.024Z" fill="white"/>
<path d="M493.486 324.086L437.919 325.634V321.483L493.486 320.006V324.086Z" fill="white"/>
<path d="M493.486 330.698L437.919 332.316V328.166L493.486 326.548V330.698Z" fill="white"/>
<path d="M484.049 374.665C484.049 393.729 470.316 409.839 453.132 410.753C435.806 411.668 421.65 396.684 421.65 377.268C421.65 357.852 435.806 341.743 453.132 341.18C470.316 340.618 484.049 355.601 484.049 374.665Z" fill="#D8DEE8"/>
<path opacity="0.35" d="M482.289 373.681C481.936 359.963 473.978 348.637 462.921 344.698C459.893 343.572 456.582 343.009 453.132 343.15C436.792 343.713 423.481 358.908 423.481 377.198C423.481 395.488 436.792 409.628 453.132 408.783C469.33 407.939 482.289 392.744 482.289 374.736C482.359 374.384 482.359 374.032 482.289 373.681Z" fill="white"/>
<path d="M482.289 373.681C481.936 359.963 473.978 348.637 462.921 344.698C459.893 343.572 456.582 343.009 453.132 343.15C436.792 343.713 423.481 358.908 423.481 377.198C423.481 395.488 436.792 409.628 453.132 408.783C469.33 407.939 482.289 392.744 482.289 374.736C482.359 374.384 482.359 374.032 482.289 373.681Z" fill="#D8DEE8"/>
<path d="M482.288 373.68C481.936 359.962 473.978 348.637 462.921 344.697L453.131 375.931L482.288 373.68Z" fill="white"/>
<path d="M145.363 401.045L77.8228 404.14V399.708L145.363 396.684V401.045Z" fill="#D8DEE8"/>
<path d="M145.363 409.768L77.8228 413.004V408.572L145.363 405.406V409.768Z" fill="#D8DEE8"/>
<path d="M145.363 423.486L77.8228 426.933V422.501L145.363 419.124V423.486Z" fill="#D8DEE8"/>
<path d="M145.363 432.138L77.8228 435.796V431.364L145.363 427.847V432.138Z" fill="#D8DEE8"/>
<path d="M145.363 445.856L77.8228 449.725V445.293L145.363 441.494V445.856Z" fill="#D8DEE8"/>
<path d="M145.363 454.578L77.8228 458.588V454.156L145.363 450.217V454.578Z" fill="#D8DEE8"/>
<path d="M145.363 234.183L77.8228 234.253V229.821H145.363V234.183Z" fill="#D8DEE8"/>
<path d="M145.363 242.905L77.8228 243.116V238.685L145.363 238.544V242.905Z" fill="#D8DEE8"/>
<path d="M145.363 298.409L77.8228 299.676V295.244L145.363 294.118V298.409Z" fill="#D8DEE8"/>
<path d="M145.363 307.132L77.8228 308.539V304.107L145.363 302.771V307.132Z" fill="#D8DEE8"/>
<path d="M145.363 362.705L77.8228 365.027V360.665L145.363 358.344V362.705Z" fill="#D8DEE8"/>
<path d="M145.363 371.359L77.8228 373.891V369.459L145.363 367.067V371.359Z" fill="#D8DEE8"/>
<path d="M291.641 394.432L258.822 395.909V391.688L291.641 390.211V394.432Z" fill="#D8DEE8"/>
<path d="M291.641 402.803L258.822 404.35V400.13L291.641 398.582V402.803Z" fill="#D8DEE8"/>
<path d="M291.641 415.958L258.822 417.646V413.426L291.641 411.808V415.958Z" fill="#D8DEE8"/>
<path d="M291.641 424.329L258.822 426.088V421.867L291.641 420.179V424.329Z" fill="#D8DEE8"/>
<path d="M291.641 437.483L258.822 439.383V435.162L291.641 433.333V437.483Z" fill="#D8DEE8"/>
<path d="M291.641 445.855L258.822 447.824V443.603L291.641 441.704V445.855Z" fill="#D8DEE8"/>
<path d="M159.026 454.086V396.05H159.73V453.382L247.694 448.106L247.765 448.81L159.026 454.086Z" fill="#D8DEE8"/>
<path d="M221.777 416.591C216.988 417.224 216.284 413.918 211.565 413.988C203.466 414.129 201.494 423.907 193.606 424.47C187.127 424.962 185.436 418.561 178.957 419.827C174.098 420.812 173.112 424.751 168.322 425.736C167.336 425.947 166.421 425.947 165.505 425.877V448.95L241.99 444.519V405.828C238.116 406.532 235.229 407.868 233.186 409.134C228.186 412.3 226.496 415.958 221.777 416.591Z" fill="#D8DEE8"/>
<path d="M303.896 445.503V389.648H304.6V444.73L386.014 439.946L386.085 440.579L303.896 445.503Z" fill="#D8DEE8"/>
<path d="M315.305 429.254L314.812 428.832L331.715 409.346L348.265 414.692L364.393 398.864L380.451 407.024L380.169 407.658L364.534 399.779L348.476 415.536L331.996 410.19L315.305 429.254Z" fill="#D8DEE8"/>
<path opacity="0.7" d="M317.84 428.902C317.84 430.52 316.572 431.927 315.093 432.067C313.544 432.138 312.347 430.871 312.347 429.253C312.347 427.635 313.614 426.229 315.093 426.088C316.572 425.947 317.84 427.213 317.84 428.902Z" fill="url(#paint22_linear_1443_1063)"/>
<path opacity="0.7" d="M334.602 409.627C334.602 411.245 333.405 412.652 331.855 412.722C330.306 412.793 329.108 411.527 329.108 409.909C329.108 408.291 330.376 406.884 331.855 406.813C333.405 406.743 334.602 408.009 334.602 409.627Z" fill="url(#paint23_linear_1443_1063)"/>
<path opacity="0.7" d="M351.082 414.973C351.082 416.591 349.885 417.998 348.336 418.068C346.857 418.138 345.589 416.872 345.589 415.254C345.589 413.636 346.786 412.229 348.336 412.159C349.885 412.089 351.082 413.355 351.082 414.973Z" fill="url(#paint24_linear_1443_1063)"/>
<path opacity="0.7" d="M367.14 399.215C367.14 400.833 365.942 402.24 364.463 402.31C362.984 402.381 361.787 401.114 361.787 399.496C361.787 397.879 362.984 396.472 364.463 396.401C365.942 396.331 367.14 397.597 367.14 399.215Z" fill="url(#paint25_linear_1443_1063)"/>
<path opacity="0.7" d="M382.986 407.235C382.986 408.853 381.789 410.189 380.31 410.26C378.831 410.33 377.633 409.064 377.633 407.446C377.633 405.828 378.831 404.491 380.31 404.421C381.789 404.35 382.986 405.617 382.986 407.235Z" fill="url(#paint26_linear_1443_1063)"/>
<g opacity="0.7">
<path d="M84.7247 355.672L77.8228 355.954V349.2L84.7247 348.989V355.672Z" fill="url(#paint27_linear_1443_1063)"/>
<path d="M97.0494 355.32L90.1475 355.531V339.774L97.0494 339.562V355.32Z" fill="url(#paint28_linear_1443_1063)"/>
<path d="M109.233 354.898L102.332 355.109V332.457L109.233 332.316V354.898Z" fill="url(#paint29_linear_1443_1063)"/>
<path d="M121.347 354.476L114.516 354.687V338.226L121.347 338.085V354.476Z" fill="url(#paint30_linear_1443_1063)"/>
<path d="M133.39 354.125L126.629 354.336V328.87L133.39 328.659V354.125Z" fill="url(#paint31_linear_1443_1063)"/>
<path d="M145.363 353.702L138.602 353.913V325.704L145.363 325.563V353.702Z" fill="url(#paint32_linear_1443_1063)"/>
</g>
<g opacity="0.7">
<path d="M84.7247 289.827L77.8228 289.968V283.215L84.7247 283.145V289.827Z" fill="url(#paint33_linear_1443_1063)"/>
<path d="M97.0494 289.686L90.1475 289.757V273.999L97.0494 273.929V289.686Z" fill="url(#paint34_linear_1443_1063)"/>
<path d="M109.233 289.476L102.332 289.616V266.965L109.233 266.895V289.476Z" fill="url(#paint35_linear_1443_1063)"/>
<path d="M121.347 289.265L114.516 289.405V272.944L121.347 272.874V289.265Z" fill="url(#paint36_linear_1443_1063)"/>
<path d="M133.39 289.124L126.629 289.194V263.729L133.39 263.658V289.124Z" fill="url(#paint37_linear_1443_1063)"/>
<path d="M145.363 288.913L138.602 288.983V260.774H145.363V288.913Z" fill="url(#paint38_linear_1443_1063)"/>
</g>
<g opacity="0.7">
<path d="M138.602 224.123H145.363V217.511L138.602 217.44V224.123Z" fill="url(#paint39_linear_1443_1063)"/>
<path d="M126.629 224.052L133.39 224.123V208.506L126.629 208.436V224.052Z" fill="url(#paint40_linear_1443_1063)"/>
<path d="M114.516 224.053H121.347V201.542L114.516 201.472V224.053Z" fill="url(#paint41_linear_1443_1063)"/>
<path d="M102.332 224.053H109.233V207.592L102.332 207.521V224.053Z" fill="url(#paint42_linear_1443_1063)"/>
<path d="M90.1475 224.052H97.0494V198.376L90.1475 198.306V224.052Z" fill="url(#paint43_linear_1443_1063)"/>
<path d="M77.8228 223.983L84.7247 224.053V195.422L77.8228 195.352V223.983Z" fill="url(#paint44_linear_1443_1063)"/>
</g>
<path d="M171.139 230.244C169.027 231.58 166.984 234.535 167.477 237.771C167.97 241.007 170.787 243.117 173.041 243.75C176.21 244.665 177.196 242.554 180.577 242.836C185.718 243.258 189.662 248.604 191.352 252.614C192.972 256.483 191.704 257.468 192.761 261.97C194.592 269.849 200.367 274.703 205.86 279.275C210.438 283.074 217.41 287.717 218.678 286.31C219.101 285.817 218.748 284.692 218.467 283.988C217.481 281.245 215.298 280.682 212.269 278.15C210.156 276.391 207.41 274.07 207.832 272.241C208.255 270.412 211.706 269.286 214.241 270.06C216.777 270.834 218.185 273.436 218.819 274.632C219.382 275.688 219.312 277.094 219.805 277.165C220.157 277.235 220.58 276.672 220.72 276.18C221.213 274.914 220.368 273.718 220.087 272.733C219.382 270.482 221.002 268.09 222.622 265.628C225.298 261.618 226.918 261.548 231.144 256.835C233.961 253.669 235.369 252.051 235.51 249.8C235.792 245.861 232.623 242.976 232.059 242.484C229.524 240.163 225.157 238.545 223.326 240.233C221.636 241.781 223.397 244.665 221.495 246.845C220.157 248.393 217.763 248.745 215.931 248.112C213.326 247.268 211.776 244.665 211.635 242.343C211.635 241.851 211.494 239.74 212.833 238.263C213.255 237.841 214.171 236.997 217.34 236.856C221.847 236.645 222.763 238.193 225.439 237.56C227.693 236.997 230.369 235.168 230.369 233.339C230.299 231.229 226.566 231.018 222.27 226.164C220.58 224.264 219.241 222.717 219.312 220.677C219.453 217.792 222.411 215.471 223.045 215.049C225.369 213.29 227.411 211.813 227.411 211.813C227.975 211.391 228.82 210.828 228.749 210.265C228.679 209.914 228.256 209.632 227.411 209.421C224.876 208.647 222.904 209.14 222.904 209.14C219.875 209.843 218.889 211.391 215.157 213.501C213.678 214.345 211.142 215.752 207.691 216.596C203.747 217.511 202.409 216.737 200.437 218.285C198.536 219.762 199.17 220.958 197.198 223.209C195.155 225.601 192.69 226.375 188.817 227.571C187.338 228.063 184.38 228.907 180.295 229.259C174.59 229.892 173.323 228.837 171.139 230.244Z" fill="#D8DEE8"/>
<path d="M235.299 211.321C231.144 212.446 227.552 213.431 226.847 216.034C226.425 217.37 226.847 219.27 227.904 220.255C230.087 222.224 233.327 219.129 235.721 220.817C236.989 221.732 236.496 222.928 237.975 229.681C238.961 234.183 239.736 236.294 241.285 238.263C242.13 239.389 243.398 240.866 244.595 240.655C246.356 240.303 245.722 236.505 248.539 233.761C249.525 232.776 249.736 233.198 254.455 230.806C257.202 229.4 258.61 228.696 258.892 228.133C260.441 225.179 256.286 221.591 257.976 218.074C258.258 217.441 258.329 217.792 260.441 214.979C262.906 211.813 262.836 211.321 262.766 211.109C262.484 210.054 260.653 209.984 256.005 209.421C248.187 208.436 247.553 207.944 245.3 208.507C243.75 208.858 243.328 209.28 240.017 210.195C237.341 210.969 237.059 210.898 235.299 211.321Z" fill="#D8DEE8"/>
<path d="M224.875 286.169C222.622 287.998 222.129 291.023 221.917 292.29C221.495 295.385 222.34 297.355 223.889 302.42C225.861 308.54 226.777 311.565 226.918 313.323C227.129 315.996 226.707 316.489 224.805 327.181C223.396 335.131 223.256 337.171 224.523 338.578C226.425 340.688 230.439 340.336 230.651 339.773C230.721 339.492 229.876 339.281 229.172 338.437C227.693 336.467 228.749 333.161 229.031 332.246C230.158 328.799 232.27 327.252 235.651 323.805C239.665 319.725 242.271 317.052 244.243 313.112C245.229 311.142 247.201 306.851 246.638 301.294C246.497 300.168 246.004 296.44 243.327 292.641C239.947 287.787 235.299 286.31 233.961 285.888C231.355 285.114 227.693 283.989 224.875 286.169Z" fill="#D8DEE8"/>
<path d="M263.893 266.261C262.414 269.286 260.794 272.592 260.089 275.617C259.526 278.36 258.963 284.551 261.921 286.872C264.597 288.983 267.696 286.028 271.428 288.42C273.33 289.616 274.175 291.445 275.161 293.625C277.344 298.339 276.288 300.941 277.203 307.062C277.626 309.946 279.034 319.02 282.485 319.583C285.373 320.076 288.542 314.448 289.035 313.463C290.444 310.931 290.937 308.398 291.993 303.333C293.331 296.51 292.838 295.525 294.317 293.625C296.148 291.163 298.402 290.812 298.895 288.42C299.247 286.661 298.402 285.113 297.909 284.129C296.008 280.611 293.331 281.033 291.5 277.586C290.444 275.617 290.162 273.295 290.585 273.014C290.937 272.803 291.993 274.21 292.486 274.913C294.036 277.024 293.824 277.797 294.81 278.923C296.712 281.104 299.951 280.682 300.163 280.611C301.642 280.4 304.318 279.486 304.6 277.657C304.881 276.25 303.614 274.773 302.205 273.014C301.008 271.607 300.163 270.974 300.304 270.692C300.444 270.411 301.501 270.763 304.248 271.748C307.206 272.803 308.755 273.366 308.966 273.506C309.952 274.139 310.797 274.913 313.685 279.908C316.572 284.973 317.558 287.505 318.263 287.224C318.615 287.083 318.544 286.45 318.756 284.058C319.108 280.541 319.319 278.712 320.164 277.446C320.868 276.391 322.347 274.913 323.967 275.054C324.883 275.195 326.01 276.742 328.263 279.767C330.447 282.792 331.151 283.847 332.63 284.621C333.405 285.043 334.813 285.747 335.87 285.113C337.067 284.41 337.489 282.159 336.996 280.611C336.363 278.712 334.672 278.571 334.743 277.375C334.813 275.687 338.335 274.562 338.616 274.491C340.87 273.788 341.433 274.562 342.631 273.788C344.321 272.592 345.025 269.567 344.603 267.245C344.18 264.854 342.631 263.939 343.124 262.884C343.476 261.97 344.743 262.321 347.068 261.618C348.828 261.125 351.434 260.352 352.913 258.171C353.758 256.834 353.899 255.427 354.181 253.247C354.251 252.895 354.392 251.206 354.181 248.885C353.899 245.719 353.265 245.438 353.547 244.524C354.181 242.484 357.42 243.046 363.548 241.077C367.069 239.951 369.534 238.685 369.816 239.177C370.097 239.81 366.013 241.639 365.731 245.016C365.52 247.548 367.562 250.151 368.407 249.87C369.111 249.659 368.618 247.689 369.886 244.735C370.379 243.679 371.083 241.991 372.562 240.936C374.393 239.67 375.45 240.514 377.07 239.177C378.408 238.052 378.056 237.208 379.112 236.082C381.577 233.479 385.803 235.308 386.084 234.323C386.366 233.409 383.127 230.665 378.901 230.032C375.168 229.469 374.605 231.228 370.309 231.228C367.914 231.228 364.956 230.173 359.111 228.133C355.801 226.937 354.11 226.163 351.082 225.952C348.969 225.811 348.899 226.163 346.715 225.952C344.25 225.741 341.152 225.46 338.757 223.209C336.856 221.45 337.419 220.395 335.87 219.41C333.334 217.722 329.883 219.129 326.996 220.324C323.897 221.661 321.643 223.209 317.911 225.952C313.544 229.118 312.065 230.665 309.67 230.314C307.839 230.103 307.487 229.047 305.515 229.047C303.895 229.047 303.402 229.751 300.022 231.228C296.782 232.705 295.162 233.409 293.754 233.198C291.571 232.776 291.5 231.158 289.176 230.173C286.641 229.118 284.246 229.892 281.359 230.876C277.767 232.072 274.175 233.268 272.485 236.574C270.654 240.092 272.344 243.187 270.301 244.805C268.611 246.142 266.85 244.453 265.231 245.79C263.329 247.408 263.893 251.558 264.174 253.739C264.738 258.03 266.217 259.085 265.724 262.11C265.512 263.376 265.09 263.799 263.893 266.261Z" fill="#D8DEE8"/>
<path d="M298.895 301.786C297.98 301.716 296.501 305.585 296.853 309.313C296.853 309.524 297.205 312.408 297.98 312.479C298.755 312.549 299.529 310.228 299.67 309.946C299.811 309.524 300.233 308.258 300.022 306.077C300.022 305.444 299.74 301.856 298.895 301.786Z" fill="#D8DEE8"/>
<path d="M331.151 292.219C331.081 292.359 331.362 292.641 332.067 293.274C333.968 294.892 334.884 295.666 336.433 296.229C337.771 296.721 341.081 297.565 341.786 296.299C342.208 295.455 341.574 293.837 340.518 293.063C339.391 292.289 338.546 292.993 335.87 292.852C333.123 292.711 331.292 291.797 331.151 292.219Z" fill="#D8DEE8"/>
<path d="M340.518 284.973C339.954 285.043 340.095 286.239 339.039 288.842C338.546 290.038 338.264 290.389 338.405 290.741C338.757 291.656 340.87 292.007 341.926 290.952C342.912 289.967 342.49 288.138 342.278 287.505C341.926 286.38 341.152 284.832 340.518 284.973Z" fill="#D8DEE8"/>
<path d="M351.716 294.752C352.138 295.385 352.843 296.229 354.533 297.003C355.167 297.284 359.604 299.324 360.731 297.706C361.153 297.003 360.942 295.948 360.59 295.244C360.026 294.189 359.04 293.978 357.35 293.556C352.42 292.219 351.293 291.586 350.941 292.149C350.519 292.852 351.434 294.4 351.716 294.752Z" fill="#D8DEE8"/>
<path d="M343.406 280.19C342.842 280.401 342.842 283.356 343.898 285.607C344.462 286.803 345.448 288.21 345.87 287.999C346.363 287.788 346.082 285.748 345.73 284.341C345.166 282.301 343.969 279.979 343.406 280.19Z" fill="#D8DEE8"/>
<path d="M348.124 266.331C348.124 265.628 349.674 265.769 351.716 264.362C353.125 263.377 355.167 261.337 356.294 258.593C356.505 258.031 356.716 257.327 356.928 257.397C357.209 257.468 357.209 259.156 356.928 260.633C356.435 263.377 354.744 265.839 352.632 267.035C351.787 267.527 351.153 267.598 350.66 267.598C349.392 267.668 348.054 266.965 348.124 266.331Z" fill="#D8DEE8"/>
<path d="M343.899 306.289C341.152 308.891 339.673 308.469 339.321 309.947C338.898 311.635 340.729 312.338 341.081 315.645C341.293 317.685 340.729 318.881 341.222 319.162C341.997 319.584 343.194 316.841 346.082 315.785C346.293 315.715 349.321 314.66 351.786 316.207C353.195 317.122 353.054 318.036 355.378 320.217C356.857 321.624 357.632 322.328 358.618 322.187C360.167 321.906 361.012 319.514 361.576 318.036C361.998 316.841 363.055 314.027 362.28 310.72C361.998 309.314 361.717 309.665 357.491 303.123C356.294 301.294 355.871 300.52 354.744 300.028C352.561 299.043 350.167 300.309 349.814 300.52C348.969 301.013 348.195 301.786 346.716 303.334C344.814 305.093 344.955 305.304 343.899 306.289Z" fill="#D8DEE8"/>
<path d="M205.79 252.051C203.325 250.292 198.958 246.705 196.634 240.655C195.719 238.193 192.902 230.877 196.423 226.586C198.465 224.053 201.846 223.702 203.607 223.491C205.086 223.35 209.593 222.857 212.41 225.671C216.917 230.173 213.678 239.53 213.044 241.429C211.213 246.916 207.762 250.363 205.79 252.051Z" fill="url(#paint45_linear_1443_1063)"/>
<path d="M209.945 233.902C209.945 236.997 207.551 239.459 204.593 239.459C201.635 239.459 199.24 236.997 199.24 233.902C199.24 230.807 201.635 228.345 204.593 228.345C207.551 228.345 209.945 230.877 209.945 233.902Z" fill="#F4F7FA"/>
<path d="M238.539 314.378C236.074 312.689 231.848 309.242 229.594 303.193C228.679 300.73 225.932 293.555 229.383 289.264C231.425 286.732 234.736 286.309 236.426 286.098C237.834 285.958 242.271 285.395 245.088 288.138C249.525 292.5 246.356 301.856 245.722 303.755C243.891 309.172 240.511 312.619 238.539 314.378Z" fill="url(#paint46_linear_1443_1063)"/>
<path d="M242.624 296.299C242.624 299.324 240.3 301.856 237.342 301.927C234.454 301.997 232.06 299.535 232.06 296.51C232.06 293.485 234.454 290.953 237.342 290.882C240.3 290.812 242.624 293.274 242.624 296.299Z" fill="#F4F7FA"/>
<path d="M320.939 271.467C318.615 269.779 314.53 266.332 312.347 260.423C311.431 258.031 308.896 250.996 312.136 246.846C314.108 244.384 317.277 244.032 318.897 243.821C320.305 243.68 324.531 243.188 327.207 245.931C331.433 250.222 328.404 259.367 327.77 261.196C326.01 266.402 322.77 269.779 320.939 271.467Z" fill="url(#paint47_linear_1443_1063)"/>
<path d="M324.812 253.88C324.812 256.835 322.559 259.297 319.812 259.297C316.995 259.297 314.741 256.905 314.741 253.95C314.741 250.996 316.995 248.534 319.812 248.534C322.559 248.463 324.812 250.855 324.812 253.88Z" fill="#F4F7FA"/>
<path d="M352.068 310.087C349.744 308.469 345.8 305.092 343.617 299.254C342.771 296.862 340.166 289.898 343.405 285.747C345.307 283.285 348.406 282.863 350.025 282.722C351.364 282.582 355.519 282.019 358.195 284.692C362.35 288.913 359.392 297.987 358.758 299.816C357.068 305.092 353.899 308.469 352.068 310.087Z" fill="url(#paint48_linear_1443_1063)"/>
<path d="M355.871 292.641C355.871 295.595 353.688 298.057 350.941 298.128C348.194 298.198 346.011 295.806 346.011 292.852C346.011 289.897 348.265 287.435 350.941 287.365C353.688 287.294 355.871 289.686 355.871 292.641Z" fill="#F4F7FA"/>
<path opacity="0.35" d="M407.142 383.528C372.633 364.253 345.377 388.171 319.037 364.113C302.98 349.481 310.868 338.788 291.148 316.91C269.175 292.641 254.878 300.52 232.764 278.572C204.663 250.714 218.748 229.61 194.521 209.491C165.012 185.011 133.108 206.537 104.797 182.971C92.5421 172.77 85.8515 158.138 82.3301 142.662L54.4408 142.029C49.5813 141.888 45.5669 145.828 45.5669 150.682V497.63C45.5669 502.555 49.5108 506.213 54.4408 505.861L516.657 472.939C518.841 472.798 520.813 471.461 522.08 469.562C489.191 468.226 468.907 456.829 455.878 444.941C430.313 421.656 434.75 398.934 407.142 383.528Z" fill="white"/>
<path d="M138.953 571.635C142.827 573.605 147.686 571.776 149.87 567.626C151.982 563.405 150.574 558.41 146.7 556.44C146.489 556.37 146.278 556.229 146.067 556.159C146.771 553.838 147.334 551.516 147.686 549.124C147.898 549.124 148.109 549.124 148.391 549.124C152.828 548.702 156.349 544.693 156.208 540.05C156.138 535.407 152.475 532.03 148.039 532.382C147.827 532.382 147.546 532.452 147.334 532.452C146.841 530.131 146.207 527.95 145.433 525.769C145.644 525.629 145.855 525.558 146.067 525.418C149.87 522.745 151.067 517.539 148.743 513.74C146.419 509.941 141.489 509.027 137.756 511.63C137.545 511.77 137.404 511.911 137.193 512.052C135.714 510.434 134.023 508.886 132.263 507.479C132.404 507.268 132.544 507.057 132.615 506.846C134.728 502.625 137.545 498.053 133.601 496.154C124.586 491.722 120.642 495.52 118.529 499.741C118.389 499.952 118.318 500.163 118.248 500.374C116.064 499.741 113.881 499.319 111.627 499.108C111.627 498.897 111.627 498.616 111.627 498.405C111.557 493.762 112.895 491.3 108.458 491.229C98.7392 491.018 95.4995 495.239 95.57 499.882C95.57 500.093 95.57 500.374 95.6404 500.585C93.3867 501.218 91.2034 501.992 89.0906 502.977C89.0202 502.766 88.8793 502.555 88.7385 502.344C86.4144 498.545 81.4844 497.631 77.7518 500.234C73.9487 502.907 72.7514 508.112 75.0755 511.911C75.2164 512.122 75.2868 512.263 75.4276 512.474C73.7374 514.162 72.188 515.991 70.709 517.891C70.4977 517.75 70.3569 517.68 70.1456 517.539C66.2721 515.569 61.4125 517.398 59.2293 521.549C57.1165 525.769 58.525 530.764 62.3985 532.734C62.6098 532.804 62.8211 532.945 63.0324 533.015C62.3281 535.337 61.7647 537.658 61.4125 540.05C61.2013 540.05 60.99 540.05 60.7083 540.05C56.2713 540.472 52.7499 544.482 52.8908 549.124C52.9612 553.767 56.6235 557.144 61.0604 556.792C61.2717 556.792 61.5534 556.722 61.7647 556.722C62.2577 559.043 62.8915 561.224 63.6662 563.405C63.455 563.545 63.2437 563.616 63.0324 563.756C59.2293 566.43 58.032 571.635 60.3561 575.434C62.6802 579.233 70.216 580.991 74.0191 578.318C74.2304 578.177 71.7654 577.193 71.9063 577.052C73.3852 578.67 75.0755 580.218 76.8362 581.624C76.6953 581.835 76.5545 582.047 76.4841 582.258C74.3712 586.478 75.7798 591.473 79.6533 593.443C83.5268 595.412 88.3863 593.583 90.5696 589.433C90.7105 589.222 90.7809 589.011 90.8513 588.8C93.0346 589.433 95.2178 589.855 97.4715 590.066C97.4715 590.277 97.4715 590.558 97.4715 590.769C97.5419 595.412 101.204 598.789 105.641 598.437C110.078 598.015 113.599 594.005 113.459 589.363C113.459 589.152 113.459 588.87 113.388 588.659C115.642 588.026 117.825 587.252 119.938 586.267C120.008 586.478 120.149 586.689 120.29 586.9C122.614 590.699 127.544 591.614 131.277 589.011C135.08 586.338 136.277 581.132 133.953 577.333C133.812 577.122 133.742 576.982 133.601 576.771C135.291 575.082 136.841 573.253 138.32 571.354C138.531 571.424 138.742 571.565 138.953 571.635ZM90.5696 572.268C76.4841 565.093 71.3428 546.944 79.0899 531.749C86.8369 516.484 104.514 509.941 118.6 517.117C132.685 524.292 137.827 542.442 130.079 557.636C122.332 572.831 104.655 579.444 90.5696 572.268Z" fill="url(#paint49_linear_1443_1063)"/>
<path d="M148.391 549.124C152.828 548.702 156.349 544.693 156.208 540.05C156.138 535.407 152.476 532.03 148.039 532.382C147.827 532.382 147.546 532.452 147.334 532.452C146.841 530.131 146.208 527.95 145.433 525.769C145.644 525.629 145.855 525.558 146.067 525.418C149.87 522.744 154.518 516.343 151.842 512.826C146.771 506.072 141.489 509.027 137.756 511.63C137.545 511.77 137.404 511.911 137.193 512.052C135.714 510.434 134.024 508.886 132.263 507.479C132.404 507.268 132.545 507.057 132.615 506.846C133.742 504.595 133.883 502.063 133.108 499.882C129.446 506.283 125.854 512.755 122.262 519.297C133.531 527.528 137.052 543.708 130.08 557.566C124.093 569.314 112.261 575.856 100.711 575.012C100.218 576.348 99.6549 577.685 99.1619 579.022C97.6829 582.609 95.9926 586.127 94.2319 589.644C95.2883 589.855 96.4152 589.996 97.4716 590.136C97.4716 590.347 97.4716 590.629 97.4716 590.84C97.542 595.483 100.359 599.352 108.388 598.93C112.825 598.719 113.6 594.005 113.529 589.363C113.529 589.151 113.529 588.87 113.459 588.659C115.712 588.026 117.896 587.252 120.008 586.267C120.079 586.478 120.22 586.689 120.361 586.9C122.685 590.699 130.643 592.317 134.376 589.644C138.179 586.971 136.348 581.062 134.024 577.263C133.883 577.052 133.812 576.911 133.671 576.7C135.362 575.012 136.911 573.183 138.39 571.283C138.601 571.424 138.742 571.495 138.953 571.635C142.827 573.605 147.687 571.776 149.87 567.625C151.983 563.405 150.574 558.41 146.701 556.44C146.489 556.37 146.278 556.229 146.067 556.159C146.771 553.838 147.334 551.516 147.687 549.124C147.898 549.195 148.109 549.195 148.391 549.124Z" fill="url(#paint50_linear_1443_1063)"/>
<path d="M143.109 572.128C146.982 574.097 151.842 572.268 154.025 568.118C156.138 563.897 154.729 558.903 150.856 556.933C150.644 556.863 150.433 556.722 150.222 556.651C150.926 554.33 151.489 552.009 151.842 549.617C152.053 549.617 152.264 549.617 152.546 549.617C156.983 549.195 160.504 545.185 160.363 540.542C160.293 535.899 156.631 532.523 152.194 532.874C151.982 532.874 151.701 532.945 151.489 532.945C150.996 530.623 150.363 528.443 149.588 526.262C149.799 526.121 150.01 526.051 150.222 525.91C154.025 523.237 155.222 518.031 152.898 514.233C150.574 510.434 145.644 509.519 141.911 512.122C141.7 512.263 141.559 512.404 141.348 512.544C139.869 510.926 138.179 509.379 136.418 507.972C136.559 507.761 136.7 507.55 136.77 507.339C138.883 503.118 137.474 498.123 133.601 496.154C129.727 494.184 124.868 496.013 122.685 500.163C122.544 500.374 122.473 500.585 122.403 500.796C120.22 500.163 118.036 499.741 115.783 499.53C115.783 499.319 115.783 499.038 115.783 498.827C115.712 494.184 112.05 490.807 107.613 491.159C103.176 491.581 99.6547 495.591 99.7955 500.234C99.7955 500.445 99.7955 500.726 99.866 500.937C97.6123 501.57 95.429 502.344 93.3162 503.329C93.2458 503.118 93.1049 502.907 92.9641 502.696C90.6399 498.897 85.71 497.983 81.9773 500.585C78.1743 503.259 76.977 508.464 79.3011 512.263C79.4419 512.474 79.5124 512.615 79.6532 512.826C77.963 514.514 76.4136 516.343 74.9346 518.242C74.7233 518.102 74.5824 518.031 74.3712 517.891C70.4976 515.921 65.6381 517.75 63.4549 521.9C61.342 526.121 62.7506 531.116 66.6241 533.085C66.8354 533.156 67.0467 533.296 67.258 533.367C66.5537 535.688 65.9903 538.01 65.6381 540.401C65.4268 540.401 65.2156 540.401 64.9339 540.401C60.4969 540.824 56.9755 544.833 57.1164 549.476C57.1868 554.119 60.8491 557.496 65.286 557.144C65.4973 557.144 65.779 557.074 65.9903 557.074C66.4833 559.395 67.1171 561.576 67.8918 563.756C67.6805 563.897 67.4693 563.968 67.258 564.108C63.4549 566.781 62.2576 571.987 64.5817 575.786C66.9058 579.584 71.8358 580.499 75.5684 577.896C75.7797 577.755 75.9206 577.615 76.1318 577.474C77.6108 579.092 79.3011 580.64 81.0618 582.047C80.9209 582.258 80.7801 582.469 80.7096 582.68C78.5968 586.9 80.0054 591.895 83.8789 593.865C87.7524 595.834 92.6119 594.005 94.7952 589.855C94.936 589.644 95.0065 589.433 95.0769 589.222C97.2601 589.855 99.4434 590.277 101.697 590.488C101.697 590.699 101.697 590.981 101.697 591.192C101.768 595.834 105.43 599.211 109.867 598.859C114.304 598.437 117.825 594.428 117.684 589.785C117.684 589.574 117.684 589.292 117.614 589.081C119.867 588.448 122.051 587.674 124.164 586.689C124.234 586.9 124.375 587.112 124.516 587.323C126.84 591.121 131.77 592.036 135.502 589.433C139.305 586.76 140.503 581.554 138.179 577.755C138.038 577.544 137.967 577.404 137.826 577.193C139.517 575.504 141.066 573.675 142.545 571.776C142.756 571.917 142.897 572.057 143.109 572.128ZM94.7247 572.761C80.6392 565.585 75.498 547.436 83.245 532.241C90.9921 516.976 108.669 510.434 122.755 517.609C136.84 524.785 141.982 542.934 134.235 558.129C126.558 573.324 108.81 579.866 94.7247 572.761Z" fill="url(#paint51_linear_1443_1063)"/>
<path d="M329.32 401.608C329.32 401.608 371.083 412.722 388.409 389.297L403.269 417.858C403.269 417.858 362.703 448.529 331.151 407.165L329.32 401.608Z" fill="url(#paint52_linear_1443_1063)"/>
<path d="M327.982 521.619C336.362 525.84 346.856 521.971 351.434 512.896C356.012 503.822 352.983 493.059 344.602 488.838C344.18 488.627 343.757 488.416 343.264 488.275C344.814 483.28 346.011 478.216 346.786 473.221C347.279 473.221 347.772 473.221 348.265 473.151C357.772 472.306 365.379 463.513 365.167 453.594C364.956 443.675 357.068 436.289 347.56 437.133C347.067 437.204 346.574 437.274 346.081 437.344C345.095 432.42 343.687 427.566 341.997 422.923C342.419 422.642 342.842 422.431 343.264 422.079C351.434 416.381 354.04 405.126 349.11 396.895C344.18 388.735 333.545 386.695 325.376 392.393C324.953 392.674 324.531 393.026 324.178 393.307C320.939 389.72 317.417 386.484 313.614 383.459C313.896 383.037 314.178 382.544 314.389 382.122C318.967 373.048 325.024 363.199 316.572 359.119C297.064 349.622 288.753 357.782 284.105 366.787C283.894 367.279 283.683 367.701 283.471 368.194C278.753 366.857 274.034 366.013 269.245 365.45C269.245 364.958 269.315 364.465 269.315 363.903C269.104 353.984 272.062 348.567 262.484 348.356C241.637 347.934 234.594 357.009 234.735 366.927C234.735 367.42 234.806 367.983 234.806 368.475C230.017 369.812 225.298 371.57 220.72 373.681C220.509 373.259 220.298 372.766 220.016 372.344C215.086 364.184 204.451 362.144 196.282 367.842C188.112 373.54 185.506 384.795 190.436 393.026C190.718 393.448 191 393.87 191.281 394.222C187.69 397.81 184.309 401.749 181.14 405.97C180.717 405.688 180.295 405.477 179.872 405.266C171.491 401.045 160.998 404.914 156.42 413.989C151.842 423.064 154.87 433.827 163.251 438.048C163.674 438.259 164.096 438.47 164.589 438.61C163.04 443.605 161.843 448.67 161.068 453.665C160.575 453.665 160.082 453.665 159.589 453.735C150.081 454.579 142.475 463.372 142.686 473.291C142.898 483.21 150.786 490.596 160.293 489.752C160.786 489.682 161.279 489.612 161.772 489.541C162.758 494.466 164.167 499.319 165.857 503.962C165.435 504.244 165.012 504.455 164.589 504.806C156.42 510.505 153.814 521.76 158.744 529.991C163.674 538.151 180.013 542.02 188.183 536.251C188.605 535.97 183.253 533.86 183.675 533.508C186.915 537.096 190.436 540.331 194.239 543.356C193.958 543.778 193.676 544.271 193.465 544.693C188.887 553.768 191.915 564.531 200.296 568.751C208.677 572.972 219.171 569.103 223.749 560.028C223.96 559.536 224.171 559.114 224.382 558.621C229.101 559.958 233.82 560.802 238.609 561.365C238.609 561.857 238.538 562.35 238.538 562.913C238.75 572.831 246.638 580.218 256.145 579.374C265.653 578.53 273.259 569.736 273.048 559.817C273.048 559.325 272.978 558.762 272.907 558.27C277.696 556.933 282.415 555.175 286.993 553.064C287.204 553.486 287.415 553.979 287.697 554.401C292.627 562.561 303.261 564.601 311.431 558.903C319.601 553.205 322.206 541.949 317.277 533.719C316.995 533.297 316.713 532.875 316.431 532.523C320.023 528.935 323.404 524.996 326.573 520.775C327.136 521.127 327.489 521.408 327.982 521.619ZM223.749 522.956C193.394 507.55 182.337 468.508 199.029 435.656C215.72 402.804 253.821 388.664 284.176 404.07C314.53 419.476 325.587 458.518 308.896 491.37C292.204 524.222 254.103 538.362 223.749 522.956Z" fill="url(#paint53_linear_1443_1063)"/>
<path d="M348.265 473.151C357.773 472.307 365.379 463.513 365.168 453.594C364.956 443.676 357.068 436.289 347.561 437.133C347.068 437.204 346.575 437.274 346.082 437.344C345.096 432.42 343.687 427.566 341.997 422.923C342.419 422.642 342.842 422.431 343.265 422.079C351.434 416.381 361.505 402.593 355.73 394.926C344.814 380.434 333.475 386.695 325.305 392.393C324.883 392.674 324.46 393.026 324.108 393.308C320.869 389.72 317.347 386.484 313.544 383.459C313.826 383.037 314.107 382.545 314.319 382.122C316.854 377.198 317.065 371.782 315.375 367.139C307.487 380.997 299.74 394.925 292.064 408.924C316.291 426.652 323.967 461.544 308.825 491.37C296.008 516.625 270.513 530.764 245.581 529.006C244.455 531.89 243.398 534.774 242.201 537.658C238.961 545.397 235.299 552.994 231.637 560.521C233.961 560.943 236.285 561.295 238.609 561.576C238.609 562.069 238.539 562.561 238.539 563.124C238.75 573.043 244.807 581.555 262.061 580.64C271.64 580.148 273.259 570.018 273.048 560.099C273.048 559.607 272.978 559.044 272.978 558.551C277.767 557.215 282.485 555.456 287.063 553.346C287.275 553.768 287.486 554.26 287.768 554.682C292.697 562.842 309.882 566.36 317.981 560.662C326.151 554.964 322.207 542.231 317.277 534C316.995 533.578 316.713 533.156 316.432 532.805C320.023 529.217 323.404 525.277 326.573 521.057C326.996 521.338 327.418 521.549 327.841 521.76C336.222 525.981 346.715 522.112 351.293 513.037C355.871 503.962 352.843 493.199 344.462 488.979C344.039 488.768 343.617 488.557 343.124 488.416C344.673 483.421 345.87 478.356 346.645 473.362C347.279 473.221 347.772 473.221 348.265 473.151Z" fill="url(#paint54_linear_1443_1063)"/>
<path d="M336.926 522.674C345.307 526.895 355.8 523.026 360.378 513.951C364.956 504.877 361.928 494.114 353.547 489.893C353.124 489.682 352.702 489.471 352.209 489.33C353.758 484.335 354.955 479.27 355.73 474.276C356.223 474.276 356.716 474.276 357.209 474.205C366.717 473.361 374.323 464.568 374.112 454.649C373.9 444.73 366.012 437.344 356.505 438.188C356.012 438.258 355.519 438.329 355.026 438.399C354.04 433.475 352.631 428.621 350.941 423.978C351.363 423.697 351.786 423.486 352.209 423.134C360.378 417.436 362.984 406.18 358.054 397.95C353.124 389.79 342.49 387.75 334.32 393.448C333.897 393.729 333.475 394.081 333.123 394.362C329.883 390.775 326.362 387.539 322.559 384.514C322.84 384.092 323.122 383.599 323.333 383.177C327.911 374.103 324.883 363.339 316.502 359.119C308.121 354.898 297.627 358.767 293.049 367.842C292.838 368.334 292.627 368.756 292.416 369.249C287.697 367.912 282.978 367.068 278.189 366.505C278.189 366.013 278.26 365.52 278.26 364.957C278.048 355.039 270.16 347.652 260.653 348.496C251.145 349.341 243.539 358.134 243.75 368.053C243.75 368.545 243.82 369.108 243.82 369.6C239.031 370.937 234.313 372.696 229.735 374.806C229.524 374.384 229.312 373.891 229.031 373.469C224.101 365.309 213.466 363.269 205.297 368.967C197.127 374.665 194.521 385.921 199.451 394.151C199.733 394.573 200.014 394.995 200.296 395.347C196.704 398.935 193.324 402.874 190.155 407.095C189.732 406.814 189.309 406.603 188.887 406.392C180.506 402.171 170.012 406.04 165.434 415.114C160.857 424.189 163.885 434.952 172.266 439.173C172.689 439.384 173.111 439.595 173.604 439.736C172.055 444.73 170.857 449.795 170.083 454.79C169.59 454.79 169.097 454.79 168.604 454.86C159.096 455.704 151.49 464.498 151.701 474.417C151.912 484.335 159.8 491.722 169.308 490.878C169.801 490.807 170.294 490.737 170.787 490.667C171.773 495.591 173.182 500.445 174.872 505.088C174.449 505.369 174.027 505.58 173.604 505.932C165.434 511.63 162.829 522.885 167.759 531.116C172.689 539.276 183.323 541.316 191.493 535.618C191.915 535.337 192.338 534.985 192.69 534.703C195.93 538.291 199.451 541.527 203.254 544.552C202.972 544.974 202.691 545.466 202.479 545.889C197.902 554.963 200.93 565.726 209.311 569.947C217.692 574.168 228.185 570.299 232.763 561.224C232.975 560.732 233.186 560.31 233.397 559.817C238.116 561.154 242.834 561.998 247.624 562.561C247.624 563.053 247.553 563.546 247.553 564.108C247.764 574.027 255.652 581.413 265.16 580.569C274.668 579.725 282.274 570.932 282.063 561.013C282.063 560.521 281.992 559.958 281.992 559.465C286.781 558.129 291.5 556.37 296.078 554.26C296.289 554.682 296.5 555.174 296.782 555.596C301.712 563.757 312.347 565.797 320.516 560.099C328.686 554.4 331.292 543.145 326.362 534.915C326.08 534.492 325.798 534.07 325.517 533.719C329.108 530.131 332.489 526.192 335.658 521.971C336.081 522.182 336.503 522.393 336.926 522.674ZM232.763 523.94C202.409 508.535 191.352 469.492 208.043 436.641C224.735 403.789 262.836 389.649 293.19 405.055C323.545 420.461 334.602 459.503 317.91 492.355C301.219 525.207 263.118 539.346 232.763 523.94Z" fill="url(#paint55_linear_1443_1063)"/>
<path d="M472.499 534.492C472.64 534.422 472.992 534.351 473.344 534.422C473.837 534.492 474.189 534.703 474.4 534.914C474.612 535.055 476.091 536.251 476.091 537.869C476.091 539.135 475.105 539.276 474.119 541.386C473.344 543.145 473.767 543.496 473.062 544.411C471.865 545.959 469.259 546.592 468.132 545.607C467.639 545.114 467.569 544.411 467.498 544.27C467.358 542.512 469.189 542.019 469.541 539.979C469.963 538.009 468.414 537.025 469.118 535.899C469.4 535.407 470.456 535.125 472.499 534.492Z" fill="url(#paint56_linear_1443_1063)"/>
<path d="M471.02 531.397C472.71 532.945 473.414 534.633 472.921 535.548C472.71 535.9 472.358 536.04 472.217 536.181C471.09 536.814 469.893 536.322 469.682 536.251L467.499 533.226L471.02 531.397Z" fill="url(#paint57_linear_1443_1063)"/>
<path d="M513.487 543.145C514.051 542.934 514.614 543.075 515.037 543.426C515.671 543.989 516.657 544.904 517.15 545.748C517.995 547.014 514.826 547.647 511.586 548.351C508.346 549.054 504.332 550.109 504.402 549.124C504.543 548.14 505.459 546.662 508.628 545.044C509.473 544.552 512.079 543.567 513.487 543.145Z" fill="url(#paint58_linear_1443_1063)"/>
<path d="M513.136 539.558L514.474 543.849C514.474 543.849 513.77 545.256 511.798 544.412L509.544 540.683L513.136 539.558Z" fill="url(#paint59_linear_1443_1063)"/>
<path d="M391.789 354.476C391.789 354.476 398.198 363.761 404.395 365.52L388.126 368.123C388.126 368.123 390.239 367.419 390.239 364.465C390.239 362.636 388.76 358.134 388.76 358.134L391.789 354.476Z" fill="url(#paint60_linear_1443_1063)"/>
<path d="M426.65 449.092C425.03 455.493 422.847 464.849 421.157 476.386C418.269 496.435 420.03 500.726 420.946 502.625C424.397 509.59 430.172 510.926 444.68 519.649C455.033 525.84 462.921 531.608 467.85 535.407C468.555 535.266 469.682 534.985 470.949 534.352C472.006 533.719 472.78 533.015 473.273 532.452C471.935 525.98 469.47 521.76 467.569 519.087C465.315 515.921 463.273 514.444 453.413 506.565C446.44 501.007 442.919 498.194 442.778 497.912C436.792 486.797 456.089 472.095 451.723 460.558C450.103 456.197 444.609 451.061 426.65 449.092Z" fill="url(#paint61_linear_1443_1063)"/>
<path opacity="0.3" d="M467.569 519.086C465.315 515.921 463.273 514.444 453.413 506.565C446.441 501.007 442.919 498.194 442.778 497.912C436.792 486.797 456.089 472.095 451.723 460.558C450.103 456.267 444.68 451.132 426.65 449.162C425.805 452.398 424.819 456.408 423.904 461.051C430.524 464.427 432.566 467.804 432.919 470.547C433.834 477.09 425.735 481.662 427.707 487.22C429.327 491.792 435.524 491.229 436.722 495.872C437.919 500.445 432.637 503.047 433.623 506.635C435.243 512.544 450.314 509.238 458.343 517.046C460.949 519.579 463.484 523.94 463.625 532.101C465.245 533.296 466.724 534.422 467.921 535.337C468.625 535.196 469.752 534.914 471.02 534.281C472.076 533.648 472.851 532.945 473.344 532.382C472.006 525.98 469.541 521.689 467.569 519.086Z" fill="url(#paint62_linear_1443_1063)"/>
<path d="M423.34 451.413C428.693 455.071 436.158 460.417 444.75 467.241C457.075 477.089 470.386 487.641 483.626 503.469C490.81 512.051 500.247 524.854 508.769 542.23C509.403 542.371 510.53 542.511 511.868 542.16C513.488 541.738 514.544 540.823 514.967 540.401C516.516 527.598 514.262 518.664 512.009 512.966C507.079 500.303 501.304 501.359 491.514 482.928C488.838 477.933 485.81 471.391 479.401 460.136C476.936 455.845 475.105 452.749 472.006 449.232C467.146 443.675 461.935 440.157 458.202 438.047C446.652 442.479 435.031 446.911 423.34 451.413Z" fill="url(#paint63_linear_1443_1063)"/>
<path d="M386.225 351.169C385.732 349.481 386.929 346.949 388.901 346.245C390.38 345.682 391.789 346.316 392.775 346.808C393.268 347.019 396.508 348.567 396.648 351.31C396.719 352.154 396.367 353.21 395.803 353.983C395.522 354.335 395.029 354.827 394.043 355.601C393.127 356.305 393.197 356.305 392.916 356.516C392.282 357.008 391.085 357.782 389.042 358.556C389.113 358.063 389.113 357.43 389.042 356.727C389.042 356.445 388.901 355.39 388.549 354.405C387.845 352.506 386.648 352.506 386.225 351.169Z" fill="url(#paint64_linear_1443_1063)"/>
<path d="M391.437 357.923C391.437 357.923 388.972 359.963 385.943 358.626C383.197 357.501 384.957 351.099 387.211 350.396C387.986 350.185 389.183 350.396 390.099 351.029C390.592 351.38 390.732 351.662 391.578 352.295C392.352 352.787 392.634 352.787 392.845 353.139C393.057 353.561 393.057 354.265 391.93 355.953C392.634 355.601 393.338 355.601 393.761 355.953C393.831 356.023 393.972 356.234 393.972 356.445C394.113 357.219 393.127 357.923 391.437 357.923Z" fill="url(#paint65_linear_1443_1063)"/>
<path d="M324.249 361.299L320.446 357.36C320.446 357.36 315.657 355.038 312.206 356.797C308.755 358.556 311.783 358.274 313.544 358.556C315.304 358.767 317.981 360.385 319.741 361.299C321.502 362.214 323.333 363.48 323.333 363.48L324.249 361.299Z" fill="url(#paint66_linear_1443_1063)"/>
<path d="M324.601 359.118C323.333 360.666 322.136 362.213 320.868 363.761C324.249 375.298 329.672 381.629 334.109 385.287C348.194 397.035 362.773 390.774 381.436 404.914C387.211 409.275 390.803 413.707 393.831 417.365C407.424 433.896 406.579 444.589 418.34 451.272C424.819 455 431.017 455.141 435.102 455.282C446.722 455.633 462.498 451.131 465.034 441.846C465.527 440.087 465.386 438.61 465.315 437.906C463.062 417.857 439.327 390.422 429.749 379.659C423.059 372.132 417.284 366.082 408.41 364.605C404.677 363.972 401.649 364.394 395.662 365.168C384.746 366.645 381.295 369.107 371.717 371.077C365.238 372.414 357.984 373.961 349.955 372.765C345.095 371.992 335.165 369.6 324.601 359.118Z" fill="url(#paint67_linear_1443_1063)"/>
<path opacity="0.3" d="M440.243 444.097C436.581 436.429 440.736 430.661 436.088 424.963C430.454 418.069 422.143 423.556 413.833 416.943C404.184 409.276 408.128 396.05 399.888 392.955C394.747 391.056 392.352 395.98 384.605 394.714C376.154 393.377 376.013 387.116 367.562 384.303C358.406 381.278 354.04 387.116 341.785 386.413C339.32 386.272 336.715 385.85 333.897 385.076C333.968 385.147 334.038 385.217 334.109 385.287C348.194 397.035 362.773 390.774 381.436 404.914C387.211 409.275 390.803 413.707 393.831 417.365C407.424 433.897 406.579 444.589 418.34 451.272C424.82 455.001 431.017 455.141 435.102 455.282C439.609 455.423 444.751 454.79 449.54 453.453C444.398 450.569 441.722 447.192 440.243 444.097Z" fill="url(#paint68_linear_1443_1063)"/>
<defs>
<linearGradient id="paint0_linear_1443_1063" x1="359.767" y1="570.837" x2="-69.3199" y2="-171.981" gradientUnits="userSpaceOnUse">
<stop stop-color="#AA80F9"/>
<stop offset="0.9964" stop-color="#6165D7"/>
</linearGradient>
<linearGradient id="paint1_linear_1443_1063" x1="36.1398" y1="213.215" x2="260.37" y2="582.782" gradientUnits="userSpaceOnUse">
<stop offset="0.00359712" stop-color="#E38DDD"/>
<stop offset="1" stop-color="#9571F6"/>
</linearGradient>
<linearGradient id="paint2_linear_1443_1063" x1="383.356" y1="47.2101" x2="403.495" y2="229.47" gradientUnits="userSpaceOnUse">
<stop stop-color="#311944"/>
<stop offset="1" stop-color="#893976"/>
</linearGradient>
<linearGradient id="paint3_linear_1443_1063" x1="457.518" y1="191.042" x2="536.12" y2="349.986" gradientUnits="userSpaceOnUse">
<stop stop-color="#311944"/>
<stop offset="1" stop-color="#893976"/>
</linearGradient>
<linearGradient id="paint4_linear_1443_1063" x1="333.507" y1="124.388" x2="448.781" y2="272.768" gradientUnits="userSpaceOnUse">
<stop stop-color="#311944"/>
<stop offset="1" stop-color="#893976"/>
</linearGradient>
<linearGradient id="paint5_linear_1443_1063" x1="559.203" y1="21.1741" x2="482.434" y2="128.352" gradientUnits="userSpaceOnUse">
<stop stop-color="#311944"/>
<stop offset="1" stop-color="#893976"/>
</linearGradient>
<linearGradient id="paint6_linear_1443_1063" x1="389.841" y1="47.3355" x2="409.794" y2="227.91" gradientUnits="userSpaceOnUse">
<stop stop-color="#FFC444"/>
<stop offset="0.9964" stop-color="#F36F56"/>
</linearGradient>
<linearGradient id="paint7_linear_1443_1063" x1="463.989" y1="191.042" x2="542.591" y2="349.986" gradientUnits="userSpaceOnUse">
<stop offset="0.00359712" stop-color="#E38DDD"/>
<stop offset="1" stop-color="#9571F6"/>
</linearGradient>
<linearGradient id="paint8_linear_1443_1063" x1="340.002" y1="124.418" x2="451.195" y2="267.546" gradientUnits="userSpaceOnUse">
<stop stop-color="#AA80F9"/>
<stop offset="0.9964" stop-color="#6165D7"/>
</linearGradient>
<linearGradient id="paint9_linear_1443_1063" x1="577.347" y1="4.19514" x2="493.115" y2="121.792" gradientUnits="userSpaceOnUse">
<stop stop-color="#FF9085"/>
<stop offset="1" stop-color="#FB6FBB"/>
</linearGradient>
<linearGradient id="paint10_linear_1443_1063" x1="426.403" y1="210.89" x2="503.329" y2="366.445" gradientUnits="userSpaceOnUse">
<stop offset="0.00359712" stop-color="#E38DDD"/>
<stop offset="1" stop-color="#9571F6"/>
</linearGradient>
<linearGradient id="paint11_linear_1443_1063" x1="380.593" y1="48.5384" x2="400.503" y2="228.739" gradientUnits="userSpaceOnUse">
<stop stop-color="#FFC444"/>
<stop offset="0.9964" stop-color="#F36F56"/>
</linearGradient>
<linearGradient id="paint12_linear_1443_1063" x1="411.147" y1="205.157" x2="418.885" y2="323.297" gradientUnits="userSpaceOnUse">
<stop stop-color="#FF9085"/>
<stop offset="1" stop-color="#FB6FBB"/>
</linearGradient>
<linearGradient id="paint13_linear_1443_1063" x1="421.408" y1="251.077" x2="425.277" y2="310.148" gradientUnits="userSpaceOnUse">
<stop stop-color="#FF9085"/>
<stop offset="1" stop-color="#FB6FBB"/>
</linearGradient>
<linearGradient id="paint14_linear_1443_1063" x1="428.029" y1="193.543" x2="436.457" y2="322.208" gradientUnits="userSpaceOnUse">
<stop stop-color="#FF9085"/>
<stop offset="1" stop-color="#FB6FBB"/>
</linearGradient>
<linearGradient id="paint15_linear_1443_1063" x1="437.117" y1="207.856" x2="444.279" y2="317.208" gradientUnits="userSpaceOnUse">
<stop stop-color="#FF9085"/>
<stop offset="1" stop-color="#FB6FBB"/>
</linearGradient>
<linearGradient id="paint16_linear_1443_1063" x1="448.017" y1="273.338" x2="449.947" y2="302.8" gradientUnits="userSpaceOnUse">
<stop stop-color="#FF9085"/>
<stop offset="1" stop-color="#FB6FBB"/>
</linearGradient>
<linearGradient id="paint17_linear_1443_1063" x1="455.315" y1="239.538" x2="459.814" y2="308.225" gradientUnits="userSpaceOnUse">
<stop stop-color="#FF9085"/>
<stop offset="1" stop-color="#FB6FBB"/>
</linearGradient>
<linearGradient id="paint18_linear_1443_1063" x1="462.808" y1="212.834" x2="469.267" y2="311.458" gradientUnits="userSpaceOnUse">
<stop stop-color="#FF9085"/>
<stop offset="1" stop-color="#FB6FBB"/>
</linearGradient>
<linearGradient id="paint19_linear_1443_1063" x1="472.051" y1="234.9" x2="476.755" y2="306.725" gradientUnits="userSpaceOnUse">
<stop stop-color="#FF9085"/>
<stop offset="1" stop-color="#FB6FBB"/>
</linearGradient>
<linearGradient id="paint20_linear_1443_1063" x1="479.108" y1="199.335" x2="486.377" y2="310.318" gradientUnits="userSpaceOnUse">
<stop stop-color="#FF9085"/>
<stop offset="1" stop-color="#FB6FBB"/>
</linearGradient>
<linearGradient id="paint21_linear_1443_1063" x1="486.984" y1="187.129" x2="495.042" y2="310.157" gradientUnits="userSpaceOnUse">
<stop stop-color="#FF9085"/>
<stop offset="1" stop-color="#FB6FBB"/>
</linearGradient>
<linearGradient id="paint22_linear_1443_1063" x1="330.183" y1="382.041" x2="288.399" y2="512.187" gradientUnits="userSpaceOnUse">
<stop stop-color="#FF9085"/>
<stop offset="1" stop-color="#FB6FBB"/>
</linearGradient>
<linearGradient id="paint23_linear_1443_1063" x1="339.796" y1="385.109" x2="298.286" y2="514.399" gradientUnits="userSpaceOnUse">
<stop stop-color="#FF9085"/>
<stop offset="1" stop-color="#FB6FBB"/>
</linearGradient>
<linearGradient id="paint24_linear_1443_1063" x1="356.386" y1="390.152" x2="315.067" y2="518.847" gradientUnits="userSpaceOnUse">
<stop stop-color="#FF9085"/>
<stop offset="1" stop-color="#FB6FBB"/>
</linearGradient>
<linearGradient id="paint25_linear_1443_1063" x1="366.404" y1="393.246" x2="325.338" y2="521.153" gradientUnits="userSpaceOnUse">
<stop stop-color="#FF9085"/>
<stop offset="1" stop-color="#FB6FBB"/>
</linearGradient>
<linearGradient id="paint26_linear_1443_1063" x1="383.193" y1="398.346" x2="342.3" y2="525.717" gradientUnits="userSpaceOnUse">
<stop stop-color="#FF9085"/>
<stop offset="1" stop-color="#FB6FBB"/>
</linearGradient>
<linearGradient id="paint27_linear_1443_1063" x1="81.0082" y1="348.237" x2="81.6095" y2="357.417" gradientUnits="userSpaceOnUse">
<stop stop-color="#FF9085"/>
<stop offset="1" stop-color="#FB6FBB"/>
</linearGradient>
<linearGradient id="paint28_linear_1443_1063" x1="92.9244" y1="337.607" x2="94.3066" y2="358.71" gradientUnits="userSpaceOnUse">
<stop stop-color="#FF9085"/>
<stop offset="1" stop-color="#FB6FBB"/>
</linearGradient>
<linearGradient id="paint29_linear_1443_1063" x1="104.835" y1="329.15" x2="106.812" y2="359.337" gradientUnits="userSpaceOnUse">
<stop stop-color="#FF9085"/>
<stop offset="1" stop-color="#FB6FBB"/>
</linearGradient>
<linearGradient id="paint30_linear_1443_1063" x1="117.212" y1="335.522" x2="118.655" y2="357.545" gradientUnits="userSpaceOnUse">
<stop stop-color="#FF9085"/>
<stop offset="1" stop-color="#FB6FBB"/>
</linearGradient>
<linearGradient id="paint31_linear_1443_1063" x1="128.862" y1="324.395" x2="131.081" y2="358.286" gradientUnits="userSpaceOnUse">
<stop stop-color="#FF9085"/>
<stop offset="1" stop-color="#FB6FBB"/>
</linearGradient>
<linearGradient id="paint32_linear_1443_1063" x1="140.697" y1="320.369" x2="143.154" y2="357.887" gradientUnits="userSpaceOnUse">
<stop stop-color="#FF9085"/>
<stop offset="1" stop-color="#FB6FBB"/>
</linearGradient>
<linearGradient id="paint33_linear_1443_1063" x1="104.912" y1="246.642" x2="67.0095" y2="310.811" gradientUnits="userSpaceOnUse">
<stop stop-color="#FFC444"/>
<stop offset="0.9964" stop-color="#F36F56"/>
</linearGradient>
<linearGradient id="paint34_linear_1443_1063" x1="111.825" y1="251.015" x2="74.1863" y2="314.737" gradientUnits="userSpaceOnUse">
<stop stop-color="#FFC444"/>
<stop offset="0.9964" stop-color="#F36F56"/>
</linearGradient>
<linearGradient id="paint35_linear_1443_1063" x1="119.227" y1="255.508" x2="81.7557" y2="318.947" gradientUnits="userSpaceOnUse">
<stop stop-color="#FFC444"/>
<stop offset="0.9964" stop-color="#F36F56"/>
</linearGradient>
<linearGradient id="paint36_linear_1443_1063" x1="129.465" y1="261.615" x2="92.1172" y2="324.845" gradientUnits="userSpaceOnUse">
<stop stop-color="#FFC444"/>
<stop offset="0.9964" stop-color="#F36F56"/>
</linearGradient>
<linearGradient id="paint37_linear_1443_1063" x1="136.308" y1="265.738" x2="99.1135" y2="328.708" gradientUnits="userSpaceOnUse">
<stop stop-color="#FFC444"/>
<stop offset="0.9964" stop-color="#F36F56"/>
</linearGradient>
<linearGradient id="paint38_linear_1443_1063" x1="144.476" y1="270.619" x2="107.416" y2="333.363" gradientUnits="userSpaceOnUse">
<stop stop-color="#FFC444"/>
<stop offset="0.9964" stop-color="#F36F56"/>
</linearGradient>
<linearGradient id="paint39_linear_1443_1063" x1="117.122" y1="181.184" x2="163.763" y2="255.715" gradientUnits="userSpaceOnUse">
<stop stop-color="#AA80F9"/>
<stop offset="0.9964" stop-color="#6165D7"/>
</linearGradient>
<linearGradient id="paint40_linear_1443_1063" x1="110.398" y1="185.064" x2="157.414" y2="260.195" gradientUnits="userSpaceOnUse">
<stop stop-color="#AA80F9"/>
<stop offset="0.9964" stop-color="#6165D7"/>
</linearGradient>
<linearGradient id="paint41_linear_1443_1063" x1="103.262" y1="189.422" x2="150.505" y2="264.916" gradientUnits="userSpaceOnUse">
<stop stop-color="#AA80F9"/>
<stop offset="0.9964" stop-color="#6165D7"/>
</linearGradient>
<linearGradient id="paint42_linear_1443_1063" x1="93.1854" y1="195.714" x2="140.571" y2="271.436" gradientUnits="userSpaceOnUse">
<stop stop-color="#AA80F9"/>
<stop offset="0.9964" stop-color="#6165D7"/>
</linearGradient>
<linearGradient id="paint43_linear_1443_1063" x1="86.459" y1="199.86" x2="134.06" y2="275.927" gradientUnits="userSpaceOnUse">
<stop stop-color="#AA80F9"/>
<stop offset="0.9964" stop-color="#6165D7"/>
</linearGradient>
<linearGradient id="paint44_linear_1443_1063" x1="78.2942" y1="204.946" x2="126.074" y2="281.299" gradientUnits="userSpaceOnUse">
<stop stop-color="#AA80F9"/>
<stop offset="0.9964" stop-color="#6165D7"/>
</linearGradient>
<linearGradient id="paint45_linear_1443_1063" x1="194.733" y1="237.737" x2="214.801" y2="237.737" gradientUnits="userSpaceOnUse">
<stop stop-color="#FF9085"/>
<stop offset="1" stop-color="#FB6FBB"/>
</linearGradient>
<linearGradient id="paint46_linear_1443_1063" x1="227.698" y1="300.157" x2="247.415" y2="300.157" gradientUnits="userSpaceOnUse">
<stop stop-color="#FF9085"/>
<stop offset="1" stop-color="#FB6FBB"/>
</linearGradient>
<linearGradient id="paint47_linear_1443_1063" x1="310.548" y1="257.566" x2="329.396" y2="257.566" gradientUnits="userSpaceOnUse">
<stop stop-color="#FF9085"/>
<stop offset="1" stop-color="#FB6FBB"/>
</linearGradient>
<linearGradient id="paint48_linear_1443_1063" x1="341.868" y1="296.351" x2="360.392" y2="296.351" gradientUnits="userSpaceOnUse">
<stop stop-color="#FF9085"/>
<stop offset="1" stop-color="#FB6FBB"/>
</linearGradient>
<linearGradient id="paint49_linear_1443_1063" x1="165.34" y1="579.251" x2="104.655" y2="543.641" gradientUnits="userSpaceOnUse">
<stop stop-color="#FF9085"/>
<stop offset="1" stop-color="#FB6FBB"/>
</linearGradient>
<linearGradient id="paint50_linear_1443_1063" x1="91.7689" y1="537.43" x2="105.257" y2="543.506" gradientUnits="userSpaceOnUse">
<stop stop-color="#FF9085"/>
<stop offset="1" stop-color="#FB6FBB"/>
</linearGradient>
<linearGradient id="paint51_linear_1443_1063" x1="149.427" y1="596.586" x2="1.20837" y2="408.625" gradientUnits="userSpaceOnUse">
<stop stop-color="#FF9085"/>
<stop offset="1" stop-color="#FB6FBB"/>
</linearGradient>
<linearGradient id="paint52_linear_1443_1063" x1="329.77" y1="439.052" x2="373.912" y2="403.558" gradientUnits="userSpaceOnUse">
<stop stop-color="#FFC444"/>
<stop offset="0.9964" stop-color="#F36F56"/>
</linearGradient>
<linearGradient id="paint53_linear_1443_1063" x1="384.785" y1="537.979" x2="254.071" y2="461.278" gradientUnits="userSpaceOnUse">
<stop stop-color="#FF9085"/>
<stop offset="1" stop-color="#FB6FBB"/>
</linearGradient>
<linearGradient id="paint54_linear_1443_1063" x1="226.316" y1="447.899" x2="255.369" y2="460.988" gradientUnits="userSpaceOnUse">
<stop stop-color="#FF9085"/>
<stop offset="1" stop-color="#FB6FBB"/>
</linearGradient>
<linearGradient id="paint55_linear_1443_1063" x1="219.946" y1="405.91" x2="357.039" y2="593.24" gradientUnits="userSpaceOnUse">
<stop stop-color="#FF9085"/>
<stop offset="1" stop-color="#FB6FBB"/>
</linearGradient>
<linearGradient id="paint56_linear_1443_1063" x1="462.484" y1="591.447" x2="472.065" y2="538.873" gradientUnits="userSpaceOnUse">
<stop stop-color="#311944"/>
<stop offset="1" stop-color="#893976"/>
</linearGradient>
<linearGradient id="paint57_linear_1443_1063" x1="471.98" y1="550.646" x2="474.301" y2="573.191" gradientUnits="userSpaceOnUse">
<stop stop-color="#FFC444"/>
<stop offset="0.9964" stop-color="#F36F56"/>
</linearGradient>
<linearGradient id="paint58_linear_1443_1063" x1="504.99" y1="579.721" x2="511.238" y2="545.433" gradientUnits="userSpaceOnUse">
<stop stop-color="#311944"/>
<stop offset="1" stop-color="#893976"/>
</linearGradient>
<linearGradient id="paint59_linear_1443_1063" x1="512.535" y1="547.177" x2="514.849" y2="569.649" gradientUnits="userSpaceOnUse">
<stop stop-color="#FFC444"/>
<stop offset="0.9964" stop-color="#F36F56"/>
</linearGradient>
<linearGradient id="paint60_linear_1443_1063" x1="401.069" y1="378.99" x2="392.042" y2="356.038" gradientUnits="userSpaceOnUse">
<stop stop-color="#FFC444"/>
<stop offset="0.9964" stop-color="#F36F56"/>
</linearGradient>
<linearGradient id="paint61_linear_1443_1063" x1="420.43" y1="526.507" x2="516.316" y2="410.338" gradientUnits="userSpaceOnUse">
<stop stop-color="#444B8C"/>
<stop offset="0.9964" stop-color="#26264F"/>
</linearGradient>
<linearGradient id="paint62_linear_1443_1063" x1="420.43" y1="526.507" x2="516.316" y2="410.338" gradientUnits="userSpaceOnUse">
<stop stop-color="#444B8C"/>
<stop offset="0.9964" stop-color="#26264F"/>
</linearGradient>
<linearGradient id="paint63_linear_1443_1063" x1="468.945" y1="496.24" x2="515.493" y2="433.294" gradientUnits="userSpaceOnUse">
<stop stop-color="#444B8C"/>
<stop offset="0.9964" stop-color="#26264F"/>
</linearGradient>
<linearGradient id="paint64_linear_1443_1063" x1="392.003" y1="367.878" x2="391.253" y2="347.291" gradientUnits="userSpaceOnUse">
<stop stop-color="#311944"/>
<stop offset="1" stop-color="#893976"/>
</linearGradient>
<linearGradient id="paint65_linear_1443_1063" x1="376.116" y1="357.919" x2="398.708" y2="351.906" gradientUnits="userSpaceOnUse">
<stop stop-color="#FFC444"/>
<stop offset="0.9964" stop-color="#F36F56"/>
</linearGradient>
<linearGradient id="paint66_linear_1443_1063" x1="294.456" y1="341.794" x2="335.819" y2="373.114" gradientUnits="userSpaceOnUse">
<stop stop-color="#FFC444"/>
<stop offset="0.8142" stop-color="#F57F53"/>
<stop offset="0.9964" stop-color="#F36F56"/>
</linearGradient>
<linearGradient id="paint67_linear_1443_1063" x1="389.234" y1="383.963" x2="412.376" y2="482.198" gradientUnits="userSpaceOnUse">
<stop stop-color="#FFC444"/>
<stop offset="0.9964" stop-color="#F36F56"/>
</linearGradient>
<linearGradient id="paint68_linear_1443_1063" x1="383.698" y1="385.268" x2="406.84" y2="483.502" gradientUnits="userSpaceOnUse">
<stop stop-color="#FFC444"/>
<stop offset="0.9964" stop-color="#F36F56"/>
</linearGradient>
</defs>
</svg>
