<svg width="48" height="49" viewBox="0 0 48 49" fill="none" xmlns="http://www.w3.org/2000/svg">
<rect y="0.5" width="48" height="48" rx="24" fill="white"/>
<rect y="0.5" width="48" height="48" rx="24" fill="#FFF0E0"/>
<path d="M24.5239 20.7669L24.8909 18.9319L25.2579 20.7669C25.9357 24.1561 28.5849 26.8053 31.9741 27.4831L33.8091 27.8501L31.9741 28.2171C28.5849 28.8949 25.9357 31.5441 25.2579 34.9333L24.8909 36.7683L24.5239 34.9333C23.846 31.5441 21.1968 28.8949 17.8077 28.2171L15.9727 27.8501L17.8077 27.4831C21.1968 26.8053 23.846 24.1561 24.5239 20.7669Z" fill="#FF7E00"/>
<path d="M17.2756 12.4175L17.4591 11.5L17.6426 12.4175C17.9815 14.1121 19.3061 15.4367 21.0007 15.7756L21.9182 15.9591L21.0007 16.1426C19.3061 16.4815 17.9815 17.8061 17.6426 19.5007L17.4591 20.4182L17.2756 19.5007C16.9367 17.8061 15.6121 16.4815 13.9175 16.1426L13 15.9591L13.9175 15.7756C15.6121 15.4367 16.9367 14.1121 17.2756 12.4175Z" fill="#FF7E00"/>
<path d="M32.2005 13.5981L32.3228 12.9865L32.4452 13.5981C32.6711 14.7279 33.5542 15.6109 34.6839 15.8369L35.2956 15.9592L34.6839 16.0815C33.5542 16.3075 32.6711 17.1905 32.4452 18.3203L32.3228 18.9319L32.2005 18.3203C31.9746 17.1905 31.0915 16.3075 29.9618 16.0815L29.3501 15.9592L29.9618 15.8369C31.0915 15.6109 31.9746 14.7279 32.2005 13.5981Z" fill="#FF7E00"/>
</svg>
