<svg width="48" height="48" viewBox="0 0 48 48" fill="none" xmlns="http://www.w3.org/2000/svg">
<rect width="48" height="48" rx="24" fill="#FFF0E0"/>
<path d="M24.4134 24.1511C23.8248 24.1511 10 24.1931 10 27.831C10 30.6871 18.4306 31.3231 22.026 31.4642L20.844 32.6397C20.5323 32.9487 20.531 33.4524 20.8406 33.7641V33.7647C21.1502 34.0764 21.6539 34.0785 21.9653 33.7681L24.2303 31.5168C24.5417 31.2071 24.5693 30.6802 24.2866 30.344C23.7143 29.664 22.7888 28.5717 22.2139 27.8928C21.9298 27.5586 21.4278 27.5163 21.0929 27.8014C20.7584 28.0858 20.7171 28.5874 21.0016 28.9223L21.8012 29.8649C16.7303 29.6586 13.5664 28.8964 12.2596 28.2771C11.8626 28.0892 11.8585 27.5678 12.2555 27.3785C13.8303 26.6313 18.0419 25.7413 24.4138 25.7413C30.786 25.7413 34.9972 26.6317 36.5717 27.3785C36.9687 27.5671 36.9646 28.0892 36.5669 28.2771C35.2029 28.9226 31.822 29.7264 26.3559 29.8901C25.9173 29.9034 25.5671 30.2652 25.5753 30.7048C25.5831 31.1437 25.9453 31.4936 26.3845 31.4792C29.6927 31.3715 38.8269 30.8033 38.8269 27.8307C38.8265 24.1931 25.002 24.1511 24.4134 24.1511Z" fill="#FF7E00"/>
<path d="M29.6928 19.2315C30.9177 18.6457 31.5302 17.7444 31.5302 16.5273C31.5302 15.7501 31.2485 15.1346 30.6848 14.6807C30.1215 14.2268 29.2004 14 27.9226 14H26.3767H24.9759H24.4002H24.123H22.925L20.4952 20.7211L18.0593 14H15.9413L19.4268 23.1996H21.4842L24.4261 15.4483H28.1875C28.2049 15.4476 28.2217 15.4432 28.2387 15.4432C28.2568 15.4432 28.2731 15.4476 28.2902 15.4483H28.4078V15.4602C29.0357 15.5438 29.5209 16.0754 29.5209 16.7254C29.5209 17.3754 29.0357 17.907 28.4078 17.9906V18.0025H28.2905C28.2731 18.0032 28.2568 18.0076 28.239 18.0076C28.2217 18.0076 28.2049 18.0032 28.1879 18.0025H24.4002V23.1996H26.4146V19.7141H27.6968L30.395 23.1996H32.8857L29.6928 19.2315Z" fill="#FF7E00"/>
</svg>
